<svg xmlns="http://www.w3.org/2000/svg" xmlns:xlink="http://www.w3.org/1999/xlink" width="500" zoomAndPan="magnify" viewBox="0 0 375 374.999991" height="500" preserveAspectRatio="xMidYMid meet" version="1.0"><defs><clipPath id="b39e9ce04c"><path d="M 306 69 L 322.074219 69 L 322.074219 116 L 306 116 Z M 306 69 " clip-rule="nonzero"/></clipPath><clipPath id="1750d1f081"><path d="M 52.824219 200 L 212 200 L 212 288 L 52.824219 288 Z M 52.824219 200 " clip-rule="nonzero"/></clipPath></defs><path fill="#e2e2d3" d="M 110.140625 72.074219 L 122.484375 30.109375 L 127.382812 31.277344 L 118.761719 68.96875 Z M 110.140625 72.074219 " fill-opacity="1" fill-rule="nonzero"/><path fill="#1c1d23" d="M 123.234375 31.40625 L 111.789062 70.320312 L 117.832031 68.144531 L 126.082031 32.085938 Z M 108.488281 73.828125 L 121.730469 28.8125 L 128.683594 30.46875 L 119.691406 69.792969 Z M 108.488281 73.828125 " fill-opacity="1" fill-rule="nonzero"/><path fill="#e2e2d3" d="M 314.324219 114.253906 L 320.847656 71.214844 L 315.894531 70.28125 L 307.796875 111.152344 Z M 314.324219 114.253906 " fill-opacity="1" fill-rule="nonzero"/><g clip-path="url(#b39e9ce04c)"><path fill="#1c1d23" d="M 309.03125 110.53125 L 313.464844 112.640625 L 319.613281 72.09375 L 316.757812 71.554688 Z M 315.179688 115.867188 L 306.566406 111.773438 L 315.035156 69.011719 L 322.078125 70.34375 Z M 315.179688 115.867188 " fill-opacity="1" fill-rule="nonzero"/></g><path fill="#e2e2d3" d="M 197.503906 357.761719 C 186.542969 356.601562 159.800781 347.210938 152.390625 344.613281 C 150.722656 344.023438 115.539062 331.75 112.074219 330.546875 C 111.894531 330.488281 111.796875 330.453125 111.796875 330.453125 C 111.796875 330.453125 76.796875 302.910156 87.300781 289.128906 C 93.160156 281.4375 102.730469 277.902344 110.042969 276.277344 C 115.824219 274.992188 120.195312 274.90625 120.195312 274.90625 C 138.769531 270.957031 206.523438 275.253906 206.523438 275.253906 C 206.523438 275.253906 210.023438 287.742188 205.125 299.410156 C 203.933594 302.246094 197.8125 305.535156 189.234375 308.886719 C 201.449219 312.695312 211.839844 315.996094 213.058594 316.605469 C 216.164062 318.160156 218.964844 338.839844 219.125 340.800781 C 219.972656 351.132812 216.691406 359.796875 197.503906 357.761719 Z M 197.503906 357.761719 " fill-opacity="1" fill-rule="nonzero"/><path fill="#ffffff" d="M 112.078125 330.546875 C 111.894531 330.488281 111.800781 330.449219 111.800781 330.449219 C 111.800781 330.449219 76.796875 302.90625 87.300781 289.125 C 93.160156 281.4375 102.734375 277.902344 110.042969 276.273438 C 110.972656 277.632812 111.421875 278.539062 111.421875 278.539062 C 111.421875 278.539062 94.707031 281.996094 92.230469 293.304688 C 89.75 304.609375 110.335938 320.300781 110.335938 320.300781 Z M 112.078125 330.546875 " fill-opacity="1" fill-rule="nonzero"/><path fill="#afaea0" d="M 126.820312 280.3125 C 126.820312 280.3125 145.09375 294.15625 143.9375 299.3125 C 142.78125 304.46875 169.933594 308.972656 170.660156 308.980469 C 171.386719 308.988281 189.789062 307.507812 193.8125 305.507812 C 197.835938 303.511719 196.792969 303.886719 196.792969 303.886719 L 202.707031 289.171875 C 202.707031 289.171875 190.90625 279.882812 187.375 279.574219 C 183.84375 279.261719 154.210938 285.566406 150.246094 285.566406 C 146.28125 285.566406 126.820312 280.3125 126.820312 280.3125 Z M 126.820312 280.3125 " fill-opacity="1" fill-rule="nonzero"/><path fill="#1c1d23" d="M 219.46875 340.75 C 219.675781 343.375 219.667969 346.085938 219.019531 348.765625 C 218.6875 350.101562 218.195312 351.425781 217.460938 352.632812 C 216.726562 353.84375 215.761719 354.921875 214.648438 355.792969 C 212.40625 357.542969 209.695312 358.382812 207.0625 358.816406 C 204.40625 359.238281 201.753906 359.253906 199.136719 359.09375 C 196.527344 358.953125 193.886719 358.523438 191.355469 357.992188 C 188.8125 357.4375 186.300781 356.816406 183.8125 356.128906 C 178.828125 354.773438 173.902344 353.261719 169 351.683594 C 159.191406 348.53125 149.511719 345.042969 139.804688 341.679688 L 110.691406 331.523438 L 110.6875 331.523438 L 110.558594 331.484375 L 110.375 331.347656 C 107.328125 329.152344 104.488281 326.765625 101.683594 324.300781 C 98.890625 321.828125 96.222656 319.203125 93.691406 316.421875 C 91.175781 313.625 88.785156 310.675781 86.746094 307.398438 C 85.730469 305.761719 84.820312 304.03125 84.035156 302.203125 C 83.304688 300.347656 82.734375 298.363281 82.558594 296.238281 C 82.375 294.128906 82.679688 291.800781 83.722656 289.773438 C 84.238281 288.785156 84.90625 287.800781 85.527344 287.089844 C 85.832031 286.699219 86.164062 286.328125 86.503906 285.964844 C 86.839844 285.597656 87.171875 285.226562 87.535156 284.890625 C 90.351562 282.085938 93.691406 279.933594 97.167969 278.253906 C 100.660156 276.570312 104.316406 275.359375 108.03125 274.488281 C 109.886719 274.050781 111.761719 273.707031 113.644531 273.441406 C 115.550781 273.183594 117.386719 272.988281 119.402344 272.921875 L 119.019531 272.964844 C 122.753906 272.308594 126.410156 271.953125 130.050781 271.765625 C 131.867188 271.691406 133.6875 271.550781 135.5 271.53125 L 140.9375 271.429688 C 148.179688 271.394531 155.402344 271.539062 162.621094 271.75 C 166.226562 271.878906 169.835938 271.996094 173.4375 272.160156 C 177.042969 272.320312 180.644531 272.53125 184.246094 272.730469 C 191.449219 273.144531 198.640625 273.609375 205.835938 274.207031 L 206.632812 274.273438 L 206.816406 275.003906 C 207.296875 276.871094 207.570312 278.664062 207.785156 280.515625 C 207.976562 282.355469 208.09375 284.207031 208.054688 286.058594 C 208.035156 289.765625 207.480469 293.484375 206.386719 297.054688 C 206.132812 297.957031 205.75 298.816406 205.441406 299.695312 C 205.378906 299.894531 205.207031 300.195312 205.082031 300.441406 C 204.941406 300.695312 204.773438 300.894531 204.617188 301.117188 C 204.285156 301.527344 203.9375 301.910156 203.566406 302.234375 C 202.101562 303.570312 200.492188 304.515625 198.875 305.421875 C 195.625 307.191406 192.261719 308.605469 188.875 309.945312 L 188.800781 307.886719 L 200.796875 311.65625 L 206.785156 313.578125 L 209.78125 314.570312 L 211.28125 315.089844 L 212.042969 315.367188 C 212.300781 315.46875 212.550781 315.542969 212.921875 315.757812 C 213.351562 316.019531 213.582031 316.304688 213.800781 316.574219 L 214.085938 316.976562 L 214.3125 317.371094 C 214.605469 317.898438 214.820312 318.414062 215.027344 318.929688 C 215.429688 319.960938 215.746094 320.988281 216.035156 322.019531 C 216.609375 324.082031 217.066406 326.148438 217.480469 328.21875 C 217.890625 330.292969 218.253906 332.367188 218.589844 334.445312 C 218.921875 336.542969 219.238281 338.574219 219.46875 340.75 Z M 217.296875 340.925781 C 217.085938 338.941406 216.765625 336.828125 216.449219 334.785156 C 216.121094 332.726562 215.757812 330.675781 215.355469 328.640625 C 214.945312 326.605469 214.5 324.578125 213.949219 322.601562 C 213.675781 321.617188 213.375 320.640625 213.011719 319.71875 C 212.828125 319.265625 212.636719 318.8125 212.417969 318.425781 C 212.226562 318.023438 211.910156 317.675781 211.835938 317.636719 C 211.757812 317.578125 211.503906 317.484375 211.277344 317.398438 L 210.5625 317.136719 L 209.097656 316.628906 L 206.125 315.644531 L 200.152344 313.726562 L 188.167969 309.960938 L 185.230469 309.042969 L 188.097656 307.910156 C 191.429688 306.589844 194.742188 305.195312 197.84375 303.507812 C 199.371094 302.652344 200.898438 301.730469 202.105469 300.625 C 202.414062 300.355469 202.675781 300.0625 202.914062 299.773438 C 203.007812 299.625 203.140625 299.480469 203.210938 299.335938 C 203.28125 299.175781 203.363281 299.09375 203.441406 298.859375 C 203.726562 298.039062 204.089844 297.238281 204.320312 296.398438 C 205.34375 293.0625 205.871094 289.554688 205.894531 286.03125 C 205.929688 284.269531 205.816406 282.503906 205.632812 280.75 C 205.441406 279.011719 205.15625 277.222656 204.734375 275.585938 L 205.714844 276.378906 C 198.527344 276.101562 191.328125 275.824219 184.136719 275.621094 L 173.34375 275.367188 C 169.746094 275.265625 166.152344 275.214844 162.558594 275.152344 C 155.367188 275.070312 148.183594 275.058594 141.015625 275.222656 C 137.4375 275.347656 133.859375 275.457031 130.308594 275.699219 C 126.753906 275.914062 123.238281 276.304688 119.875 276.917969 L 119.675781 276.957031 L 119.496094 276.964844 C 117.824219 277.035156 115.988281 277.238281 114.242188 277.492188 C 112.476562 277.761719 110.722656 278.097656 108.992188 278.507812 C 105.527344 279.332031 102.148438 280.46875 98.996094 282 C 95.847656 283.535156 92.910156 285.457031 90.5 287.875 C 89.320312 289.050781 88.109375 290.46875 87.492188 291.644531 C 86.824219 292.90625 86.597656 294.382812 86.71875 295.9375 C 86.828125 297.488281 87.269531 299.089844 87.859375 300.675781 C 88.496094 302.253906 89.269531 303.8125 90.164062 305.332031 C 91.972656 308.355469 94.121094 311.257812 96.433594 314.03125 C 101.085938 319.570312 106.292969 324.777344 111.726562 329.632812 L 111.410156 329.460938 L 111.414062 329.460938 L 140.527344 339.617188 C 150.246094 342.984375 159.90625 346.464844 169.671875 349.601562 C 174.550781 351.171875 179.453125 352.679688 184.386719 354.019531 C 189.328125 355.332031 194.265625 356.632812 199.273438 356.910156 C 201.78125 357.066406 204.296875 357.046875 206.722656 356.660156 C 209.132812 356.265625 211.488281 355.503906 213.3125 354.066406 C 214.226562 353.355469 215 352.488281 215.601562 351.5 C 216.203125 350.511719 216.621094 349.398438 216.90625 348.242188 C 217.472656 345.917969 217.496094 343.414062 217.296875 340.925781 Z M 217.296875 340.925781 " fill-opacity="1" fill-rule="nonzero"/><path fill="#afaea0" d="M 177.3125 305.332031 C 177.3125 305.332031 114.003906 293.460938 112.449219 293.304688 C 111.597656 293.222656 112.054688 298.820312 114.160156 303.574219 C 115.898438 307.496094 119.292969 310.730469 119.292969 310.730469 L 132.824219 314 C 132.824219 314 144.277344 315.40625 145.4375 316.28125 C 146.597656 317.15625 177.3125 305.332031 177.3125 305.332031 Z M 177.3125 305.332031 " fill-opacity="1" fill-rule="nonzero"/><path fill="#e2e2d3" d="M 234.082031 352.277344 C 224.910156 366.125 211.21875 374.992188 200.328125 369.390625 C 195.683594 367.003906 193.667969 363.011719 192.882812 359.226562 C 191.820312 354.136719 192.988281 349.410156 192.988281 349.410156 C 197.460938 334.558594 241.085938 317.578125 241.085938 317.578125 C 241.085938 317.578125 241.269531 319.285156 241.304688 322.042969 C 241.40625 328.933594 240.640625 342.390625 234.082031 352.277344 Z M 234.082031 352.277344 " fill-opacity="1" fill-rule="nonzero"/><path fill="#afaea0" d="M 234.082031 352.277344 C 224.910156 366.125 211.21875 374.992188 200.328125 369.390625 C 195.683594 367.003906 193.667969 363.011719 192.882812 359.226562 L 193.808594 358.457031 L 193.808594 357.804688 C 193.808594 357.804688 200.328125 359.277344 207.175781 355.234375 C 214.019531 351.191406 237.351562 320.84375 237.820312 320.53125 C 237.949219 320.445312 239.351562 321.082031 241.304688 322.042969 C 241.40625 328.933594 240.640625 342.390625 234.082031 352.277344 Z M 234.082031 352.277344 " fill-opacity="1" fill-rule="nonzero"/><path fill="#1c1d23" d="M 191.710938 349.0625 C 192.597656 346.347656 194.183594 344.261719 195.894531 342.359375 C 197.625 340.476562 199.527344 338.820312 201.5 337.285156 C 205.457031 334.234375 209.675781 331.621094 213.972656 329.191406 C 218.28125 326.773438 222.679688 324.554688 227.140625 322.46875 C 231.597656 320.367188 236.089844 318.394531 240.691406 316.566406 L 242.035156 316.03125 L 242.167969 317.46875 L 242.167969 317.472656 C 242.492188 319.621094 242.621094 321.71875 242.691406 323.851562 C 242.785156 325.980469 242.71875 328.105469 242.601562 330.238281 C 242.320312 334.496094 241.648438 338.753906 240.417969 342.914062 L 239.949219 344.46875 L 239.371094 346 L 238.789062 347.527344 L 238.085938 349.015625 L 237.382812 350.5 L 236.539062 351.925781 L 235.6875 353.347656 L 234.773438 354.675781 C 232.300781 358.191406 229.472656 361.480469 226.242188 364.382812 C 223 367.265625 219.3125 369.75 215.125 371.339844 C 213.027344 372.101562 210.808594 372.65625 208.511719 372.742188 C 206.230469 372.867188 203.890625 372.519531 201.722656 371.730469 C 200.640625 371.332031 199.613281 370.816406 198.625 370.222656 C 197.652344 369.597656 196.722656 368.894531 195.898438 368.074219 C 194.253906 366.425781 193 364.40625 192.25 362.261719 C 191.480469 360.117188 191.132812 357.886719 191.070312 355.683594 C 191.039062 354.582031 191.082031 353.480469 191.179688 352.390625 C 191.234375 351.84375 191.296875 351.300781 191.382812 350.757812 C 191.421875 350.484375 191.46875 350.210938 191.523438 349.9375 L 191.605469 349.527344 Z M 194.265625 349.761719 L 194.140625 350.414062 L 194.035156 351.144531 C 193.964844 351.632812 193.917969 352.125 193.882812 352.621094 C 193.808594 353.605469 193.792969 354.597656 193.839844 355.582031 C 193.933594 357.546875 194.285156 359.480469 194.96875 361.257812 C 195.632812 363.035156 196.671875 364.625 198.011719 365.902344 C 198.683594 366.535156 199.441406 367.074219 200.238281 367.554688 C 201.050781 368.011719 201.90625 368.414062 202.789062 368.714844 C 206.339844 369.925781 210.277344 369.476562 213.867188 368.046875 C 217.472656 366.601562 220.769531 364.273438 223.714844 361.574219 C 226.683594 358.886719 229.320312 355.796875 231.628906 352.476562 L 232.480469 351.222656 L 233.230469 349.953125 L 233.980469 348.6875 L 235.285156 346.015625 L 235.835938 344.625 L 236.382812 343.234375 L 236.84375 341.804688 C 237 341.324219 237.167969 340.855469 237.308594 340.371094 L 237.699219 338.910156 C 237.976562 337.9375 238.179688 336.949219 238.386719 335.957031 C 238.824219 333.980469 239.117188 331.960938 239.382812 329.9375 C 239.871094 325.898438 240.097656 321.75 240.003906 317.695312 L 241.484375 318.597656 C 236.976562 320.402344 232.496094 322.382812 228.09375 324.472656 C 223.695312 326.578125 219.363281 328.824219 215.144531 331.242188 C 210.933594 333.671875 206.828125 336.28125 203.046875 339.257812 C 201.164062 340.75 199.378906 342.34375 197.808594 344.089844 C 197.398438 344.511719 197.042969 344.96875 196.6875 345.425781 C 196.308594 345.875 196.003906 346.351562 195.691406 346.828125 C 195.351562 347.289062 195.132812 347.800781 194.863281 348.285156 C 194.714844 348.53125 194.640625 348.777344 194.546875 349.023438 Z M 194.265625 349.761719 " fill-opacity="1" fill-rule="nonzero"/><path fill="#afaea0" d="M 263.40625 309.953125 C 259.480469 333.929688 174.402344 354.847656 163.144531 357.519531 C 162.34375 357.707031 161.917969 357.804688 161.917969 357.804688 L 157.292969 347.644531 L 142.78125 315.789062 C 142.78125 315.789062 143.863281 315.542969 145.699219 315.097656 C 155.878906 312.625 189.347656 303.996094 192.28125 296.878906 C 195.742188 288.480469 182.910156 274.480469 182.910156 274.480469 L 248.710938 267.945312 C 248.710938 267.945312 252.042969 270.828125 255.605469 276.070312 C 260.503906 283.3125 265.839844 295.066406 263.40625 309.953125 Z M 263.40625 309.953125 " fill-opacity="1" fill-rule="nonzero"/><path fill="#e2e2d3" d="M 264.019531 302.933594 C 263.996094 305.1875 263.808594 307.527344 263.40625 309.953125 C 259.480469 333.929688 174.402344 354.847656 163.144531 357.519531 C 163.335938 357.097656 163.519531 356.671875 163.695312 356.234375 C 163.816406 355.929688 163.933594 355.617188 164.042969 355.304688 C 164.167969 354.949219 164.28125 354.59375 164.390625 354.238281 C 164.601562 353.5625 164.785156 352.871094 164.933594 352.175781 C 164.988281 351.933594 165.039062 351.703125 165.082031 351.472656 C 165.117188 351.273438 165.152344 351.078125 165.1875 350.882812 C 165.21875 350.714844 165.242188 350.539062 165.269531 350.375 C 165.296875 350.175781 165.328125 349.980469 165.347656 349.785156 C 165.390625 349.460938 165.429688 349.128906 165.457031 348.800781 C 165.480469 348.578125 165.496094 348.347656 165.507812 348.121094 C 165.53125 347.816406 165.546875 347.511719 165.550781 347.214844 C 165.5625 346.945312 165.566406 346.683594 165.566406 346.421875 C 165.566406 346.160156 165.558594 345.90625 165.550781 345.652344 C 165.550781 345.417969 165.539062 345.183594 165.523438 344.949219 L 163.398438 335.871094 C 190.496094 326.53125 228.25 311.933594 233.308594 304.8125 C 239.902344 295.535156 237.03125 282.246094 237.03125 282.246094 L 255.605469 276.066406 C 259.707031 282.136719 264.113281 291.355469 264.019531 302.933594 Z M 264.019531 302.933594 " fill-opacity="1" fill-rule="nonzero"/><path fill="#ffffff" d="M 264.019531 302.933594 C 263.996094 305.1875 263.808594 307.527344 263.40625 309.953125 C 259.480469 333.929688 174.402344 354.847656 163.144531 357.519531 C 163.335938 357.097656 163.519531 356.671875 163.695312 356.234375 C 163.816406 355.929688 163.933594 355.617188 164.042969 355.304688 C 164.5 354.773438 165.007812 354.355469 165.566406 354.050781 C 165.566406 354.050781 243.03125 326.195312 253.21875 316.324219 C 258.011719 311.6875 261.578125 306.800781 264.019531 302.933594 Z M 264.019531 302.933594 " fill-opacity="1" fill-rule="nonzero"/><path fill="#1c1d23" d="M 143.757812 316.273438 C 150.273438 330.03125 156.660156 343.597656 162.902344 357.351562 L 161.671875 356.742188 L 161.675781 356.742188 C 168.167969 355.09375 174.664062 353.324219 181.109375 351.441406 C 187.554688 349.550781 193.988281 347.609375 200.355469 345.492188 C 206.730469 343.390625 213.042969 341.121094 219.292969 338.71875 C 225.53125 336.292969 231.695312 333.679688 237.648438 330.691406 C 243.582031 327.703125 249.375 324.355469 254.378906 320.21875 C 256.824219 318.125 259.109375 315.792969 260.527344 313.117188 C 260.882812 312.453125 261.1875 311.769531 261.398438 311.074219 C 261.535156 310.730469 261.59375 310.378906 261.675781 310.027344 C 261.765625 309.703125 261.808594 309.265625 261.867188 308.871094 C 261.984375 308.070312 262.109375 307.265625 262.164062 306.457031 L 262.273438 305.242188 L 262.328125 304.027344 C 262.972656 291.042969 257.203125 277.984375 248 268.769531 L 248.820312 269.027344 L 183.027344 275.566406 L 183.722656 273.746094 C 185.96875 276.285156 187.957031 278.949219 189.738281 281.816406 C 191.472656 284.691406 193.050781 287.753906 193.722656 291.230469 C 193.882812 292.09375 193.984375 292.988281 193.957031 293.898438 C 193.957031 294.808594 193.800781 295.738281 193.523438 296.636719 L 193.292969 297.304688 C 193.175781 297.542969 193.066406 297.800781 192.921875 298.007812 C 192.65625 298.449219 192.34375 298.808594 192.023438 299.152344 C 191.378906 299.828125 190.679688 300.371094 189.972656 300.875 C 187.113281 302.835938 184.054688 304.1875 180.988281 305.476562 C 174.828125 307.992188 168.523438 309.984375 162.183594 311.839844 C 159.015625 312.761719 155.832031 313.636719 152.640625 314.472656 L 147.847656 315.695312 L 145.445312 316.285156 L 144.238281 316.574219 L 143.335938 316.785156 L 143.183594 316.820312 L 143.109375 316.839844 L 143.070312 316.847656 C 143.003906 316.867188 143.320312 316.785156 143.429688 316.683594 C 143.578125 316.570312 143.695312 316.414062 143.757812 316.273438 Z M 141.804688 315.308594 C 141.878906 315.164062 142.011719 315.007812 142.175781 314.894531 C 142.296875 314.785156 142.628906 314.703125 142.574219 314.722656 L 142.613281 314.714844 L 142.683594 314.695312 L 142.835938 314.660156 L 143.132812 314.589844 L 143.730469 314.449219 L 144.925781 314.164062 L 147.316406 313.578125 L 152.085938 312.363281 C 155.261719 311.53125 158.425781 310.664062 161.570312 309.746094 C 167.863281 307.902344 174.125 305.921875 180.152344 303.460938 C 183.144531 302.210938 186.140625 300.867188 188.710938 299.09375 C 189.347656 298.648438 189.949219 298.171875 190.4375 297.652344 C 190.675781 297.394531 190.910156 297.128906 191.0625 296.863281 C 191.160156 296.734375 191.199219 296.601562 191.273438 296.472656 L 191.441406 295.976562 C 191.867188 294.636719 191.859375 293.117188 191.574219 291.621094 C 191 288.609375 189.535156 285.691406 187.875 282.960938 C 186.1875 280.234375 184.21875 277.605469 182.109375 275.21875 L 180.683594 273.609375 L 182.804688 273.398438 L 248.597656 266.863281 L 249.058594 266.808594 L 249.417969 267.121094 C 252.089844 269.457031 254.296875 272.058594 256.335938 274.859375 C 258.339844 277.667969 260.121094 280.652344 261.515625 283.828125 C 264.351562 290.152344 265.863281 297.152344 265.628906 304.140625 L 265.582031 305.449219 L 265.472656 306.753906 C 265.421875 307.628906 265.296875 308.488281 265.179688 309.351562 C 265.082031 310.171875 264.898438 311.1875 264.609375 312.082031 C 264.328125 313 263.953125 313.867188 263.523438 314.691406 C 261.78125 318 259.242188 320.5625 256.617188 322.851562 C 253.953125 325.113281 251.109375 327.085938 248.171875 328.855469 C 245.238281 330.632812 242.226562 332.246094 239.175781 333.761719 C 233.070312 336.78125 226.808594 339.402344 220.484375 341.820312 C 214.164062 344.25 207.746094 346.394531 201.300781 348.425781 C 188.402344 352.472656 175.367188 355.96875 162.160156 358.863281 L 162.15625 358.863281 L 161.292969 359.0625 L 160.921875 358.253906 C 154.410156 344 148.042969 329.558594 141.804688 315.308594 Z M 141.804688 315.308594 " fill-opacity="1" fill-rule="nonzero"/><path fill="#e2e2d3" d="M 125.011719 66.03125 L 113.070312 138.6875 C 113.070312 138.6875 107.476562 136.089844 102.792969 132.699219 C 101.015625 131.410156 99.375 130.011719 98.222656 128.601562 C 94.019531 123.46875 99.382812 85.429688 101.953125 78.894531 C 103.171875 75.761719 108.511719 72.683594 113.746094 70.324219 L 113.753906 70.316406 C 119.445312 67.75 125.011719 66.03125 125.011719 66.03125 Z M 125.011719 66.03125 " fill-opacity="1" fill-rule="nonzero"/><path fill="#afaea0" d="M 125.011719 66.03125 L 113.070312 138.6875 C 113.070312 138.6875 107.476562 136.089844 102.792969 132.699219 C 102.875 127.5625 103.105469 121.414062 103.585938 114.152344 C 105.453125 85.703125 113.75 70.324219 113.75 70.324219 L 113.757812 70.316406 C 119.445312 67.75 125.011719 66.03125 125.011719 66.03125 Z M 125.011719 66.03125 " fill-opacity="1" fill-rule="nonzero"/><path fill="#1c1d23" d="M 112.613281 139.675781 C 112.167969 139.46875 101.683594 134.5625 97.375 129.292969 C 92.695312 123.574219 98.457031 84.808594 100.9375 78.492188 C 103.617188 71.664062 122.542969 65.65625 124.691406 64.996094 L 125.335938 67.078125 C 119.773438 68.792969 104.910156 74.332031 102.960938 79.289062 C 100.09375 86.59375 95.476562 123.535156 99.058594 127.914062 C 103.050781 132.792969 113.425781 137.652344 113.53125 137.699219 Z M 112.613281 139.675781 " fill-opacity="1" fill-rule="nonzero"/><path fill="#e2e2d3" d="M 310.066406 165.25 C 309.183594 166.511719 302.640625 167.363281 296.84375 167.871094 C 294.199219 168.101562 291.710938 168.269531 289.976562 168.363281 C 288.484375 168.449219 287.550781 168.496094 287.550781 168.496094 L 300.972656 104.566406 C 300.972656 104.566406 318.703125 109.140625 319.167969 112.453125 C 319.632812 115.765625 311.703125 162.914062 310.066406 165.25 Z M 310.066406 165.25 " fill-opacity="1" fill-rule="nonzero"/><path fill="#afaea0" d="M 313.261719 108.765625 C 313.261719 108.765625 307.375 150.199219 302.640625 159.53125 C 300.949219 162.871094 299.253906 166.164062 296.84375 167.871094 C 294.199219 168.101562 291.710938 168.269531 289.976562 168.363281 C 293 162.453125 298.910156 150.84375 299.257812 149.6875 C 299.722656 148.136719 301.589844 142.84375 301.589844 142.84375 L 303.5625 106.492188 Z M 313.261719 108.765625 " fill-opacity="1" fill-rule="nonzero"/><path fill="#1c1d23" d="M 301.546875 105.488281 C 297.300781 126.671875 293.046875 147.667969 288.617188 168.71875 L 287.503906 167.40625 L 287.507812 167.40625 C 291.5 167.128906 295.511719 166.804688 299.476562 166.335938 C 301.457031 166.089844 303.441406 165.832031 305.359375 165.464844 C 306.316406 165.28125 307.269531 165.066406 308.109375 164.789062 C 308.308594 164.714844 308.515625 164.640625 308.675781 164.5625 C 308.746094 164.523438 308.84375 164.484375 308.890625 164.453125 C 308.914062 164.429688 309 164.386719 308.980469 164.390625 C 308.941406 164.398438 308.929688 164.484375 308.9375 164.425781 C 308.9375 164.386719 308.941406 164.429688 308.984375 164.292969 C 309.042969 164.089844 309.117188 163.910156 309.175781 163.667969 C 309.6875 161.835938 310.082031 159.839844 310.480469 157.886719 L 311.621094 151.972656 C 312.359375 148.019531 313.058594 144.054688 313.726562 140.085938 C 315.023438 132.144531 316.417969 124.1875 317.425781 116.257812 C 317.542969 115.273438 317.664062 114.273438 317.734375 113.34375 C 317.742188 113.140625 317.761719 112.84375 317.753906 112.757812 L 317.757812 112.660156 C 317.753906 112.640625 317.746094 112.679688 317.753906 112.6875 C 317.753906 112.695312 317.78125 112.71875 317.773438 112.710938 C 317.761719 112.699219 317.753906 112.6875 317.746094 112.675781 C 317.679688 112.550781 317.40625 112.257812 317.070312 112.015625 C 316.402344 111.511719 315.542969 111.050781 314.6875 110.632812 C 313.820312 110.210938 312.921875 109.820312 312.007812 109.453125 C 310.175781 108.722656 308.304688 108.035156 306.410156 107.40625 C 305.464844 107.089844 304.511719 106.78125 303.558594 106.484375 L 302.125 106.042969 L 301.40625 105.824219 L 301.050781 105.71875 L 300.78125 105.636719 L 300.757812 105.632812 C 300.789062 105.636719 300.664062 105.609375 300.816406 105.644531 C 301.054688 105.699219 301.367188 105.625 301.546875 105.488281 Z M 300.398438 103.636719 C 300.609375 103.511719 300.949219 103.445312 301.210938 103.503906 L 301.339844 103.53125 L 301.433594 103.554688 L 301.617188 103.597656 L 301.988281 103.691406 L 302.730469 103.871094 L 304.207031 104.25 C 305.191406 104.515625 306.171875 104.789062 307.148438 105.074219 C 309.101562 105.648438 311.046875 106.253906 312.976562 106.980469 C 313.9375 107.34375 314.902344 107.734375 315.859375 108.171875 C 316.816406 108.621094 317.769531 109.082031 318.730469 109.765625 C 319.207031 110.117188 319.707031 110.496094 320.179688 111.222656 L 320.347656 111.515625 C 320.402344 111.617188 320.445312 111.769531 320.488281 111.894531 C 320.527344 112.023438 320.570312 112.179688 320.582031 112.285156 L 320.601562 112.566406 C 320.632812 112.980469 320.605469 113.191406 320.601562 113.492188 C 320.546875 114.570312 320.453125 115.582031 320.332031 116.597656 C 319.863281 120.648438 319.273438 124.640625 318.667969 128.636719 C 318.070312 132.636719 317.394531 136.617188 316.699219 140.597656 C 316.003906 144.578125 315.28125 148.554688 314.515625 152.523438 C 314.125 154.511719 313.746094 156.496094 313.3125 158.476562 C 312.871094 160.46875 312.449219 162.425781 311.847656 164.46875 C 311.78125 164.714844 311.667969 165.007812 311.570312 165.285156 C 311.542969 165.390625 311.414062 165.648438 311.3125 165.839844 C 311.238281 166.03125 311.011719 166.269531 310.804688 166.464844 C 310.601562 166.640625 310.460938 166.714844 310.277344 166.835938 C 310.109375 166.929688 309.976562 166.988281 309.820312 167.0625 C 309.523438 167.199219 309.25 167.289062 308.972656 167.382812 C 307.894531 167.722656 306.871094 167.921875 305.84375 168.105469 C 303.796875 168.460938 301.777344 168.6875 299.75 168.875 C 295.695312 169.234375 291.660156 169.46875 287.601562 169.585938 L 287.597656 169.585938 L 286.199219 169.648438 L 286.484375 168.273438 C 291 146.699219 295.691406 125.078125 300.398438 103.636719 Z M 300.398438 103.636719 " fill-opacity="1" fill-rule="nonzero"/><path fill="#e2e2d3" d="M 282.796875 238.445312 C 283.085938 257.585938 254.808594 275.632812 247.460938 278.054688 C 239.160156 280.796875 232.558594 282.0625 227.222656 282.335938 C 215.675781 282.933594 210.035156 278.917969 205.773438 275.292969 C 199.550781 270 201.113281 269.035156 201.113281 269.035156 C 201.113281 269.035156 169.691406 248.179688 168.136719 248.179688 C 166.578125 248.179688 113.699219 240.089844 113.386719 239.15625 C 113.074219 238.226562 101.757812 232.613281 101.757812 232.613281 C 101.757812 232.613281 119.453125 181.355469 178.011719 186.257812 C 236.574219 191.160156 261.546875 203.757812 278.574219 226.632812 C 281.476562 230.53125 282.746094 234.507812 282.796875 238.445312 Z M 282.796875 238.445312 " fill-opacity="1" fill-rule="nonzero"/><path fill="#ffffff" d="M 282.796875 238.445312 C 283.085938 257.585938 254.808594 275.632812 247.460938 278.054688 C 239.160156 280.796875 232.558594 282.0625 227.222656 282.335938 L 230.511719 274.261719 C 230.511719 274.261719 260.996094 262.5 270.171875 254.089844 C 274.601562 250.03125 279.21875 243.804688 282.796875 238.445312 Z M 282.796875 238.445312 " fill-opacity="1" fill-rule="nonzero"/><path fill="#afaea0" d="M 152.046875 185.726562 C 152.046875 185.726562 159.578125 207.257812 194.8125 210.292969 C 230.042969 213.328125 241.835938 194.414062 241.835938 194.414062 Z M 152.046875 185.726562 " fill-opacity="1" fill-rule="nonzero"/><path fill="#afaea0" d="M 117.40625 221.792969 C 117.40625 221.792969 129.320312 206.230469 141.804688 204.953125 C 154.292969 203.679688 151.648438 203.214844 149.46875 207.257812 C 147.292969 211.304688 146.046875 213.375 146.046875 213.375 L 142.78125 218.890625 Z M 117.40625 221.792969 " fill-opacity="1" fill-rule="nonzero"/><path fill="#afaea0" d="M 238.644531 215.992188 C 238.644531 215.992188 263.484375 225.335938 266.285156 230.148438 C 269.082031 234.957031 269.203125 235.734375 269.203125 235.734375 L 227.554688 250.828125 L 207.65625 239.347656 C 207.65625 239.347656 215.109375 227.175781 228.175781 227.175781 C 241.242188 227.175781 244.207031 227.289062 244.207031 227.289062 Z M 238.644531 215.992188 " fill-opacity="1" fill-rule="nonzero"/><path fill="#1c1d23" d="M 102.761719 232.203125 C 102.707031 232.046875 102.585938 231.871094 102.441406 231.761719 C 102.226562 231.617188 102.277344 231.664062 102.289062 231.664062 L 102.429688 231.734375 L 102.621094 231.828125 L 103 232.019531 L 103.757812 232.398438 L 105.265625 233.167969 L 108.269531 234.734375 C 109.269531 235.269531 110.265625 235.808594 111.257812 236.375 C 111.753906 236.660156 112.246094 236.949219 112.746094 237.265625 C 112.996094 237.425781 113.246094 237.585938 113.507812 237.78125 C 113.632812 237.871094 113.777344 237.984375 113.925781 238.117188 C 113.964844 238.148438 114.015625 238.207031 114.0625 238.253906 L 114.128906 238.328125 C 114.152344 238.351562 114.171875 238.375 114.226562 238.449219 C 114.265625 238.511719 114.304688 238.578125 114.339844 238.648438 L 114.386719 238.746094 C 114.402344 238.777344 114.433594 238.855469 114.386719 238.730469 C 114.332031 238.574219 114.207031 238.414062 114.070312 238.320312 C 113.972656 238.257812 113.996094 238.273438 113.992188 238.265625 L 113.988281 238.261719 C 113.984375 238.257812 113.960938 238.25 113.964844 238.253906 L 114.03125 238.273438 C 114.066406 238.289062 114.121094 238.304688 114.179688 238.324219 L 114.546875 238.421875 L 115.335938 238.609375 L 116.960938 238.945312 L 120.257812 239.570312 L 126.890625 240.726562 C 135.75 242.21875 144.632812 243.617188 153.519531 244.980469 C 157.960938 245.652344 162.414062 246.332031 166.847656 246.9375 L 167.667969 247.042969 L 168.054688 247.082031 L 168.222656 247.101562 C 168.402344 247.125 168.601562 247.171875 168.753906 247.226562 L 169.230469 247.433594 L 169.632812 247.640625 C 169.90625 247.777344 170.144531 247.921875 170.402344 248.058594 C 171.40625 248.625 172.375 249.210938 173.34375 249.796875 C 175.273438 250.972656 177.179688 252.171875 179.082031 253.382812 C 186.679688 258.222656 194.199219 263.160156 201.710938 268.125 L 201.683594 269.957031 L 201.6875 269.953125 C 201.949219 269.765625 201.90625 269.753906 201.96875 269.671875 C 202 269.632812 202.011719 269.554688 202.019531 269.542969 C 202.03125 269.476562 202.035156 269.492188 202.027344 269.492188 C 202.042969 269.542969 202.074219 269.660156 202.136719 269.789062 C 202.257812 270.058594 202.464844 270.367188 202.695312 270.667969 C 203.160156 271.273438 203.707031 271.875 204.300781 272.445312 C 205.476562 273.589844 206.777344 274.683594 208.085938 275.707031 C 210.691406 277.769531 213.605469 279.28125 216.757812 280.152344 C 219.902344 281.03125 223.234375 281.261719 226.554688 281.101562 C 227.386719 281.105469 228.214844 280.988281 229.042969 280.917969 C 229.878906 280.84375 230.707031 280.777344 231.535156 280.625 L 234.015625 280.238281 L 236.484375 279.71875 C 239.777344 279.019531 243.023438 278.058594 246.242188 277.023438 C 247.089844 276.769531 247.757812 276.519531 248.515625 276.175781 C 249.257812 275.847656 250 275.476562 250.730469 275.082031 C 252.203125 274.300781 253.648438 273.445312 255.066406 272.542969 C 260.738281 268.925781 266.042969 264.671875 270.667969 259.835938 C 272.96875 257.410156 275.078125 254.8125 276.84375 252.03125 C 278.59375 249.246094 280.039062 246.261719 280.722656 243.136719 C 281.429688 240.019531 281.398438 236.800781 280.5 233.789062 C 280.261719 233.039062 279.949219 232.316406 279.679688 231.574219 C 279.300781 230.875 278.957031 230.164062 278.566406 229.472656 C 278.113281 228.808594 277.683594 228.144531 277.214844 227.480469 L 275.648438 225.507812 C 271.46875 220.242188 266.675781 215.496094 261.304688 211.5 C 255.933594 207.507812 250.054688 204.191406 243.851562 201.578125 C 231.425781 196.347656 218.117188 193.246094 204.691406 191.167969 C 201.328125 190.667969 197.972656 190.125 194.585938 189.757812 L 189.515625 189.148438 C 187.828125 188.929688 186.125 188.8125 184.433594 188.636719 C 181.042969 188.324219 177.632812 187.945312 174.296875 187.824219 C 172.621094 187.6875 170.945312 187.746094 169.269531 187.742188 C 167.59375 187.703125 165.921875 187.859375 164.253906 187.953125 C 150.90625 188.835938 137.855469 193.515625 127.292969 201.675781 C 121.964844 205.695312 117.269531 210.515625 113.117188 215.777344 C 111.042969 218.410156 109.152344 221.191406 107.421875 224.074219 C 106.539062 225.503906 105.714844 226.972656 104.929688 228.457031 C 104.546875 229.203125 104.167969 229.953125 103.808594 230.710938 L 103.273438 231.847656 L 103.019531 232.414062 L 102.898438 232.699219 L 102.835938 232.839844 C 102.90625 232.699219 102.894531 232.371094 102.761719 232.203125 Z M 100.75 233.03125 C 100.65625 232.757812 100.683594 232.332031 100.78125 232.089844 L 100.835938 231.929688 L 100.941406 231.613281 L 101.15625 230.992188 L 101.617188 229.761719 C 101.933594 228.945312 102.285156 228.148438 102.632812 227.347656 C 103.351562 225.761719 104.105469 224.191406 104.925781 222.652344 C 106.578125 219.585938 108.453125 216.632812 110.5 213.804688 C 114.601562 208.15625 119.507812 203.046875 125.089844 198.789062 C 136.21875 190.1875 150.0625 185.285156 164 184.394531 C 165.746094 184.296875 167.488281 184.140625 169.234375 184.183594 C 170.976562 184.1875 172.726562 184.136719 174.460938 184.28125 C 177.96875 184.417969 181.359375 184.804688 184.785156 185.125 C 186.492188 185.304688 188.203125 185.425781 189.910156 185.648438 L 195.027344 186.273438 C 198.445312 186.648438 201.84375 187.207031 205.246094 187.722656 C 218.832031 189.851562 232.386719 193.019531 245.207031 198.441406 C 251.601562 201.171875 257.710938 204.660156 263.292969 208.859375 C 268.878906 213.0625 273.859375 218.054688 278.152344 223.53125 L 279.765625 225.582031 C 280.277344 226.320312 280.777344 227.09375 281.277344 227.851562 C 281.730469 228.648438 282.128906 229.480469 282.550781 230.292969 C 282.875 231.160156 283.234375 232.011719 283.5 232.898438 C 284.554688 236.457031 284.550781 240.292969 283.71875 243.835938 C 282.910156 247.40625 281.289062 250.667969 279.390625 253.652344 C 277.472656 256.640625 275.226562 259.359375 272.808594 261.882812 C 267.953125 266.921875 262.453125 271.234375 256.550781 274.914062 C 255.074219 275.832031 253.566406 276.707031 252.003906 277.515625 C 251.226562 277.925781 250.433594 278.308594 249.609375 278.667969 C 248.804688 279.03125 247.863281 279.363281 247.066406 279.585938 C 243.765625 280.613281 240.433594 281.566406 237.019531 282.253906 C 236.171875 282.421875 235.320312 282.605469 234.464844 282.761719 L 231.875 283.144531 C 231.015625 283.289062 230.140625 283.351562 229.269531 283.421875 C 228.394531 283.488281 227.527344 283.601562 226.644531 283.589844 C 223.136719 283.722656 219.554688 283.449219 216.109375 282.449219 C 212.664062 281.472656 209.417969 279.726562 206.679688 277.507812 C 205.304688 276.410156 203.992188 275.289062 202.726562 274.03125 C 202.097656 273.410156 201.488281 272.742188 200.917969 271.988281 C 200.640625 271.601562 200.363281 271.203125 200.132812 270.6875 C 200.015625 270.429688 199.914062 270.136719 199.859375 269.769531 C 199.84375 269.554688 199.824219 269.355469 199.886719 269.078125 C 199.902344 268.960938 199.972656 268.78125 200.039062 268.648438 C 200.15625 268.472656 200.171875 268.371094 200.519531 268.117188 L 200.527344 268.113281 L 200.5 269.945312 C 193.003906 264.988281 185.484375 260.050781 177.910156 255.226562 C 176.015625 254.023438 174.117188 252.824219 172.207031 251.660156 C 171.25 251.078125 170.292969 250.503906 169.335938 249.964844 C 169.101562 249.835938 168.859375 249.691406 168.628906 249.578125 L 168.28125 249.398438 L 167.988281 249.269531 C 168.003906 249.28125 168.070312 249.296875 168.109375 249.28125 C 168.171875 249.273438 168.058594 249.273438 168.007812 249.269531 L 167.863281 249.257812 L 167.410156 249.210938 L 166.558594 249.101562 C 162.082031 248.492188 157.640625 247.8125 153.1875 247.136719 C 144.292969 245.773438 135.40625 244.375 126.527344 242.878906 L 119.867188 241.71875 L 116.535156 241.085938 L 114.859375 240.738281 L 114.007812 240.535156 L 113.558594 240.414062 C 113.488281 240.390625 113.40625 240.367188 113.308594 240.332031 L 113.175781 240.285156 C 113.113281 240.261719 113.03125 240.222656 112.960938 240.1875 L 112.90625 240.160156 C 112.890625 240.148438 112.894531 240.160156 112.785156 240.085938 C 112.625 239.964844 112.472656 239.78125 112.390625 239.601562 C 112.328125 239.464844 112.355469 239.527344 112.359375 239.542969 L 112.378906 239.601562 C 112.394531 239.636719 112.414062 239.671875 112.441406 239.703125 C 112.476562 239.75 112.472656 239.742188 112.46875 239.742188 L 112.464844 239.738281 C 112.460938 239.738281 112.46875 239.738281 112.453125 239.726562 C 112.394531 239.675781 112.316406 239.613281 112.214844 239.539062 C 112.023438 239.398438 111.804688 239.253906 111.578125 239.113281 C 111.128906 238.828125 110.652344 238.546875 110.171875 238.273438 C 109.210938 237.722656 108.234375 237.191406 107.246094 236.664062 L 104.269531 235.113281 L 102.773438 234.351562 L 102.023438 233.972656 L 101.320312 233.621094 C 101.3125 233.609375 101.351562 233.652344 101.121094 233.496094 C 100.957031 233.371094 100.820312 233.191406 100.75 233.03125 Z M 100.75 233.03125 " fill-opacity="1" fill-rule="nonzero"/><path fill="#ffffff" d="M 55.753906 202.714844 L 69.363281 193.097656 C 69.363281 193.097656 90.226562 206.398438 106.628906 220.988281 L 121.46875 222.097656 C 121.46875 222.097656 148.222656 215.191406 181.566406 226.109375 L 214.875 272.144531 L 209.195312 280.859375 L 150.246094 262.339844 L 105.214844 247.402344 L 73.25 222.894531 Z M 55.753906 202.714844 " fill-opacity="1" fill-rule="nonzero"/><path fill="#1c1d23" d="M 105.734375 246.425781 L 150.589844 261.308594 L 208.738281 279.574219 L 213.554688 272.179688 L 180.894531 227.035156 C 148.417969 216.511719 122.003906 223.085938 121.738281 223.152344 L 121.566406 223.199219 L 106.175781 222.046875 L 105.902344 221.804688 C 91.316406 208.828125 72.953125 196.730469 69.386719 194.414062 L 57.359375 202.910156 L 74 222.101562 Z M 209.660156 282.144531 L 149.921875 263.382812 L 104.699219 248.378906 L 72.429688 223.609375 L 54.140625 202.519531 L 69.328125 191.789062 L 69.945312 192.179688 C 70.152344 192.316406 90.839844 205.542969 107.074219 219.929688 L 121.378906 221 C 123.8125 220.425781 150.074219 214.65625 181.90625 225.078125 L 182.242188 225.1875 L 216.195312 272.113281 Z M 209.660156 282.144531 " fill-opacity="1" fill-rule="nonzero"/><path fill="#e2e2d3" d="M 297.175781 153.726562 C 295.367188 157.445312 293.214844 161.039062 290.703125 164.472656 C 283.675781 174.066406 274.679688 181.785156 264.664062 187.710938 C 239.191406 202.761719 207.101562 206.203125 183.996094 199.328125 C 150 189.207031 127.9375 171.613281 117.40625 149.921875 C 114.335938 143.597656 112.238281 136.921875 111.121094 129.988281 C 107.207031 105.851562 115.054688 78.519531 134.222656 51.5 C 170.78125 0.00390625 275.769531 23.175781 295.683594 68.625 C 305.742188 91.566406 310.757812 125.960938 297.175781 153.726562 Z M 297.175781 153.726562 " fill-opacity="1" fill-rule="nonzero"/><path fill="#afaea0" d="M 291.636719 149.84375 C 291.261719 159.886719 284.808594 169.867188 280.839844 176.132812 C 278.085938 180.484375 274.679688 181.78125 264.664062 187.710938 C 239.191406 202.761719 207.101562 206.203125 183.996094 199.328125 C 150 189.207031 127.9375 171.613281 117.40625 149.921875 C 114.335938 143.597656 112.238281 136.921875 111.121094 129.988281 C 118.226562 98.386719 134.8125 49.953125 170.316406 44.347656 C 223.507812 35.949219 269.933594 47.792969 284.324219 87.757812 C 290.703125 105.488281 292.453125 128.019531 291.636719 149.84375 Z M 291.636719 149.84375 " fill-opacity="1" fill-rule="nonzero"/><path fill="#1c1d23" d="M 289.277344 163.425781 C 296.394531 153.621094 300.707031 141.949219 302.457031 129.941406 C 303.359375 123.929688 303.609375 117.824219 303.40625 111.738281 C 303.304688 108.691406 303.046875 105.652344 302.710938 102.621094 C 302.355469 99.589844 301.875 96.578125 301.300781 93.582031 C 300.113281 87.59375 298.503906 81.6875 296.417969 75.960938 C 295.90625 74.523438 295.34375 73.113281 294.777344 71.699219 L 293.882812 69.597656 L 292.941406 67.585938 C 291.613281 64.9375 290.015625 62.417969 288.214844 60.03125 C 284.601562 55.257812 280.199219 51.0625 275.402344 47.367188 C 270.574219 43.699219 265.371094 40.484375 259.917969 37.75 C 249.019531 32.257812 237.25 28.445312 225.21875 26.175781 C 213.183594 23.929688 200.824219 23.230469 188.664062 24.519531 C 176.539062 25.8125 164.527344 29.164062 154.046875 35.34375 C 148.84375 38.460938 144.019531 42.230469 139.933594 46.707031 C 137.871094 48.941406 136 51.289062 134.296875 53.863281 C 132.570312 56.40625 130.789062 58.917969 129.234375 61.574219 C 128.4375 62.890625 127.613281 64.1875 126.839844 65.515625 L 123.523438 71.585938 L 120.535156 77.820312 C 119.917969 79.226562 119.355469 80.65625 118.765625 82.074219 L 117.886719 84.203125 C 117.605469 84.914062 117.378906 85.648438 117.121094 86.371094 L 115.628906 90.726562 L 114.402344 95.160156 C 114.207031 95.902344 113.976562 96.636719 113.808594 97.382812 L 112.878906 101.882812 C 112.726562 102.632812 112.550781 103.378906 112.46875 104.140625 L 111.847656 108.691406 C 111.722656 109.449219 111.695312 110.214844 111.644531 110.976562 L 111.492188 113.265625 C 111.1875 119.363281 111.386719 125.523438 112.59375 131.519531 C 112.785156 133.035156 113.21875 134.503906 113.578125 135.988281 L 114.132812 138.210938 C 114.304688 138.953125 114.605469 139.664062 114.832031 140.386719 L 115.570312 142.558594 C 115.832031 143.273438 116.019531 144.015625 116.351562 144.707031 L 118.175781 148.90625 C 120.777344 154.433594 124.109375 159.617188 128.03125 164.3125 C 135.875 173.742188 145.890625 181.195312 156.683594 187.035156 C 162.089844 189.960938 167.757812 192.390625 173.519531 194.554688 L 177.867188 196.109375 C 179.328125 196.589844 180.804688 197.035156 182.269531 197.503906 L 184.476562 198.1875 L 186.691406 198.761719 C 187.429688 198.945312 188.164062 199.152344 188.90625 199.320312 L 191.15625 199.761719 C 197.152344 200.917969 203.28125 201.40625 209.402344 201.359375 C 215.523438 201.300781 221.648438 200.753906 227.675781 199.640625 C 233.703125 198.542969 239.636719 196.96875 245.40625 194.933594 C 246.835938 194.390625 248.289062 193.902344 249.699219 193.320312 L 253.917969 191.519531 C 256.671875 190.199219 259.429688 188.878906 262.0625 187.332031 C 272.691406 181.359375 282.140625 173.246094 289.277344 163.425781 Z M 292.125 165.519531 C 284.566406 175.722656 274.65625 184.042969 263.621094 190.105469 C 258.125 193.1875 252.351562 195.761719 246.394531 197.777344 C 240.449219 199.8125 234.34375 201.371094 228.15625 202.433594 C 221.96875 203.515625 215.6875 204.019531 209.40625 204.023438 C 203.128906 204.011719 196.835938 203.464844 190.664062 202.21875 L 188.347656 201.746094 C 187.582031 201.566406 186.824219 201.347656 186.0625 201.148438 L 183.777344 200.535156 L 181.542969 199.824219 C 180.058594 199.339844 178.566406 198.875 177.089844 198.371094 L 172.6875 196.761719 C 171.210938 196.25 169.785156 195.605469 168.335938 195.023438 C 166.890625 194.425781 165.441406 193.84375 164.03125 193.160156 C 162.617188 192.496094 161.179688 191.871094 159.78125 191.175781 L 155.609375 189.023438 C 144.628906 183.058594 134.390625 175.414062 126.347656 165.707031 C 122.339844 160.859375 118.859375 155.554688 116.164062 149.859375 L 114.269531 145.53125 C 113.921875 144.820312 113.722656 144.054688 113.449219 143.316406 L 112.683594 141.078125 C 112.445312 140.328125 112.132812 139.601562 111.953125 138.832031 L 111.371094 136.542969 C 110.992188 135.015625 110.546875 133.5 110.335938 131.933594 C 109.074219 125.753906 108.839844 119.40625 109.128906 113.132812 L 109.273438 110.777344 C 109.328125 109.992188 109.351562 109.207031 109.476562 108.429688 L 110.097656 103.753906 C 110.179688 102.972656 110.359375 102.207031 110.511719 101.4375 L 110.980469 99.128906 L 111.449219 96.816406 C 111.617188 96.050781 111.847656 95.300781 112.046875 94.539062 L 113.285156 90 L 114.792969 85.542969 C 115.050781 84.804688 115.28125 84.050781 115.5625 83.320312 L 116.4375 81.140625 C 117.03125 79.691406 117.597656 78.226562 118.210938 76.785156 L 120.207031 72.53125 L 121.210938 70.40625 L 122.316406 68.335938 L 124.535156 64.195312 C 125.308594 62.839844 126.140625 61.511719 126.9375 60.167969 C 128.5 57.453125 130.289062 54.886719 132.023438 52.285156 C 132.46875 51.636719 132.875 50.976562 133.351562 50.34375 L 134.769531 48.429688 C 135.765625 47.195312 136.75 45.949219 137.835938 44.789062 C 142.082031 40.058594 147.105469 36.074219 152.511719 32.773438 C 163.40625 26.234375 175.832031 22.703125 188.308594 21.277344 C 200.824219 19.863281 213.5 20.496094 225.859375 22.710938 C 238.214844 24.949219 250.3125 28.769531 261.617188 34.363281 C 267.273438 37.152344 272.695312 40.445312 277.777344 44.246094 C 282.828125 48.082031 287.523438 52.476562 291.441406 57.582031 C 293.398438 60.128906 295.152344 62.859375 296.589844 65.769531 L 297.617188 67.972656 L 298.539062 70.15625 C 299.125 71.625 299.707031 73.09375 300.234375 74.582031 C 302.378906 80.523438 304.027344 86.625 305.242188 92.816406 C 307.632812 105.1875 308.207031 117.988281 306.253906 130.519531 C 305.765625 133.648438 305.136719 136.757812 304.296875 139.820312 C 303.914062 141.359375 303.417969 142.867188 302.953125 144.386719 L 302.164062 146.632812 C 301.90625 147.386719 301.621094 148.125 301.316406 148.859375 C 298.996094 154.773438 295.875 160.375 292.125 165.519531 Z M 292.125 165.519531 " fill-opacity="1" fill-rule="nonzero"/><path fill="#1c1d23" d="M 264.664062 187.710938 C 239.191406 202.761719 207.101562 206.203125 183.996094 199.328125 C 150 189.207031 127.9375 171.613281 117.40625 149.921875 C 117.917969 129.648438 122.636719 89.230469 150.714844 71.417969 C 188.976562 47.144531 263.175781 67.6875 273.90625 98.960938 C 282.671875 124.5 272.554688 168.394531 264.664062 187.710938 Z M 264.664062 187.710938 " fill-opacity="1" fill-rule="nonzero"/><path fill="#ff2e57" d="M 55.753906 202.714844 C 55.753906 202.714844 85.382812 212.160156 100.082031 232.699219 C 100.082031 232.699219 117.859375 233.980469 122.40625 235.734375 C 122.40625 235.734375 149.46875 229.355469 171.867188 233.632812 L 209.199219 280.859375 C 209.199219 280.859375 159.582031 279.613281 153.515625 286.148438 L 137.183594 286.148438 C 137.183594 286.148438 125.285156 276.578125 108.953125 280.078125 C 108.949219 280.082031 64.621094 214.511719 55.753906 202.714844 Z M 55.753906 202.714844 " fill-opacity="1" fill-rule="nonzero"/><g clip-path="url(#1750d1f081)"><path fill="#1c1d23" d="M 137.550781 285.058594 L 153.082031 285.058594 C 159.832031 279.320312 196.457031 279.539062 206.910156 279.722656 L 171.265625 234.628906 C 149.4375 230.59375 122.917969 236.730469 122.652344 236.796875 L 122.328125 236.871094 L 122.011719 236.75 C 117.667969 235.078125 100.183594 233.800781 100.003906 233.785156 L 99.496094 233.746094 L 99.199219 233.332031 C 87.753906 217.339844 66.835938 208.078125 58.742188 204.953125 C 70.222656 220.929688 105.257812 272.679688 109.445312 278.867188 C 124.457031 275.960938 135.535156 283.554688 137.550781 285.058594 Z M 153.988281 287.238281 L 136.800781 287.238281 L 136.5 287 C 136.386719 286.90625 124.785156 277.804688 109.179688 281.144531 L 108.460938 281.296875 L 108.046875 280.691406 C 107.605469 280.035156 63.632812 215.007812 54.882812 203.371094 L 52.832031 200.644531 L 56.082031 201.679688 C 57.296875 202.066406 85.839844 211.34375 100.667969 231.652344 C 103.601562 231.878906 117.835938 233.023438 122.472656 234.601562 C 125.605469 233.90625 151.011719 228.542969 172.070312 232.566406 L 172.46875 232.640625 L 211.492188 282.007812 L 209.167969 281.949219 C 189.421875 281.453125 158.515625 282.359375 154.308594 286.890625 Z M 153.988281 287.238281 " fill-opacity="1" fill-rule="nonzero"/></g><path fill="#e2e2d3" d="M 99.148438 259.777344 C 97.109375 261.789062 94.75 262.839844 92.253906 263.175781 C 85.640625 264.0625 78.105469 259.851562 73.25 254.875 C 65.609375 247.039062 64.9375 237.261719 67.691406 230.980469 C 68.539062 229.011719 69.730469 227.390625 71.152344 226.28125 C 78.464844 220.546875 84.28125 229.78125 91.449219 235.4375 C 99.5 241.808594 106.617188 252.421875 99.148438 259.777344 Z M 99.148438 259.777344 " fill-opacity="1" fill-rule="nonzero"/><path fill="#afaea0" d="M 99.148438 259.777344 C 97.109375 261.789062 94.75 262.839844 92.253906 263.175781 C 92.804688 259.660156 91.941406 256 89.734375 253.054688 C 89.683594 252.988281 89.632812 252.914062 89.585938 252.851562 C 85.15625 246.949219 71.394531 234.339844 67.691406 230.980469 C 68.539062 229.011719 69.730469 227.390625 71.152344 226.28125 C 78.464844 220.546875 84.28125 229.78125 91.449219 235.4375 C 99.5 241.808594 106.617188 252.421875 99.148438 259.777344 Z M 99.148438 259.777344 " fill-opacity="1" fill-rule="nonzero"/><path fill="#1c1d23" d="M 71.863281 227.1875 C 70.253906 228.535156 69.097656 230.484375 68.402344 232.578125 C 67.703125 234.679688 67.441406 236.941406 67.554688 239.171875 C 67.746094 243.667969 69.558594 248.007812 72.324219 251.550781 C 72.636719 252.015625 73.046875 252.414062 73.417969 252.839844 C 73.808594 253.25 74.15625 253.691406 74.574219 254.078125 C 75.378906 254.882812 76.238281 255.628906 77.125 256.339844 C 78.910156 257.753906 80.847656 258.980469 82.898438 259.914062 C 84.9375 260.855469 87.089844 261.535156 89.246094 261.726562 C 91.402344 261.929688 93.550781 261.617188 95.417969 260.675781 C 95.871094 260.417969 96.304688 260.125 96.757812 259.867188 C 97.175781 259.550781 97.570312 259.191406 97.984375 258.859375 C 98.769531 258.144531 99.425781 257.320312 99.917969 256.429688 C 100.925781 254.644531 101.140625 252.515625 100.707031 250.40625 C 100.285156 248.296875 99.296875 246.234375 98.0625 244.332031 C 96.820312 242.425781 95.324219 240.648438 93.679688 239.027344 C 92.855469 238.210938 91.992188 237.433594 91.101562 236.695312 C 90.195312 235.957031 89.21875 235.132812 88.339844 234.316406 C 86.554688 232.679688 84.878906 230.972656 83.132812 229.414062 C 82.261719 228.636719 81.359375 227.914062 80.429688 227.285156 C 79.5 226.652344 78.527344 226.128906 77.535156 225.832031 C 76.539062 225.535156 75.535156 225.503906 74.578125 225.75 C 73.625 226.003906 72.707031 226.511719 71.863281 227.1875 Z M 70.441406 225.375 C 71.476562 224.578125 72.691406 223.90625 74.050781 223.574219 C 75.410156 223.238281 76.882812 223.332031 78.167969 223.738281 C 79.464844 224.128906 80.613281 224.765625 81.65625 225.476562 C 82.703125 226.183594 83.660156 226.96875 84.582031 227.769531 C 86.429688 229.367188 88.132812 231.042969 89.894531 232.597656 C 90.785156 233.390625 91.648438 234.09375 92.605469 234.847656 C 93.570312 235.613281 94.496094 236.421875 95.386719 237.273438 C 97.171875 238.96875 98.808594 240.839844 100.214844 242.910156 C 101.605469 244.980469 102.789062 247.277344 103.359375 249.851562 C 103.640625 251.136719 103.75 252.492188 103.609375 253.847656 C 103.476562 255.207031 103.058594 256.546875 102.425781 257.757812 C 101.789062 258.96875 100.949219 260.046875 99.992188 260.960938 C 99.488281 261.394531 98.996094 261.84375 98.472656 262.25 C 97.902344 262.605469 97.339844 262.976562 96.757812 263.304688 C 94.351562 264.546875 91.589844 264.945312 89 264.71875 C 86.394531 264.496094 83.917969 263.734375 81.625 262.683594 C 79.328125 261.621094 77.210938 260.253906 75.261719 258.695312 C 74.289062 257.910156 73.351562 257.082031 72.46875 256.191406 C 72.011719 255.765625 71.625 255.257812 71.203125 254.792969 C 70.796875 254.3125 70.355469 253.863281 70.011719 253.328125 C 66.984375 249.308594 65.039062 244.367188 64.9375 239.277344 C 64.871094 236.746094 65.21875 234.1875 66.082031 231.769531 C 66.945312 229.367188 68.332031 227.058594 70.441406 225.375 Z M 70.441406 225.375 " fill-opacity="1" fill-rule="nonzero"/><path fill="#e2e2d3" d="M 216.972656 288.015625 C 213.316406 289.171875 209.375 289.417969 205.542969 288.941406 C 193.636719 287.457031 182.71875 278.992188 184.308594 269.105469 C 186.414062 256.035156 195.972656 257.902344 195.972656 257.902344 C 195.972656 257.902344 192.597656 249.503906 197.324219 243.195312 C 198.839844 241.179688 201.277344 240.046875 204.167969 239.726562 C 210.316406 239.015625 218.503906 241.925781 224.210938 247.632812 C 232.609375 256.039062 235.644531 282.105469 216.972656 288.015625 Z M 216.972656 288.015625 " fill-opacity="1" fill-rule="nonzero"/><path fill="#afaea0" d="M 225.960938 251.371094 C 225.960938 251.371094 213.441406 257.089844 212.117188 262.808594 C 210.792969 268.527344 201.34375 266.804688 201.34375 266.804688 C 201.34375 266.804688 195.628906 239.523438 200.527344 239.726562 C 205.425781 239.933594 205.425781 239.933594 205.425781 239.933594 L 213.234375 240.875 C 213.234375 240.875 225.421875 248.488281 225.960938 251.371094 Z M 225.960938 251.371094 " fill-opacity="1" fill-rule="nonzero"/><path fill="#afaea0" d="M 205.542969 288.941406 C 193.636719 287.457031 182.71875 278.992188 184.308594 269.105469 C 186.414062 256.035156 195.972656 257.902344 195.972656 257.902344 C 195.972656 257.902344 192.597656 249.503906 197.324219 243.195312 C 198.839844 241.179688 201.277344 240.046875 204.167969 239.726562 C 206.195312 244.835938 209.265625 252.761719 211.492188 259.316406 C 213.492188 265.203125 210.46875 278.679688 205.542969 288.941406 Z M 205.542969 288.941406 " fill-opacity="1" fill-rule="nonzero"/><path fill="#1c1d23" d="M 196.816406 258.601562 C 196.664062 258.765625 196.367188 258.941406 196.066406 258.972656 C 195.9375 258.992188 195.75 258.976562 195.707031 258.96875 L 195.675781 258.964844 L 195.554688 258.953125 C 195.472656 258.941406 195.386719 258.9375 195.296875 258.9375 C 195.121094 258.921875 194.945312 258.921875 194.769531 258.925781 C 194.414062 258.925781 194.054688 258.96875 193.699219 259.011719 C 193.347656 259.070312 192.992188 259.125 192.652344 259.230469 C 192.304688 259.308594 191.980469 259.449219 191.652344 259.578125 C 190.347656 260.117188 189.21875 261.015625 188.347656 262.15625 L 188.011719 262.574219 L 187.730469 263.042969 C 187.554688 263.363281 187.335938 263.652344 187.1875 263.992188 C 186.902344 264.675781 186.558594 265.328125 186.371094 266.066406 L 186.039062 267.148438 L 185.816406 268.273438 C 185.746094 268.648438 185.660156 269.027344 185.601562 269.394531 C 185.570312 269.753906 185.527344 270.113281 185.503906 270.472656 C 185.367188 273.363281 186.527344 276.1875 188.367188 278.519531 C 190.207031 280.871094 192.703125 282.742188 195.402344 284.179688 C 200.824219 287.035156 207.230469 288.21875 213.21875 287.230469 C 214.703125 286.96875 216.191406 286.625 217.570312 286.0625 C 218.957031 285.523438 220.289062 284.851562 221.472656 283.976562 C 223.890625 282.296875 225.75 279.90625 227.007812 277.210938 C 227.625 275.855469 228.097656 274.421875 228.449219 272.953125 C 228.773438 271.472656 228.96875 269.957031 229.0625 268.433594 C 229.214844 265.378906 228.921875 262.277344 228.195312 259.296875 C 227.484375 256.316406 226.320312 253.425781 224.703125 250.953125 C 223.886719 249.714844 222.941406 248.699219 221.769531 247.675781 C 220.632812 246.671875 219.40625 245.765625 218.105469 244.964844 C 215.507812 243.386719 212.636719 242.199219 209.675781 241.605469 C 206.75 240.992188 203.621094 240.964844 201.089844 242.074219 C 200.464844 242.355469 199.875 242.691406 199.378906 243.121094 C 198.875 243.554688 198.460938 244.023438 198.070312 244.652344 C 197.28125 245.835938 196.703125 247.167969 196.390625 248.605469 C 196.074219 250.035156 196.003906 251.550781 196.125 253.0625 C 196.183594 253.8125 196.289062 254.574219 196.429688 255.320312 C 196.503906 255.699219 196.582031 256.074219 196.679688 256.441406 C 196.726562 256.621094 196.773438 256.808594 196.828125 256.988281 L 196.910156 257.253906 L 196.949219 257.382812 C 196.953125 257.429688 196.953125 257.316406 197.035156 257.722656 C 197.085938 258.039062 196.960938 258.410156 196.816406 258.601562 Z M 195.140625 257.214844 C 194.976562 257.355469 194.835938 257.679688 194.867188 257.949219 C 194.929688 258.308594 194.914062 258.144531 194.898438 258.144531 L 194.839844 257.988281 L 194.726562 257.679688 C 194.652344 257.476562 194.585938 257.273438 194.519531 257.070312 C 194.386719 256.660156 194.273438 256.25 194.167969 255.832031 C 193.953125 255.007812 193.800781 254.164062 193.695312 253.308594 C 193.484375 251.601562 193.480469 249.847656 193.785156 248.101562 C 194.089844 246.363281 194.707031 244.628906 195.683594 243.105469 C 196.128906 242.34375 196.757812 241.558594 197.46875 240.925781 C 198.183594 240.277344 198.996094 239.777344 199.835938 239.375 C 200.671875 238.964844 201.550781 238.671875 202.429688 238.472656 C 203.3125 238.261719 204.199219 238.144531 205.082031 238.09375 C 206.847656 237.976562 208.589844 238.121094 210.292969 238.429688 C 213.691406 239.0625 216.894531 240.375 219.835938 242.117188 C 221.300781 243 222.695312 244.007812 223.992188 245.132812 C 225.265625 246.21875 226.5625 247.578125 227.53125 249.039062 C 229.507812 251.960938 230.738281 255.195312 231.523438 258.5 C 232.3125 261.804688 232.621094 265.214844 232.4375 268.625 C 232.328125 270.328125 232.101562 272.027344 231.71875 273.707031 C 231.316406 275.382812 230.761719 277.03125 230.03125 278.617188 C 228.554688 281.769531 226.292969 284.65625 223.378906 286.664062 C 221.953125 287.699219 220.367188 288.496094 218.742188 289.117188 C 217.117188 289.765625 215.433594 290.15625 213.734375 290.429688 C 206.914062 291.445312 199.960938 290.03125 193.992188 286.804688 C 191.019531 285.164062 188.242188 283.046875 186.117188 280.265625 C 185.054688 278.878906 184.171875 277.324219 183.589844 275.632812 C 183.003906 273.949219 182.734375 272.125 182.851562 270.328125 C 182.886719 269.882812 182.953125 269.441406 183.003906 268.996094 C 183.078125 268.566406 183.183594 268.15625 183.269531 267.738281 L 183.546875 266.488281 L 183.957031 265.257812 C 184.1875 264.429688 184.605469 263.644531 184.972656 262.847656 C 185.15625 262.449219 185.429688 262.085938 185.65625 261.707031 L 186.015625 261.144531 L 186.445312 260.621094 C 187.566406 259.222656 189.078125 258.066406 190.789062 257.421875 C 191.21875 257.265625 191.644531 257.105469 192.089844 257.015625 C 192.527344 256.894531 192.976562 256.832031 193.421875 256.773438 C 193.871094 256.734375 194.320312 256.695312 194.773438 256.714844 C 195 256.714844 195.226562 256.722656 195.457031 256.742188 C 195.570312 256.753906 195.683594 256.761719 195.804688 256.777344 L 195.984375 256.800781 L 196.027344 256.808594 C 196.011719 256.804688 195.847656 256.789062 195.742188 256.816406 C 195.488281 256.855469 195.242188 257.042969 195.140625 257.214844 Z M 195.140625 257.214844 " fill-opacity="1" fill-rule="nonzero"/><path fill="#1c1d23" d="M 209.589844 240.875 L 206.730469 238.613281 C 207.210938 238.007812 218.714844 223.804688 244.1875 223.644531 L 244.210938 227.289062 C 220.582031 227.4375 209.695312 240.742188 209.589844 240.875 Z M 209.589844 240.875 " fill-opacity="1" fill-rule="nonzero"/><path fill="#1c1d23" d="M 244.007812 229.882812 C 240.28125 221.980469 236.523438 219.03125 236.675781 219.058594 L 238.644531 215.992188 C 238.894531 216.152344 244.34375 221.355469 246.996094 230.144531 Z M 244.007812 229.882812 " fill-opacity="1" fill-rule="nonzero"/><path fill="#1c1d23" d="M 145.582031 220.371094 L 141.941406 220.175781 C 142.027344 218.574219 142.667969 210.496094 146.863281 208.261719 L 148.582031 211.476562 C 146.820312 212.414062 145.75 217.339844 145.582031 220.371094 Z M 145.582031 220.371094 " fill-opacity="1" fill-rule="nonzero"/><path fill="#1c1d23" d="M 154.503906 366.207031 C 151.007812 368.492188 147.007812 369.410156 142.925781 368.855469 C 126.53125 366.644531 110.871094 333.785156 111.441406 325.90625 C 112.1875 315.328125 119.992188 312.039062 120.324219 311.902344 L 120.441406 311.84375 C 122.613281 310.652344 125.195312 310.046875 128.042969 310.046875 C 137.949219 310.046875 150.996094 317.371094 160.523438 332.707031 C 163.28125 337.148438 164.496094 341.878906 164.496094 346.414062 C 164.492188 354.691406 160.457031 362.296875 154.503906 366.207031 Z M 162.367188 331.558594 C 149.277344 310.492188 130.289062 304.011719 119.445312 309.902344 C 118.535156 310.285156 110.085938 314.171875 109.261719 325.746094 C 108.65625 334.285156 124.816406 368.609375 142.636719 371.019531 C 143.507812 371.136719 144.371094 371.195312 145.234375 371.195312 C 147.085938 371.195312 148.902344 370.925781 150.648438 370.394531 C 152.40625 369.863281 154.097656 369.070312 155.695312 368.019531 C 165.761719 361.421875 170.851562 345.1875 162.367188 331.558594 Z M 162.367188 331.558594 " fill-opacity="1" fill-rule="nonzero"/><path fill="#e2e2d3" d="M 178.402344 305.332031 C 178.402344 305.332031 150.519531 300.464844 144.296875 298.285156 " fill-opacity="1" fill-rule="nonzero"/><path fill="#1c1d23" d="M 178.21875 306.402344 C 177.074219 306.203125 150.171875 301.5 143.9375 299.3125 L 144.660156 297.257812 C 150.722656 299.382812 178.3125 304.207031 178.59375 304.257812 Z M 178.21875 306.402344 " fill-opacity="1" fill-rule="nonzero"/><path fill="#e2e2d3" d="M 164.492188 346.414062 C 164.492188 354.691406 160.457031 362.296875 154.503906 366.207031 C 151.003906 368.492188 147.003906 369.410156 142.925781 368.855469 C 132.191406 367.40625 121.773438 352.824219 116.023438 340.71875 C 112.984375 334.332031 111.242188 328.632812 111.4375 325.90625 C 112.1875 315.328125 119.988281 312.039062 120.324219 311.902344 L 120.441406 311.84375 C 122.609375 310.652344 125.195312 310.046875 128.039062 310.046875 C 137.949219 310.046875 150.992188 317.371094 160.523438 332.707031 C 160.992188 333.457031 161.414062 334.222656 161.792969 334.992188 C 163.65625 338.746094 164.492188 342.644531 164.492188 346.414062 Z M 164.492188 346.414062 " fill-opacity="1" fill-rule="nonzero"/><path fill="#afaea0" d="M 161.792969 334.992188 L 148.144531 337.527344 C 148.144531 337.527344 138.28125 329.863281 126.820312 334.578125 C 122.980469 336.152344 119.269531 338.417969 116.023438 340.71875 C 112.984375 334.332031 111.242188 328.632812 111.4375 325.90625 C 112.1875 315.328125 119.988281 312.039062 120.324219 311.902344 L 120.441406 311.84375 C 122.609375 310.652344 125.195312 310.046875 128.039062 310.046875 C 137.949219 310.046875 150.992188 317.371094 160.523438 332.707031 C 160.992188 333.457031 161.417969 334.21875 161.792969 334.992188 Z M 161.792969 334.992188 " fill-opacity="1" fill-rule="nonzero"/><path fill="#1c1d23" d="M 124.21875 310.582031 C 129.277344 312.277344 138.746094 317.671875 148.179688 334.792969 C 153.371094 344.203125 156.226562 354.359375 156.683594 365.007812 C 164.785156 358.359375 168.410156 344.496094 161.074219 332.703125 C 150.0625 314.976562 134.355469 307.960938 124.21875 310.582031 Z M 154.59375 369.113281 L 154.566406 367.132812 C 154.417969 356.078125 151.628906 345.554688 146.273438 335.84375 C 133.429688 312.539062 120.582031 311.984375 120.453125 311.980469 L 116.398438 311.890625 L 119.949219 309.941406 C 130.777344 303.996094 149.816406 310.457031 162.921875 331.558594 C 171.402344 345.191406 166.320312 361.421875 156.25 368.027344 Z M 154.59375 369.113281 " fill-opacity="1" fill-rule="nonzero"/><path fill="#e21e4d" d="M 100.082031 232.703125 L 137.179688 286.148438 L 153.511719 286.148438 L 122.40625 235.734375 C 122.40625 235.734375 116.183594 231.53125 100.082031 232.703125 Z M 100.082031 232.703125 " fill-opacity="1" fill-rule="nonzero"/><path fill="#1c1d23" d="M 137.75 285.058594 L 151.5625 285.058594 L 121.617188 236.53125 C 120.558594 235.9375 114.726562 233.058594 102.082031 233.671875 Z M 155.464844 287.238281 L 136.613281 287.238281 L 98.101562 231.75 L 100.003906 231.613281 C 116.292969 230.433594 122.746094 234.652344 123.015625 234.832031 L 123.207031 234.960938 Z M 155.464844 287.238281 " fill-opacity="1" fill-rule="nonzero"/><path fill="#1c1d23" d="M 267.054688 264.566406 C 262.820312 238.109375 237.492188 226.953125 237.234375 226.84375 L 238.09375 224.839844 C 238.359375 224.957031 264.78125 236.59375 269.203125 264.222656 Z M 267.054688 264.566406 " fill-opacity="1" fill-rule="nonzero"/><path fill="#1c1d23" d="M 211.824219 344.027344 L 208.976562 343.464844 C 213.523438 320.363281 189.867188 300.351562 189.628906 300.152344 L 191.484375 297.921875 C 192.515625 298.777344 216.710938 319.21875 211.824219 344.027344 Z M 211.824219 344.027344 " fill-opacity="1" fill-rule="nonzero"/><path fill="#ffffff" d="M 130.757812 114.703125 C 128.507812 114.046875 124.347656 132.058594 129.808594 149.269531 C 135.96875 168.695312 155.109375 180.632812 156.878906 178.195312 C 159.457031 174.644531 144.613281 168.472656 136.011719 150.199219 C 128.691406 134.65625 133.234375 115.425781 130.757812 114.703125 Z M 130.757812 114.703125 " fill-opacity="1" fill-rule="nonzero"/><path fill="#ffffff" d="M 260.867188 127.84375 C 262.515625 127.851562 263.773438 121.296875 262.507812 114.023438 C 261.167969 106.324219 255.871094 99.9375 254.402344 100.5 C 253.359375 100.898438 254.390625 103.1875 256.515625 111.089844 C 259.492188 122.1875 259.359375 127.835938 260.867188 127.84375 Z M 260.867188 127.84375 " fill-opacity="1" fill-rule="nonzero"/><path fill="#ffffff" d="M 252.539062 94.765625 C 251.902344 92.429688 248.265625 91.355469 247.4375 92.207031 C 246.996094 92.660156 247.363281 93.667969 247.519531 94.101562 C 248.3125 96.269531 250.964844 97.832031 252.050781 97.152344 C 252.710938 96.742188 252.75 95.539062 252.539062 94.765625 Z M 252.539062 94.765625 " fill-opacity="1" fill-rule="nonzero"/></svg>