<svg xmlns="http://www.w3.org/2000/svg" xmlns:xlink="http://www.w3.org/1999/xlink" width="500" zoomAndPan="magnify" viewBox="0 0 375 374.999991" height="500" preserveAspectRatio="xMidYMid meet" version="1.0"><defs><clipPath id="5f429f71c5"><path d="M 102.148438 348.261719 L 107.398438 348.261719 L 107.398438 353.511719 L 102.148438 353.511719 Z M 102.148438 348.261719 " clip-rule="nonzero"/></clipPath><clipPath id="0b3d1c00a2"><path d="M 102.148438 348.261719 L 107.398438 348.261719 L 107.398438 353.511719 L 102.148438 353.511719 Z M 102.148438 348.261719 " clip-rule="nonzero"/></clipPath><clipPath id="46ddc74405"><path d="M 188 136 L 309.890625 136 L 309.890625 248 L 188 248 Z M 188 136 " clip-rule="nonzero"/></clipPath></defs><g clip-path="url(#5f429f71c5)"><path stroke-linecap="round" transform="matrix(0.0303118, 0, 0, 0.0303118, 99.301793, 345.416961)" fill="none" stroke-linejoin="miter" d="M 252.034476 221.816896 L 108.989832 221.816896 L 180.512154 97.84487 Z M 252.034476 221.816896 " stroke="#000000" stroke-width="3" stroke-opacity="1" stroke-miterlimit="10"/><path stroke-linecap="round" transform="matrix(0.0303118, 0, 0, 0.0303118, 99.301793, 345.416961)" fill="none" stroke-linejoin="miter" d="M 265.565726 180.449931 C 265.565726 191.790407 263.374952 202.615407 259.122274 213.0538 C 254.740726 223.492193 248.683881 232.641896 240.694 240.631777 C 232.704119 248.621658 223.425547 254.807372 212.987154 259.060051 C 202.67763 263.441599 191.723761 265.632372 180.512154 265.632372 C 169.171678 265.632372 158.346677 263.441599 147.908284 259.060051 C 137.469891 254.807372 128.320189 248.621658 120.330308 240.631777 C 112.340427 232.641896 106.154712 223.492193 101.902034 213.0538 C 97.520486 202.615407 95.329712 191.790407 95.329712 180.449931 C 95.329712 169.238324 97.520486 158.284454 101.902034 147.97493 C 106.154712 137.536538 112.340427 128.257966 120.330308 120.268085 C 128.320189 112.278204 137.469891 106.221359 147.908284 101.839811 C 158.346677 97.587132 169.171678 95.396358 180.512154 95.396358 C 191.723761 95.396358 202.67763 97.587132 212.987154 101.839811 C 223.425547 106.221359 232.704119 112.278204 240.694 120.268085 C 248.683881 128.257966 254.740726 137.536538 259.122274 147.97493 C 263.374952 158.284454 265.565726 169.238324 265.565726 180.449931 Z M 265.565726 180.449931 " stroke="#000000" stroke-width="3" stroke-opacity="1" stroke-miterlimit="10"/></g><path stroke-linecap="round" transform="matrix(0.0303118, 0, 0, 0.0303118, 99.301793, 345.416961)" fill="none" stroke-linejoin="miter" d="M 147.779415 156.351419 L 213.244892 156.351419 L 213.244892 221.816896 L 147.779415 221.816896 Z M 147.779415 156.351419 " stroke="#000000" stroke-width="3" stroke-opacity="1" stroke-miterlimit="10"/><g clip-path="url(#0b3d1c00a2)"><path stroke-linecap="round" transform="matrix(0.0303118, 0, 0, 0.0303118, 99.301793, 345.416961)" fill="none" stroke-linejoin="miter" d="M 213.244892 189.084157 C 213.244892 193.336836 212.342809 197.589514 210.79638 201.584455 C 209.121083 205.579395 206.672571 209.187729 203.579714 212.151717 C 200.615726 215.244574 197.007392 217.693086 193.012452 219.239515 C 189.017511 220.914812 184.764832 221.816896 180.512154 221.816896 C 176.130606 221.816896 172.006797 220.914812 167.882987 219.239515 C 163.888047 217.693086 160.408582 215.244574 157.315725 212.151717 C 154.222868 209.187729 151.903225 205.579395 150.227927 201.584455 C 148.55263 197.589514 147.779415 193.336836 147.779415 189.084157 C 147.779415 184.70261 148.55263 180.5788 150.227927 176.45499 C 151.903225 172.46005 154.222868 168.980586 157.315725 165.887728 C 160.408582 162.794871 163.888047 160.475228 167.882987 158.799931 C 172.006797 157.124633 176.130606 156.351419 180.512154 156.351419 C 184.764832 156.351419 189.017511 157.124633 193.012452 158.799931 C 197.007392 160.475228 200.615726 162.794871 203.579714 165.887728 C 206.672571 168.980586 209.121083 172.46005 210.79638 176.45499 C 212.342809 180.5788 213.244892 184.70261 213.244892 189.084157 Z M 213.244892 189.084157 " stroke="#000000" stroke-width="3" stroke-opacity="1" stroke-miterlimit="10"/></g><path fill="#77c232" d="M 256.054688 73.160156 C 256.054688 73.160156 180.277344 66.9375 175.410156 146.453125 C 175.410156 146.453125 253.820312 158.527344 256.054688 73.160156 " fill-opacity="1" fill-rule="nonzero"/><path fill="#3e512a" d="M 250.898438 76.902344 C 250.898438 76.902344 176.949219 139.785156 175.410156 146.453125 C 175.410156 146.453125 216.820312 115.632812 250.898438 76.902344 " fill-opacity="1" fill-rule="nonzero"/><path fill="#3e512a" d="M 193.351562 130.46875 C 193.351562 130.46875 195.503906 129.703125 198.78125 128.855469 C 200.421875 128.417969 202.339844 127.960938 204.410156 127.515625 C 205.441406 127.304688 206.503906 127.050781 207.59375 126.851562 C 208.6875 126.648438 209.792969 126.441406 210.902344 126.230469 C 212.011719 126.050781 213.125 125.867188 214.214844 125.6875 C 215.308594 125.492188 216.390625 125.367188 217.4375 125.214844 C 219.535156 124.925781 221.492188 124.703125 223.179688 124.550781 C 226.558594 124.230469 228.835938 124.210938 228.835938 124.210938 C 228.835938 124.210938 226.691406 124.976562 223.410156 125.828125 C 221.765625 126.265625 219.847656 126.722656 217.785156 127.164062 C 216.75 127.382812 215.683594 127.632812 214.59375 127.828125 C 213.503906 128.03125 212.394531 128.238281 211.289062 128.445312 C 210.175781 128.632812 209.066406 128.8125 207.976562 128.992188 C 206.878906 129.179688 205.796875 129.308594 204.75 129.460938 C 202.660156 129.75 200.695312 129.972656 199.007812 130.125 C 195.636719 130.445312 193.351562 130.46875 193.351562 130.46875 " fill-opacity="1" fill-rule="nonzero"/><path fill="#3e512a" d="M 191.625 129.210938 C 191.625 129.210938 191.710938 127.480469 192.121094 124.964844 C 192.316406 123.703125 192.589844 122.242188 192.933594 120.695312 C 193.273438 119.144531 193.667969 117.496094 194.121094 115.867188 C 194.566406 114.238281 195.0625 112.617188 195.558594 111.113281 C 196.058594 109.605469 196.566406 108.214844 197.039062 107.027344 C 197.96875 104.648438 198.785156 103.117188 198.785156 103.117188 C 198.785156 103.117188 198.703125 104.847656 198.289062 107.371094 C 198.09375 108.628906 197.820312 110.089844 197.476562 111.640625 C 197.140625 113.1875 196.742188 114.832031 196.292969 116.464844 C 195.84375 118.09375 195.347656 119.710938 194.84375 121.21875 C 194.347656 122.722656 193.839844 124.121094 193.363281 125.304688 C 192.433594 127.679688 191.625 129.210938 191.625 129.210938 " fill-opacity="1" fill-rule="nonzero"/><path fill="#3e512a" d="M 209.878906 116.796875 C 209.878906 116.796875 212.035156 116.03125 215.3125 115.183594 C 216.953125 114.746094 218.871094 114.289062 220.933594 113.84375 C 221.96875 113.628906 223.035156 113.378906 224.121094 113.179688 C 225.214844 112.976562 226.324219 112.765625 227.429688 112.558594 C 228.542969 112.375 229.652344 112.191406 230.742188 112.015625 C 231.839844 111.820312 232.921875 111.695312 233.96875 111.542969 C 236.058594 111.25 238.023438 111.03125 239.710938 110.878906 C 243.082031 110.558594 245.367188 110.539062 245.367188 110.539062 C 245.367188 110.539062 243.214844 111.304688 239.9375 112.152344 C 238.296875 112.589844 236.378906 113.050781 234.308594 113.492188 C 233.277344 113.703125 232.214844 113.960938 231.121094 114.15625 C 230.03125 114.359375 228.925781 114.566406 227.820312 114.773438 C 226.707031 114.957031 225.59375 115.140625 224.5 115.320312 C 223.410156 115.507812 222.328125 115.632812 221.28125 115.789062 C 219.183594 116.074219 217.226562 116.300781 215.539062 116.449219 C 212.160156 116.773438 209.878906 116.796875 209.878906 116.796875 " fill-opacity="1" fill-rule="nonzero"/><path fill="#3e512a" d="M 208.152344 115.539062 C 208.152344 115.539062 208.238281 113.804688 208.652344 111.289062 C 208.847656 110.027344 209.121094 108.570312 209.460938 107.019531 C 209.800781 105.46875 210.199219 103.824219 210.644531 102.195312 C 211.09375 100.5625 211.585938 98.945312 212.089844 97.441406 C 212.585938 95.929688 213.09375 94.535156 213.566406 93.351562 C 214.5 90.976562 215.3125 89.445312 215.3125 89.445312 C 215.3125 89.445312 215.234375 91.175781 214.816406 93.691406 C 214.625 94.957031 214.347656 96.414062 214.003906 97.960938 C 213.667969 99.515625 213.265625 101.15625 212.820312 102.789062 C 212.375 104.421875 211.875 106.035156 211.375 107.542969 C 210.875 109.050781 210.367188 110.445312 209.894531 111.628906 C 208.964844 114.003906 208.152344 115.539062 208.152344 115.539062 " fill-opacity="1" fill-rule="nonzero"/><path fill="#3e512a" d="M 224.398438 103.117188 C 224.398438 103.117188 225.96875 102.5625 228.371094 101.945312 C 229.570312 101.625 230.972656 101.285156 232.484375 100.960938 C 233.992188 100.625 235.613281 100.328125 237.230469 100.023438 C 238.859375 99.753906 240.480469 99.480469 242.011719 99.28125 C 243.542969 99.070312 244.980469 98.90625 246.210938 98.796875 C 248.679688 98.5625 250.347656 98.542969 250.347656 98.542969 C 250.347656 98.542969 248.777344 99.105469 246.375 99.726562 C 245.183594 100.046875 243.777344 100.382812 242.265625 100.707031 C 240.757812 101.042969 239.136719 101.34375 237.519531 101.644531 C 235.890625 101.914062 234.265625 102.1875 232.734375 102.386719 C 231.203125 102.597656 229.769531 102.761719 228.539062 102.871094 C 226.066406 103.105469 224.398438 103.117188 224.398438 103.117188 " fill-opacity="1" fill-rule="nonzero"/><path fill="#3e512a" d="M 223.136719 102.199219 C 223.136719 102.199219 223.199219 100.933594 223.503906 99.097656 C 223.644531 98.171875 223.84375 97.105469 224.09375 95.976562 C 224.332031 94.835938 224.648438 93.640625 224.960938 92.441406 C 225.300781 91.253906 225.640625 90.066406 226.011719 88.96875 C 226.378906 87.863281 226.75 86.84375 227.097656 85.980469 C 227.777344 84.242188 228.375 83.125 228.375 83.125 C 228.375 83.125 228.3125 84.386719 228.011719 86.226562 C 227.871094 87.148438 227.667969 88.21875 227.414062 89.347656 C 227.175781 90.488281 226.859375 91.683594 226.546875 92.878906 C 226.203125 94.066406 225.863281 95.253906 225.492188 96.355469 C 225.125 97.457031 224.757812 98.476562 224.410156 99.34375 C 223.726562 101.078125 223.136719 102.199219 223.136719 102.199219 " fill-opacity="1" fill-rule="nonzero"/><path fill="#77c232" d="M 94.210938 88.492188 C 94.210938 88.492188 87.980469 164.183594 167.589844 169.050781 C 167.589844 169.050781 179.679688 90.726562 94.210938 88.492188 " fill-opacity="1" fill-rule="nonzero"/><path fill="#3e512a" d="M 97.953125 93.648438 C 97.953125 93.648438 160.914062 167.507812 167.589844 169.050781 C 167.589844 169.050781 136.734375 127.6875 97.953125 93.648438 " fill-opacity="1" fill-rule="nonzero"/><path fill="#3e512a" d="M 151.585938 151.128906 C 151.585938 151.128906 150.820312 148.980469 149.972656 145.699219 C 149.535156 144.066406 149.074219 142.144531 148.628906 140.082031 C 148.417969 139.050781 148.164062 137.988281 147.964844 136.902344 C 147.761719 135.808594 147.554688 134.703125 147.34375 133.597656 C 147.160156 132.488281 146.980469 131.378906 146.800781 130.289062 C 146.605469 129.195312 146.480469 128.109375 146.328125 127.070312 C 146.039062 124.976562 145.8125 123.015625 145.664062 121.328125 C 145.339844 117.960938 145.324219 115.679688 145.324219 115.679688 C 145.324219 115.679688 146.089844 117.828125 146.941406 121.105469 C 147.375 122.742188 147.839844 124.660156 148.28125 126.722656 C 148.492188 127.757812 148.75 128.816406 148.941406 129.90625 C 149.148438 130.996094 149.355469 132.101562 149.5625 133.210938 C 149.746094 134.316406 149.929688 135.429688 150.109375 136.519531 C 150.296875 137.613281 150.425781 138.699219 150.578125 139.738281 C 150.867188 141.832031 151.089844 143.792969 151.242188 145.480469 C 151.5625 148.847656 151.585938 151.128906 151.585938 151.128906 " fill-opacity="1" fill-rule="nonzero"/><path fill="#3e512a" d="M 150.328125 152.851562 C 150.328125 152.851562 148.59375 152.765625 146.074219 152.355469 C 144.8125 152.160156 143.351562 151.882812 141.800781 151.542969 C 140.246094 151.203125 138.601562 150.808594 136.96875 150.363281 C 135.335938 149.914062 133.714844 149.421875 132.210938 148.917969 C 130.699219 148.421875 129.300781 147.914062 128.117188 147.441406 C 125.738281 146.511719 124.203125 145.699219 124.203125 145.699219 C 124.203125 145.699219 125.9375 145.785156 128.457031 146.195312 C 129.722656 146.386719 131.183594 146.660156 132.734375 147.007812 C 134.285156 147.339844 135.929688 147.742188 137.5625 148.1875 C 139.199219 148.636719 140.816406 149.132812 142.324219 149.632812 C 143.832031 150.132812 145.230469 150.640625 146.414062 151.113281 C 148.792969 152.042969 150.328125 152.851562 150.328125 152.851562 " fill-opacity="1" fill-rule="nonzero"/><path fill="#3e512a" d="M 137.894531 134.617188 C 137.898438 134.617188 137.132812 132.46875 136.285156 129.191406 C 135.847656 127.554688 135.386719 125.636719 134.941406 123.578125 C 134.730469 122.539062 134.476562 121.480469 134.277344 120.390625 C 134.070312 119.296875 133.863281 118.195312 133.65625 117.089844 C 133.472656 115.980469 133.289062 114.871094 133.109375 113.777344 C 132.917969 112.683594 132.792969 111.605469 132.636719 110.558594 C 132.347656 108.46875 132.125 106.507812 131.976562 104.824219 C 131.652344 101.449219 131.636719 99.171875 131.636719 99.171875 C 131.636719 99.171875 132.398438 101.316406 133.25 104.597656 C 133.6875 106.234375 134.148438 108.152344 134.59375 110.214844 C 134.804688 111.246094 135.058594 112.308594 135.25 113.402344 C 135.457031 114.488281 135.664062 115.59375 135.875 116.699219 C 136.054688 117.804688 136.242188 118.917969 136.421875 120.007812 C 136.605469 121.105469 136.734375 122.1875 136.890625 123.230469 C 137.175781 125.320312 137.402344 127.28125 137.554688 128.96875 C 137.875 132.339844 137.894531 134.617188 137.894531 134.617188 " fill-opacity="1" fill-rule="nonzero"/><path fill="#3e512a" d="M 136.636719 136.34375 C 136.636719 136.34375 134.90625 136.261719 132.386719 135.84375 C 131.121094 135.652344 129.664062 135.375 128.113281 135.03125 C 126.554688 134.699219 124.914062 134.300781 123.277344 133.851562 C 121.644531 133.402344 120.027344 132.914062 118.515625 132.410156 C 117.007812 131.917969 115.613281 131.410156 114.429688 130.933594 C 112.050781 130.003906 110.515625 129.1875 110.515625 129.191406 C 110.515625 129.191406 112.25 129.273438 114.769531 129.6875 C 116.03125 129.882812 117.492188 130.15625 119.042969 130.5 C 120.597656 130.835938 122.242188 131.230469 123.875 131.683594 C 125.507812 132.128906 127.125 132.621094 128.632812 133.125 C 130.144531 133.621094 131.539062 134.128906 132.726562 134.605469 C 135.105469 135.53125 136.636719 136.34375 136.636719 136.34375 " fill-opacity="1" fill-rule="nonzero"/><path fill="#3e512a" d="M 124.203125 120.117188 C 124.203125 120.117188 123.648438 118.542969 123.023438 116.144531 C 122.707031 114.949219 122.371094 113.550781 122.042969 112.039062 C 121.707031 110.53125 121.40625 108.914062 121.105469 107.300781 C 120.835938 105.675781 120.558594 104.054688 120.359375 102.523438 C 120.152344 100.992188 119.984375 99.558594 119.878906 98.328125 C 119.640625 95.859375 119.625 94.191406 119.625 94.191406 C 119.625 94.191406 120.1875 95.761719 120.808594 98.160156 C 121.128906 99.355469 121.464844 100.761719 121.792969 102.269531 C 122.128906 103.777344 122.421875 105.394531 122.730469 107.011719 C 123 108.636719 123.273438 110.257812 123.472656 111.789062 C 123.679688 113.316406 123.84375 114.75 123.953125 115.984375 C 124.191406 118.445312 124.203125 120.117188 124.203125 120.117188 " fill-opacity="1" fill-rule="nonzero"/><path fill="#3e512a" d="M 123.285156 121.378906 C 123.285156 121.378906 122.015625 121.316406 120.179688 121.011719 C 119.253906 120.871094 118.183594 120.667969 117.050781 120.421875 C 115.914062 120.179688 114.714844 119.863281 113.519531 119.554688 C 112.328125 119.210938 111.140625 118.875 110.039062 118.5 C 108.933594 118.136719 107.914062 117.765625 107.046875 117.417969 C 105.304688 116.738281 104.1875 116.144531 104.1875 116.144531 C 104.1875 116.144531 105.453125 116.203125 107.292969 116.507812 C 108.21875 116.648438 109.289062 116.847656 110.417969 117.101562 C 111.558594 117.339844 112.757812 117.65625 113.957031 117.96875 C 115.144531 118.308594 116.332031 118.648438 117.433594 119.023438 C 118.539062 119.386719 119.558594 119.757812 120.425781 120.105469 C 122.164062 120.78125 123.285156 121.378906 123.285156 121.378906 " fill-opacity="1" fill-rule="nonzero"/><path fill="#77c232" d="M 240.253906 4.378906 C 240.253906 4.378906 187.46875 0.046875 184.074219 55.4375 C 184.074219 55.4375 238.699219 63.847656 240.253906 4.378906 " fill-opacity="1" fill-rule="nonzero"/><path fill="#3e512a" d="M 236.660156 6.984375 C 236.660156 6.984375 185.140625 50.792969 184.074219 55.4375 C 184.074219 55.4375 212.921875 33.96875 236.660156 6.984375 " fill-opacity="1" fill-rule="nonzero"/><path fill="#3e512a" d="M 196.574219 44.300781 C 196.574219 44.300781 198.070312 43.769531 200.355469 43.179688 C 201.496094 42.875 202.835938 42.554688 204.273438 42.246094 C 205.710938 41.925781 207.25 41.640625 208.792969 41.351562 C 210.34375 41.09375 211.890625 40.832031 213.355469 40.644531 C 214.808594 40.441406 216.179688 40.285156 217.355469 40.179688 C 219.703125 39.957031 221.292969 39.941406 221.292969 39.941406 C 221.292969 39.941406 219.792969 40.476562 217.507812 41.066406 C 216.371094 41.371094 215.03125 41.695312 213.59375 42.003906 C 212.152344 42.320312 210.613281 42.605469 209.070312 42.894531 C 207.519531 43.152344 205.972656 43.410156 204.511719 43.601562 C 203.050781 43.800781 201.6875 43.953125 200.511719 44.0625 C 198.160156 44.285156 196.574219 44.300781 196.574219 44.300781 " fill-opacity="1" fill-rule="nonzero"/><path fill="#3e512a" d="M 195.371094 43.425781 C 195.371094 43.425781 195.425781 42.21875 195.71875 40.46875 C 195.851562 39.589844 196.046875 38.574219 196.285156 37.492188 C 196.511719 36.410156 196.8125 35.269531 197.105469 34.132812 C 197.433594 32.996094 197.757812 31.867188 198.109375 30.816406 C 198.460938 29.769531 198.8125 28.792969 199.144531 27.972656 C 199.789062 26.316406 200.355469 25.25 200.355469 25.25 C 200.355469 25.25 200.304688 26.460938 200.015625 28.210938 C 199.878906 29.085938 199.6875 30.105469 199.445312 31.183594 C 199.21875 32.265625 198.914062 33.402344 198.617188 34.542969 C 198.292969 35.675781 197.96875 36.808594 197.617188 37.859375 C 197.265625 38.910156 196.914062 39.878906 196.582031 40.707031 C 195.9375 42.355469 195.371094 43.425781 195.371094 43.425781 " fill-opacity="1" fill-rule="nonzero"/><path fill="#3e512a" d="M 208.085938 34.777344 C 208.085938 34.777344 209.585938 34.246094 211.871094 33.652344 C 213.011719 33.351562 214.347656 33.027344 215.785156 32.71875 C 217.226562 32.398438 218.769531 32.113281 220.3125 31.828125 C 221.859375 31.566406 223.40625 31.304688 224.867188 31.117188 C 226.328125 30.914062 227.691406 30.757812 228.867188 30.65625 C 231.21875 30.433594 232.808594 30.417969 232.808594 30.417969 C 232.808594 30.417969 231.308594 30.949219 229.023438 31.542969 C 227.882812 31.84375 226.546875 32.167969 225.109375 32.476562 C 223.667969 32.796875 222.128906 33.082031 220.582031 33.367188 C 219.035156 33.625 217.488281 33.886719 216.027344 34.074219 C 214.570312 34.277344 213.199219 34.433594 212.027344 34.535156 C 209.675781 34.761719 208.085938 34.777344 208.085938 34.777344 " fill-opacity="1" fill-rule="nonzero"/><path fill="#3e512a" d="M 206.882812 33.902344 C 206.882812 33.902344 206.941406 32.691406 207.234375 30.941406 C 207.367188 30.0625 207.558594 29.046875 207.800781 27.96875 C 208.023438 26.882812 208.324219 25.742188 208.621094 24.605469 C 208.949219 23.472656 209.269531 22.339844 209.628906 21.292969 C 209.972656 20.242188 210.328125 19.273438 210.660156 18.445312 C 211.304688 16.789062 211.871094 15.726562 211.871094 15.726562 C 211.871094 15.726562 211.8125 16.933594 211.53125 18.683594 C 211.390625 19.5625 211.199219 20.578125 210.960938 21.660156 C 210.734375 22.742188 210.433594 23.878906 210.132812 25.019531 C 209.804688 26.148438 209.484375 27.285156 209.125 28.332031 C 208.78125 29.382812 208.425781 30.351562 208.09375 31.179688 C 207.449219 32.835938 206.882812 33.902344 206.882812 33.902344 " fill-opacity="1" fill-rule="nonzero"/><path fill="#3e512a" d="M 218.203125 25.25 C 218.203125 25.25 218.472656 25.152344 218.960938 25.007812 C 219.445312 24.871094 220.128906 24.644531 220.96875 24.429688 C 222.640625 23.988281 224.882812 23.496094 227.140625 23.09375 C 229.398438 22.699219 231.675781 22.394531 233.398438 22.238281 C 234.257812 22.148438 234.980469 22.132812 235.480469 22.09375 C 235.988281 22.0625 236.28125 22.066406 236.28125 22.066406 C 236.28125 22.066406 236.007812 22.164062 235.523438 22.308594 C 235.039062 22.445312 234.347656 22.675781 233.507812 22.886719 C 231.84375 23.328125 229.597656 23.820312 227.339844 24.21875 C 225.082031 24.613281 222.800781 24.917969 221.085938 25.078125 C 220.222656 25.160156 219.5 25.183594 218.996094 25.222656 C 218.496094 25.25 218.203125 25.25 218.203125 25.25 " fill-opacity="1" fill-rule="nonzero"/><path fill="#3e512a" d="M 217.324219 24.609375 C 217.324219 24.609375 217.363281 23.730469 217.574219 22.445312 C 217.777344 21.160156 218.140625 19.476562 218.59375 17.816406 C 219.050781 16.15625 219.601562 14.515625 220.082031 13.308594 C 220.554688 12.097656 220.96875 11.320312 220.96875 11.320312 C 220.96875 11.320312 220.925781 12.203125 220.71875 13.484375 C 220.519531 14.769531 220.152344 16.453125 219.699219 18.113281 C 219.242188 19.773438 218.691406 21.414062 218.207031 22.617188 C 217.734375 23.832031 217.324219 24.609375 217.324219 24.609375 " fill-opacity="1" fill-rule="nonzero"/><path fill="#552e2d" d="M 69.195312 375.050781 C 69.195312 375.050781 176.382812 276.304688 258.59375 375.050781 L 69.195312 375.050781 " fill-opacity="1" fill-rule="nonzero"/><path fill="#442525" d="M 69.195312 375.050781 L 258.59375 375.050781 C 241.863281 354.96875 224.113281 343.050781 206.433594 336.816406 C 210.980469 347.117188 206.003906 353.109375 206.003906 353.109375 C 184.339844 365.761719 137.59375 354.058594 112.707031 346.363281 C 86.582031 359.042969 69.195312 375.050781 69.195312 375.050781 " fill-opacity="1" fill-rule="nonzero"/><path fill="#386634" d="M 164.253906 331.511719 C 164.253906 331.511719 174.5 342.039062 184.1875 331.765625 C 184.1875 331.765625 206.324219 296.929688 198.125 267.636719 C 189.929688 238.339844 154.5 68.535156 191.457031 50.378906 C 191.457031 50.378906 175.371094 43.722656 167.964844 99.398438 C 160.5625 155.070312 176.375 223.457031 182.101562 264.007812 C 187.820312 304.550781 164.253906 331.511719 164.253906 331.511719 " fill-opacity="1" fill-rule="nonzero"/><g clip-path="url(#46ddc74405)"><path fill="#77c232" d="M 309.824219 136.203125 C 309.824219 136.203125 195.714844 126.835938 188.382812 246.574219 C 188.382812 246.574219 306.457031 264.753906 309.824219 136.203125 " fill-opacity="1" fill-rule="nonzero"/></g><path fill="#3e512a" d="M 302.054688 141.835938 C 302.054688 141.835938 190.699219 236.53125 188.382812 246.574219 C 188.382812 246.574219 250.742188 200.160156 302.054688 141.835938 " fill-opacity="1" fill-rule="nonzero"/><path fill="#3e512a" d="M 215.398438 222.5 C 215.398438 222.5 216.207031 222.207031 217.636719 221.761719 C 219.066406 221.320312 221.105469 220.710938 223.582031 220.070312 C 224.816406 219.75 226.152344 219.394531 227.574219 219.074219 C 228.992188 218.738281 230.492188 218.367188 232.046875 218.054688 C 233.605469 217.730469 235.207031 217.351562 236.851562 217.054688 C 238.492188 216.746094 240.15625 216.433594 241.824219 216.121094 C 243.5 215.84375 245.167969 215.5625 246.816406 215.289062 C 248.460938 215.015625 250.097656 214.816406 251.671875 214.589844 C 254.824219 214.15625 257.78125 213.820312 260.320312 213.59375 C 262.863281 213.347656 264.992188 213.222656 266.488281 213.152344 C 267.980469 213.082031 268.84375 213.078125 268.84375 213.078125 C 268.84375 213.078125 268.03125 213.375 266.601562 213.816406 C 265.175781 214.261719 263.128906 214.871094 260.65625 215.511719 C 258.195312 216.167969 255.300781 216.863281 252.1875 217.527344 C 250.632812 217.851562 249.027344 218.226562 247.386719 218.53125 C 245.75 218.835938 244.082031 219.148438 242.410156 219.457031 C 240.742188 219.730469 239.066406 220.011719 237.417969 220.277344 C 235.773438 220.5625 234.140625 220.75 232.5625 220.984375 C 230.996094 221.21875 229.460938 221.382812 228.011719 221.554688 C 226.566406 221.734375 225.1875 221.863281 223.917969 221.984375 C 221.378906 222.226562 219.246094 222.355469 217.753906 222.425781 C 216.257812 222.496094 215.398438 222.5 215.398438 222.5 " fill-opacity="1" fill-rule="nonzero"/><path fill="#3e512a" d="M 212.796875 220.605469 C 212.796875 220.605469 212.824219 219.953125 212.9375 218.832031 C 213.050781 217.707031 213.234375 216.105469 213.550781 214.214844 C 213.835938 212.308594 214.265625 210.117188 214.765625 207.78125 C 215.273438 205.445312 215.882812 202.972656 216.554688 200.515625 C 217.230469 198.058594 217.964844 195.621094 218.714844 193.351562 C 219.484375 191.082031 220.238281 188.984375 220.957031 187.199219 C 221.65625 185.410156 222.3125 183.941406 222.792969 182.917969 C 223.269531 181.890625 223.582031 181.316406 223.582031 181.316406 C 223.582031 181.316406 223.554688 181.972656 223.445312 183.097656 C 223.332031 184.21875 223.148438 185.820312 222.835938 187.714844 C 222.546875 189.613281 222.121094 191.808594 221.621094 194.148438 C 221.105469 196.484375 220.492188 198.957031 219.824219 201.410156 C 219.148438 203.863281 218.410156 206.300781 217.660156 208.570312 C 216.890625 210.835938 216.140625 212.941406 215.417969 214.722656 C 214.71875 216.511719 214.0625 217.984375 213.585938 219.007812 C 213.105469 220.03125 212.796875 220.605469 212.796875 220.605469 " fill-opacity="1" fill-rule="nonzero"/><path fill="#3e512a" d="M 240.289062 201.910156 C 240.289062 201.910156 241.097656 201.617188 242.527344 201.171875 C 243.953125 200.730469 246 200.121094 248.472656 199.480469 C 249.703125 199.160156 251.039062 198.804688 252.460938 198.484375 C 253.886719 198.148438 255.378906 197.777344 256.941406 197.464844 C 258.496094 197.140625 260.09375 196.761719 261.738281 196.464844 C 263.378906 196.15625 265.046875 195.84375 266.714844 195.53125 C 268.386719 195.25 270.058594 194.972656 271.707031 194.699219 C 273.355469 194.425781 274.984375 194.230469 276.558594 193.996094 C 279.710938 193.566406 282.667969 193.230469 285.210938 193.003906 C 287.75 192.757812 289.882812 192.632812 291.375 192.5625 C 292.871094 192.492188 293.730469 192.488281 293.730469 192.488281 C 293.730469 192.488281 292.921875 192.785156 291.492188 193.226562 C 290.0625 193.671875 288.019531 194.28125 285.550781 194.921875 C 283.082031 195.578125 280.191406 196.269531 277.082031 196.941406 C 275.519531 197.261719 273.921875 197.636719 272.28125 197.941406 C 270.636719 198.246094 268.972656 198.558594 267.304688 198.867188 C 265.628906 199.140625 263.953125 199.417969 262.308594 199.6875 C 260.664062 199.972656 259.03125 200.160156 257.457031 200.394531 C 255.882812 200.628906 254.351562 200.796875 252.90625 200.964844 C 251.453125 201.144531 250.074219 201.273438 248.808594 201.394531 C 246.265625 201.636719 244.136719 201.761719 242.640625 201.835938 C 241.148438 201.90625 240.289062 201.910156 240.289062 201.910156 " fill-opacity="1" fill-rule="nonzero"/><path fill="#3e512a" d="M 237.6875 200.015625 C 237.6875 200.015625 237.714844 199.363281 237.828125 198.242188 C 237.9375 197.113281 238.125 195.515625 238.4375 193.621094 C 238.726562 191.71875 239.160156 189.527344 239.652344 187.191406 C 240.160156 184.855469 240.773438 182.382812 241.445312 179.921875 C 242.121094 177.46875 242.851562 175.03125 243.605469 172.761719 C 244.375 170.496094 245.125 168.390625 245.847656 166.609375 C 246.542969 164.820312 247.203125 163.351562 247.679688 162.324219 C 248.15625 161.300781 248.472656 160.726562 248.472656 160.726562 C 248.472656 160.726562 248.445312 161.382812 248.335938 162.507812 C 248.21875 163.628906 248.039062 165.230469 247.722656 167.125 C 247.4375 169.023438 247.007812 171.21875 246.507812 173.558594 C 246 175.890625 245.386719 178.363281 244.714844 180.820312 C 244.039062 183.273438 243.300781 185.710938 242.546875 187.980469 C 241.78125 190.246094 241.027344 192.351562 240.308594 194.132812 C 239.609375 195.921875 238.949219 197.394531 238.472656 198.417969 C 237.996094 199.441406 237.6875 200.015625 237.6875 200.015625 " fill-opacity="1" fill-rule="nonzero"/><path fill="#3e512a" d="M 262.152344 181.316406 C 262.152344 181.316406 264.519531 180.480469 268.136719 179.542969 C 269.9375 179.0625 272.050781 178.558594 274.328125 178.070312 C 275.464844 177.835938 276.640625 177.558594 277.835938 177.339844 C 279.039062 177.117188 280.257812 176.886719 281.476562 176.65625 C 282.699219 176.453125 283.921875 176.25 285.125 176.050781 C 286.332031 175.84375 287.527344 175.707031 288.675781 175.535156 C 290.976562 175.21875 293.140625 174.96875 295 174.804688 C 298.71875 174.449219 301.230469 174.429688 301.230469 174.429688 C 301.230469 174.429688 298.859375 175.273438 295.246094 176.210938 C 293.445312 176.6875 291.332031 177.195312 289.054688 177.683594 C 287.914062 177.917969 286.742188 178.195312 285.546875 178.410156 C 284.34375 178.636719 283.128906 178.867188 281.90625 179.09375 C 280.683594 179.296875 279.460938 179.496094 278.253906 179.695312 C 277.050781 179.902344 275.855469 180.042969 274.703125 180.210938 C 272.402344 180.527344 270.238281 180.773438 268.382812 180.9375 C 264.664062 181.296875 262.152344 181.316406 262.152344 181.316406 " fill-opacity="1" fill-rule="nonzero"/><path fill="#3e512a" d="M 260.25 179.9375 C 260.25 179.9375 260.34375 178.027344 260.796875 175.257812 C 261.015625 173.871094 261.316406 172.261719 261.691406 170.554688 C 261.894531 169.707031 262.066406 168.820312 262.304688 167.933594 C 262.53125 167.046875 262.765625 166.144531 263 165.242188 C 263.253906 164.347656 263.515625 163.457031 263.773438 162.574219 C 264.015625 161.691406 264.324219 160.839844 264.585938 160.007812 C 265.132812 158.347656 265.691406 156.8125 266.21875 155.503906 C 267.242188 152.890625 268.136719 151.203125 268.136719 151.203125 C 268.136719 151.203125 268.046875 153.113281 267.589844 155.882812 C 267.375 157.269531 267.070312 158.878906 266.695312 160.585938 C 266.496094 161.433594 266.324219 162.320312 266.085938 163.207031 C 265.855469 164.097656 265.621094 164.996094 265.386719 165.898438 C 265.128906 166.792969 264.867188 167.683594 264.613281 168.5625 C 264.363281 169.445312 264.054688 170.300781 263.800781 171.132812 C 263.246094 172.792969 262.691406 174.328125 262.164062 175.632812 C 261.144531 178.25 260.25 179.9375 260.25 179.9375 " fill-opacity="1" fill-rule="nonzero"/><path fill="#77c232" d="M 70.5 182.867188 C 70.5 182.867188 184.972656 180.90625 184.519531 300.867188 C 184.519531 300.867188 65.511719 311.367188 70.5 182.867188 " fill-opacity="1" fill-rule="nonzero"/><path fill="#3e512a" d="M 77.878906 188.992188 C 77.878906 188.992188 182.855469 290.695312 184.519531 300.867188 C 184.519531 300.867188 125.304688 250.515625 77.878906 188.992188 " fill-opacity="1" fill-rule="nonzero"/><path fill="#3e512a" d="M 159.121094 275.09375 C 159.121094 275.09375 158.265625 275.035156 156.78125 274.867188 C 155.289062 274.699219 153.171875 274.4375 150.652344 274.03125 C 149.394531 273.828125 148.027344 273.613281 146.597656 273.335938 C 145.160156 273.070312 143.640625 272.8125 142.089844 272.472656 C 140.53125 272.140625 138.914062 271.84375 137.292969 271.453125 C 135.664062 271.078125 134.011719 270.695312 132.359375 270.3125 C 130.71875 269.894531 129.070312 269.472656 127.457031 269.0625 C 125.835938 268.652344 124.261719 268.175781 122.730469 267.757812 C 119.671875 266.886719 116.828125 266.007812 114.410156 265.191406 C 111.988281 264.398438 109.984375 263.652344 108.589844 263.117188 C 107.191406 262.582031 106.402344 262.238281 106.402344 262.238281 C 106.402344 262.238281 107.261719 262.296875 108.75 262.464844 C 110.234375 262.628906 112.351562 262.890625 114.875 263.300781 C 117.394531 263.691406 120.320312 264.214844 123.441406 264.855469 C 124.996094 265.1875 126.613281 265.488281 128.234375 265.867188 C 129.863281 266.25 131.515625 266.636719 133.164062 267.019531 C 134.808594 267.441406 136.453125 267.863281 138.070312 268.277344 C 139.6875 268.679688 141.261719 269.160156 142.796875 269.578125 C 144.332031 269.996094 145.800781 270.460938 147.191406 270.886719 C 148.59375 271.304688 149.90625 271.742188 151.117188 272.144531 C 153.539062 272.945312 155.539062 273.679688 156.933594 274.214844 C 158.335938 274.75 159.121094 275.09375 159.121094 275.09375 " fill-opacity="1" fill-rule="nonzero"/><path fill="#3e512a" d="M 161.839844 273.375 C 161.839844 273.375 161.566406 272.78125 161.160156 271.730469 C 160.75 270.675781 160.1875 269.164062 159.609375 267.335938 C 159.003906 265.507812 158.394531 263.359375 157.773438 261.050781 C 157.167969 258.738281 156.59375 256.253906 156.074219 253.765625 C 155.5625 251.269531 155.113281 248.765625 154.753906 246.402344 C 154.410156 244.035156 154.125 241.820312 153.960938 239.902344 C 153.769531 237.992188 153.691406 236.382812 153.652344 235.253906 C 153.613281 234.125 153.632812 233.472656 153.632812 233.472656 C 153.632812 233.472656 153.90625 234.066406 154.3125 235.117188 C 154.722656 236.171875 155.285156 237.683594 155.871094 239.511719 C 156.46875 241.339844 157.085938 243.484375 157.703125 245.792969 C 158.304688 248.105469 158.878906 250.585938 159.394531 253.082031 C 159.90625 255.574219 160.355469 258.082031 160.714844 260.449219 C 161.054688 262.816406 161.339844 265.03125 161.507812 266.945312 C 161.695312 268.855469 161.777344 270.460938 161.820312 271.59375 C 161.855469 272.722656 161.839844 273.375 161.839844 273.375 " fill-opacity="1" fill-rule="nonzero"/><path fill="#3e512a" d="M 135.621094 252.9375 C 135.621094 252.9375 134.765625 252.878906 133.273438 252.710938 C 131.789062 252.542969 129.671875 252.277344 127.152344 251.867188 C 125.894531 251.667969 124.527344 251.453125 123.09375 251.179688 C 121.660156 250.914062 120.144531 250.652344 118.585938 250.3125 C 117.03125 249.980469 115.414062 249.6875 113.792969 249.292969 C 112.164062 248.917969 110.511719 248.535156 108.859375 248.15625 C 107.214844 247.734375 105.574219 247.316406 103.953125 246.90625 C 102.339844 246.496094 100.761719 246.019531 99.226562 245.597656 C 96.167969 244.730469 93.328125 243.851562 90.910156 243.035156 C 88.484375 242.238281 86.484375 241.492188 85.089844 240.957031 C 83.691406 240.425781 82.90625 240.078125 82.90625 240.078125 C 82.90625 240.078125 83.761719 240.136719 85.246094 240.304688 C 86.734375 240.46875 88.855469 240.734375 91.371094 241.140625 C 93.898438 241.53125 96.824219 242.058594 99.933594 242.699219 C 101.492188 243.027344 103.109375 243.328125 104.734375 243.707031 C 106.363281 244.089844 108.011719 244.476562 109.664062 244.859375 C 111.308594 245.28125 112.949219 245.703125 114.566406 246.121094 C 116.1875 246.519531 117.761719 247.003906 119.292969 247.421875 C 120.828125 247.835938 122.296875 248.304688 123.695312 248.726562 C 125.09375 249.144531 126.402344 249.585938 127.613281 249.988281 C 130.039062 250.78125 132.042969 251.523438 133.4375 252.058594 C 134.832031 252.589844 135.621094 252.9375 135.621094 252.9375 " fill-opacity="1" fill-rule="nonzero"/><path fill="#3e512a" d="M 138.339844 251.21875 C 138.339844 251.21875 138.070312 250.621094 137.660156 249.566406 C 137.25 248.515625 136.6875 247.007812 136.109375 245.175781 C 135.503906 243.351562 134.890625 241.203125 134.269531 238.890625 C 133.667969 236.578125 133.089844 234.097656 132.570312 231.609375 C 132.0625 229.113281 131.613281 226.605469 131.25 224.242188 C 130.910156 221.871094 130.621094 219.660156 130.460938 217.746094 C 130.269531 215.832031 130.191406 214.226562 130.152344 213.097656 C 130.109375 211.964844 130.128906 211.3125 130.128906 211.3125 C 130.128906 211.3125 130.402344 211.910156 130.8125 212.960938 C 131.222656 214.015625 131.789062 215.519531 132.367188 217.351562 C 132.972656 219.179688 133.585938 221.324219 134.203125 223.632812 C 134.808594 225.949219 135.378906 228.429688 135.894531 230.921875 C 136.402344 233.417969 136.855469 235.925781 137.210938 238.289062 C 137.558594 240.652344 137.839844 242.871094 138.007812 244.785156 C 138.199219 246.699219 138.277344 248.304688 138.3125 249.433594 C 138.359375 250.566406 138.339844 251.21875 138.339844 251.21875 " fill-opacity="1" fill-rule="nonzero"/><path fill="#3e512a" d="M 115.140625 230.972656 C 115.140625 230.972656 112.632812 230.792969 108.949219 230.195312 C 107.105469 229.90625 104.964844 229.523438 102.683594 229.054688 C 101.546875 228.8125 100.363281 228.597656 99.179688 228.308594 C 97.992188 228.035156 96.78125 227.757812 95.566406 227.476562 C 94.371094 227.171875 93.167969 226.863281 91.984375 226.558594 C 90.800781 226.269531 89.648438 225.914062 88.527344 225.609375 C 86.289062 224.972656 84.214844 224.328125 82.445312 223.730469 C 78.902344 222.566406 76.589844 221.574219 76.589844 221.574219 C 76.589844 221.574219 79.101562 221.753906 82.78125 222.351562 C 84.628906 222.632812 86.769531 223.019531 89.042969 223.484375 C 90.183594 223.730469 91.371094 223.945312 92.554688 224.234375 C 93.742188 224.507812 94.949219 224.785156 96.160156 225.070312 C 97.359375 225.378906 98.566406 225.683594 99.746094 225.988281 C 100.929688 226.285156 102.078125 226.636719 103.203125 226.941406 C 105.441406 227.578125 107.515625 228.222656 109.285156 228.816406 C 112.832031 229.984375 115.140625 230.976562 115.140625 230.972656 " fill-opacity="1" fill-rule="nonzero"/><path fill="#3e512a" d="M 117.128906 229.71875 C 117.128906 229.71875 116.347656 227.980469 115.492188 225.300781 C 115.054688 223.964844 114.597656 222.394531 114.164062 220.703125 C 113.949219 219.855469 113.703125 218.984375 113.511719 218.089844 C 113.3125 217.191406 113.117188 216.285156 112.910156 215.375 C 112.738281 214.460938 112.5625 213.546875 112.390625 212.644531 C 112.210938 211.75 112.097656 210.847656 111.953125 209.988281 C 111.683594 208.261719 111.488281 206.640625 111.363281 205.238281 C 111.089844 202.441406 111.121094 200.535156 111.121094 200.535156 C 111.121094 200.535156 111.910156 202.277344 112.757812 204.957031 C 113.199219 206.289062 113.65625 207.855469 114.09375 209.550781 C 114.300781 210.398438 114.550781 211.269531 114.738281 212.164062 C 114.9375 213.0625 115.140625 213.964844 115.34375 214.878906 C 115.515625 215.792969 115.6875 216.707031 115.859375 217.609375 C 116.035156 218.503906 116.152344 219.40625 116.292969 220.265625 C 116.5625 221.992188 116.761719 223.613281 116.886719 225.015625 C 117.160156 227.8125 117.128906 229.71875 117.128906 229.71875 " fill-opacity="1" fill-rule="nonzero"/></svg>