<svg xmlns="http://www.w3.org/2000/svg" xmlns:xlink="http://www.w3.org/1999/xlink" width="500" zoomAndPan="magnify" viewBox="0 0 375 374.999991" height="500" preserveAspectRatio="xMidYMid meet" version="1.0"><defs><clipPath id="efb8b3c5f1"><path d="M 102.148438 348.261719 L 107.398438 348.261719 L 107.398438 353.511719 L 102.148438 353.511719 Z M 102.148438 348.261719 " clip-rule="nonzero"/></clipPath><clipPath id="76285f672d"><path d="M 102.148438 348.261719 L 107.398438 348.261719 L 107.398438 353.511719 L 102.148438 353.511719 Z M 102.148438 348.261719 " clip-rule="nonzero"/></clipPath></defs><g clip-path="url(#efb8b3c5f1)"><path stroke-linecap="round" transform="matrix(0.0303118, 0, 0, 0.0303118, 99.301793, 345.416961)" fill="none" stroke-linejoin="miter" d="M 252.034476 221.816896 L 108.989832 221.816896 L 180.512154 97.84487 Z M 252.034476 221.816896 " stroke="#000000" stroke-width="3" stroke-opacity="1" stroke-miterlimit="10"/><path stroke-linecap="round" transform="matrix(0.0303118, 0, 0, 0.0303118, 99.301793, 345.416961)" fill="none" stroke-linejoin="miter" d="M 265.565726 180.449931 C 265.565726 191.790407 263.374952 202.615407 259.122274 213.0538 C 254.740726 223.492193 248.683881 232.641896 240.694 240.631777 C 232.704119 248.621658 223.425547 254.807372 212.987154 259.060051 C 202.67763 263.441599 191.723761 265.632372 180.512154 265.632372 C 169.171678 265.632372 158.346677 263.441599 147.908284 259.060051 C 137.469891 254.807372 128.320189 248.621658 120.330308 240.631777 C 112.340427 232.641896 106.154712 223.492193 101.902034 213.0538 C 97.520486 202.615407 95.329712 191.790407 95.329712 180.449931 C 95.329712 169.238324 97.520486 158.284454 101.902034 147.97493 C 106.154712 137.536538 112.340427 128.257966 120.330308 120.268085 C 128.320189 112.278204 137.469891 106.221359 147.908284 101.839811 C 158.346677 97.587132 169.171678 95.396358 180.512154 95.396358 C 191.723761 95.396358 202.67763 97.587132 212.987154 101.839811 C 223.425547 106.221359 232.704119 112.278204 240.694 120.268085 C 248.683881 128.257966 254.740726 137.536538 259.122274 147.97493 C 263.374952 158.284454 265.565726 169.238324 265.565726 180.449931 Z M 265.565726 180.449931 " stroke="#000000" stroke-width="3" stroke-opacity="1" stroke-miterlimit="10"/></g><path stroke-linecap="round" transform="matrix(0.0303118, 0, 0, 0.0303118, 99.301793, 345.416961)" fill="none" stroke-linejoin="miter" d="M 147.779415 156.351419 L 213.244892 156.351419 L 213.244892 221.816896 L 147.779415 221.816896 Z M 147.779415 156.351419 " stroke="#000000" stroke-width="3" stroke-opacity="1" stroke-miterlimit="10"/><g clip-path="url(#76285f672d)"><path stroke-linecap="round" transform="matrix(0.0303118, 0, 0, 0.0303118, 99.301793, 345.416961)" fill="none" stroke-linejoin="miter" d="M 213.244892 189.084157 C 213.244892 193.336836 212.342809 197.589514 210.79638 201.584455 C 209.121083 205.579395 206.672571 209.187729 203.579714 212.151717 C 200.615726 215.244574 197.007392 217.693086 193.012452 219.239515 C 189.017511 220.914812 184.764832 221.816896 180.512154 221.816896 C 176.130606 221.816896 172.006797 220.914812 167.882987 219.239515 C 163.888047 217.693086 160.408582 215.244574 157.315725 212.151717 C 154.222868 209.187729 151.903225 205.579395 150.227927 201.584455 C 148.55263 197.589514 147.779415 193.336836 147.779415 189.084157 C 147.779415 184.70261 148.55263 180.5788 150.227927 176.45499 C 151.903225 172.46005 154.222868 168.980586 157.315725 165.887728 C 160.408582 162.794871 163.888047 160.475228 167.882987 158.799931 C 172.006797 157.124633 176.130606 156.351419 180.512154 156.351419 C 184.764832 156.351419 189.017511 157.124633 193.012452 158.799931 C 197.007392 160.475228 200.615726 162.794871 203.579714 165.887728 C 206.672571 168.980586 209.121083 172.46005 210.79638 176.45499 C 212.342809 180.5788 213.244892 184.70261 213.244892 189.084157 Z M 213.244892 189.084157 " stroke="#000000" stroke-width="3" stroke-opacity="1" stroke-miterlimit="10"/></g><path fill="#eea9a6" d="M 16.9375 348.527344 L 16.9375 25.710938 C 16.9375 11.628906 28.351562 0.203125 42.4375 0.203125 L 332.582031 0.203125 C 346.660156 0.203125 358.082031 11.621094 358.082031 25.710938 L 358.082031 348.527344 C 358.082031 362.609375 346.667969 374.035156 332.582031 374.035156 L 42.4375 374.035156 C 28.351562 374.035156 16.9375 362.609375 16.9375 348.527344 Z M 16.9375 348.527344 " fill-opacity="1" fill-rule="nonzero"/><path fill="#e67e79" d="M 358.074219 303.253906 L 358.074219 343.46875 C 359.234375 361.332031 349.660156 374.027344 329.902344 374.027344 L 45.109375 374.027344 C 29.074219 374.820312 15.695312 364.179688 16.9375 343.46875 L 16.9375 301.460938 " fill-opacity="0.851" fill-rule="nonzero"/><path fill="#fff5f5" d="M 345.160156 94.910156 L 345.160156 33.214844 C 345.160156 31.742188 346.355469 30.546875 347.828125 30.546875 C 349.296875 30.546875 350.492188 31.742188 350.492188 33.214844 L 350.492188 94.910156 C 350.492188 96.378906 349.296875 97.574219 347.828125 97.574219 C 346.355469 97.574219 345.160156 96.378906 345.160156 94.910156 Z M 345.160156 94.910156 " fill-opacity="0.502" fill-rule="nonzero"/><path fill="#fff5f5" d="M 345.160156 132.660156 L 345.160156 113.617188 C 345.160156 112.148438 346.355469 110.953125 347.828125 110.953125 C 349.296875 110.953125 350.492188 112.148438 350.492188 113.617188 L 350.492188 132.660156 C 350.492188 134.128906 349.296875 135.324219 347.828125 135.324219 C 346.355469 135.324219 345.160156 134.128906 345.160156 132.660156 Z M 345.160156 132.660156 " fill-opacity="0.502" fill-rule="nonzero"/><path fill="#b44131" d="M 238.457031 242.609375 C 232.378906 246.003906 218.164062 249.925781 200.085938 249.925781 C 148.109375 249.925781 121.304688 213.214844 121.304688 164.855469 C 121.304688 107.003906 157.984375 74.992188 203.308594 74.992188 C 220.957031 74.992188 234.367188 78.882812 240.261719 82.519531 L 233.339844 112.847656 C 226.59375 109.511719 216.953125 106.480469 204.824219 106.480469 C 178.042969 106.480469 157.054688 124.929688 157.054688 162.632812 C 157.054688 196.648438 174.796875 218.011719 205.019531 218.011719 C 215.421875 218.011719 226.667969 215.699219 233.398438 212.527344 Z M 238.457031 242.609375 " fill-opacity="0.502" fill-rule="nonzero"/><path fill="#ffffff" d="M 241.402344 242.609375 C 235.328125 246.003906 221.109375 249.925781 203.03125 249.925781 C 151.054688 249.925781 124.25 213.214844 124.25 164.855469 C 124.25 107.003906 160.929688 74.992188 206.253906 74.992188 C 223.90625 74.992188 237.3125 78.882812 243.207031 82.519531 L 236.285156 112.847656 C 229.539062 109.511719 219.898438 106.480469 207.769531 106.480469 C 180.988281 106.480469 160.003906 124.929688 160.003906 162.632812 C 160.003906 196.648438 177.746094 218.011719 207.96875 218.011719 C 218.367188 218.011719 229.617188 215.699219 236.347656 212.527344 Z M 241.402344 242.609375 " fill-opacity="1" fill-rule="nonzero"/><path fill="#ffffff" d="M 70.429688 23.5625 C 69.417969 23.539062 68.199219 23.601562 66.789062 23.84375 C 59.238281 25.15625 55.253906 31.15625 54.460938 37.554688 L 54.589844 37.554688 C 56.289062 35.074219 59.242188 33.054688 63.171875 33.054688 C 69.507812 33.054688 73.933594 38.019531 73.933594 45.53125 C 73.933594 52.613281 69.476562 59.148438 62.078125 59.148438 C 54.492188 59.148438 49.519531 52.726562 49.519531 42.71875 C 49.519531 35.125 52.011719 29.117188 55.542969 25.316406 C 58.476562 22.15625 62.425781 20.203125 66.925781 19.59375 C 68.34375 19.351562 69.539062 19.296875 70.40625 19.304688 Z M 69.050781 45.867188 C 69.042969 40.335938 66.128906 37.023438 61.734375 37.023438 C 58.824219 37.023438 56.105469 38.949219 54.796875 41.761719 C 54.507812 42.371094 54.285156 43.117188 54.285156 44.054688 C 54.355469 50.414062 57.050781 55.152344 62.113281 55.152344 C 66.257812 55.144531 69.050781 51.386719 69.050781 45.867188 Z M 69.050781 45.867188 " fill-opacity="1" fill-rule="nonzero"/><path fill="#b44131" d="M 124.859375 351.414062 C 123.007812 352.207031 119.203125 353.027344 114.367188 353.027344 C 103.179688 353.027344 94.796875 346.996094 94.796875 335.875 C 94.796875 325.242188 103.195312 318.105469 115.523438 318.105469 C 120.429688 318.105469 123.597656 318.996094 124.945312 319.597656 L 123.679688 323.15625 C 121.753906 322.371094 118.988281 321.761719 115.691406 321.761719 C 106.363281 321.761719 100.203125 326.839844 100.203125 335.738281 C 100.203125 344.023438 105.800781 349.320312 115.417969 349.320312 C 118.570312 349.320312 121.746094 348.777344 123.832031 347.933594 Z M 124.859375 351.414062 " fill-opacity="1" fill-rule="nonzero"/><path fill="#b44131" d="M 146.5 352.503906 L 146.042969 349.433594 L 145.890625 349.433594 C 144.332031 351.328125 141.253906 353.058594 137.171875 353.058594 C 131.417969 353.058594 128.46875 349.570312 128.46875 346.082031 C 128.46875 340.195312 134.585938 336.964844 145.585938 337.023438 L 145.585938 336.507812 C 145.585938 334.535156 144.941406 330.871094 139.101562 330.902344 C 136.449219 330.902344 133.679688 331.578125 131.675781 332.714844 L 130.503906 329.773438 C 132.863281 328.472656 136.3125 327.640625 139.90625 327.640625 C 148.617188 327.640625 150.742188 332.722656 150.742188 337.589844 L 150.742188 346.683594 C 150.742188 348.761719 150.855469 350.828125 151.167969 352.503906 Z M 145.703125 340.085938 C 140.097656 339.988281 133.679688 340.839844 133.679688 345.546875 C 133.679688 348.449219 135.917969 349.785156 138.511719 349.785156 C 142.265625 349.785156 144.628906 347.765625 145.457031 345.714844 C 145.640625 345.242188 145.703125 344.75 145.703125 344.320312 Z M 145.703125 340.085938 " fill-opacity="1" fill-rule="nonzero"/><path fill="#b44131" d="M 159.089844 335.769531 C 159.089844 332.898438 159.003906 330.453125 158.851562 328.199219 L 163.390625 328.199219 L 163.589844 332.964844 L 163.769531 332.964844 C 165.105469 329.707031 168.242188 327.640625 171.707031 327.640625 C 172.269531 327.640625 172.671875 327.671875 173.144531 327.761719 L 173.144531 331.921875 C 172.621094 331.832031 172.09375 331.792969 171.386719 331.792969 C 167.730469 331.792969 165.15625 334.136719 164.449219 337.445312 C 164.3125 338.0625 164.242188 338.792969 164.242188 339.507812 L 164.242188 352.496094 L 159.089844 352.496094 Z M 159.089844 335.769531 " fill-opacity="1" fill-rule="nonzero"/><path fill="#b44131" d="M 178.351562 352.503906 C 178.492188 350.835938 178.589844 348.398438 178.589844 346.234375 L 178.589844 316.816406 L 183.738281 316.816406 L 183.738281 332.097656 L 183.859375 332.097656 C 185.679688 329.363281 188.976562 327.640625 193.574219 327.640625 C 200.65625 327.640625 205.628906 332.660156 205.597656 340.019531 C 205.597656 348.738281 199.125 353.050781 192.769531 353.050781 C 188.65625 353.050781 185.375 351.671875 183.21875 348.503906 L 183.082031 348.503906 L 182.824219 352.503906 Z M 183.738281 342.761719 C 183.738281 343.300781 183.8125 343.859375 183.949219 344.359375 C 184.925781 347.429688 187.980469 349.53125 191.726562 349.53125 C 197.175781 349.53125 200.375 345.769531 200.375 340.1875 C 200.375 335.296875 197.414062 331.113281 191.878906 331.113281 C 188.367188 331.113281 185.078125 333.210938 184.042969 336.546875 C 183.882812 337.085938 183.746094 337.679688 183.746094 338.382812 L 183.746094 342.761719 Z M 183.738281 342.761719 " fill-opacity="1" fill-rule="nonzero"/><path fill="#b44131" d="M 237.960938 340.117188 C 237.960938 349.121094 230.644531 353.058594 223.789062 353.058594 C 216.0625 353.058594 210.089844 348.253906 210.089844 340.535156 C 210.089844 332.402344 216.359375 327.648438 224.238281 327.648438 C 232.433594 327.640625 237.960938 332.714844 237.960938 340.117188 Z M 215.367188 340.398438 C 215.367188 345.730469 218.949219 349.746094 224.003906 349.746094 C 228.96875 349.746094 232.683594 345.785156 232.683594 340.269531 C 232.683594 336.15625 230.253906 330.960938 224.09375 330.960938 C 218.019531 330.953125 215.367188 335.792969 215.367188 340.398438 Z M 215.367188 340.398438 " fill-opacity="1" fill-rule="nonzero"/><path fill="#b44131" d="M 244.511719 334.761719 C 244.511719 332.226562 244.410156 330.214844 244.273438 328.199219 L 248.851562 328.199219 L 249.140625 332.195312 L 249.285156 332.195312 C 250.6875 329.910156 254 327.648438 258.703125 327.648438 C 262.617188 327.648438 268.746094 329.660156 268.746094 338.007812 L 268.746094 352.511719 L 263.59375 352.511719 L 263.59375 338.496094 C 263.59375 334.566406 261.855469 331.273438 257.007812 331.273438 C 253.601562 331.273438 250.953125 333.339844 250.023438 335.8125 C 249.808594 336.355469 249.664062 337.140625 249.664062 337.863281 L 249.664062 352.511719 L 244.511719 352.511719 Z M 244.511719 334.761719 " fill-opacity="1" fill-rule="nonzero"/><path fill="#b44131" d="M 153.378906 275.847656 L 153.316406 275.847656 L 150.058594 277.75 L 149.570312 275.65625 L 153.667969 273.289062 L 155.820312 273.289062 L 155.820312 293.640625 L 153.371094 293.640625 L 153.371094 275.847656 Z M 153.378906 275.847656 " fill-opacity="1" fill-rule="nonzero"/><path fill="#b44131" d="M 164.097656 293.640625 L 164.097656 291.964844 L 166.09375 289.871094 C 170.882812 284.917969 173.0625 282.269531 173.078125 279.207031 C 173.078125 277.132812 172.171875 275.222656 169.375 275.222656 C 167.664062 275.222656 166.261719 276.175781 165.386719 276.945312 L 164.578125 275.015625 C 165.867188 273.835938 167.722656 272.945312 169.886719 272.945312 C 173.921875 272.945312 175.621094 275.953125 175.621094 278.847656 C 175.621094 282.625 173.105469 285.664062 169.164062 289.777344 L 167.675781 291.300781 L 167.675781 291.363281 L 176.085938 291.363281 L 176.085938 293.640625 Z M 164.097656 293.640625 " fill-opacity="1" fill-rule="nonzero"/><path fill="#b44131" d="M 180.570312 292.023438 C 180.570312 290.867188 181.285156 290.039062 182.289062 290.039062 C 183.3125 290.039062 183.988281 290.859375 183.996094 292.023438 C 183.996094 293.128906 183.316406 293.992188 182.273438 293.992188 C 181.261719 293.984375 180.554688 293.128906 180.570312 292.023438 Z M 180.570312 292.023438 " fill-opacity="1" fill-rule="nonzero"/><path fill="#b44131" d="M 200.253906 283.257812 C 200.253906 290.160156 197.871094 293.984375 193.726562 293.984375 C 190.066406 293.984375 187.574219 290.257812 187.515625 283.539062 C 187.515625 276.699219 190.234375 272.945312 194.046875 272.945312 C 198 272.945312 200.253906 276.777344 200.253906 283.257812 Z M 190.066406 283.546875 C 190.058594 288.855469 191.566406 291.851562 193.871094 291.851562 C 196.460938 291.851562 197.695312 288.566406 197.695312 283.378906 C 197.695312 278.359375 196.523438 275.085938 193.886719 275.085938 C 191.6875 275.085938 190.066406 278.035156 190.066406 283.546875 Z M 190.066406 283.546875 " fill-opacity="1" fill-rule="nonzero"/><path fill="#b44131" d="M 209.535156 275.847656 L 209.476562 275.847656 L 206.214844 277.75 L 205.726562 275.65625 L 209.824219 273.289062 L 211.980469 273.289062 L 211.980469 293.640625 L 209.527344 293.640625 L 209.527344 275.847656 Z M 209.535156 275.847656 " fill-opacity="1" fill-rule="nonzero"/></svg>