<svg xmlns="http://www.w3.org/2000/svg" xmlns:xlink="http://www.w3.org/1999/xlink" width="500" zoomAndPan="magnify" viewBox="0 0 375 374.999991" height="500" preserveAspectRatio="xMidYMid meet" version="1.0"><defs><clipPath id="e9b97d3a5f"><path d="M 102.148438 348.261719 L 107.398438 348.261719 L 107.398438 353.511719 L 102.148438 353.511719 Z M 102.148438 348.261719 " clip-rule="nonzero"/></clipPath><clipPath id="0e49458080"><path d="M 102.148438 348.261719 L 107.398438 348.261719 L 107.398438 353.511719 L 102.148438 353.511719 Z M 102.148438 348.261719 " clip-rule="nonzero"/></clipPath><clipPath id="5beddf9af2"><path d="M 253 17 L 282.886719 17 L 282.886719 64 L 253 64 Z M 253 17 " clip-rule="nonzero"/></clipPath></defs><g clip-path="url(#e9b97d3a5f)"><path stroke-linecap="round" transform="matrix(0.0303118, 0, 0, 0.0303118, 99.301793, 345.416961)" fill="none" stroke-linejoin="miter" d="M 252.034476 221.816896 L 108.989832 221.816896 L 180.512154 97.84487 Z M 252.034476 221.816896 " stroke="#000000" stroke-width="3" stroke-opacity="1" stroke-miterlimit="10"/><path stroke-linecap="round" transform="matrix(0.0303118, 0, 0, 0.0303118, 99.301793, 345.416961)" fill="none" stroke-linejoin="miter" d="M 265.565726 180.449931 C 265.565726 191.790407 263.374952 202.615407 259.122274 213.0538 C 254.740726 223.492193 248.683881 232.641896 240.694 240.631777 C 232.704119 248.621658 223.425547 254.807372 212.987154 259.060051 C 202.67763 263.441599 191.723761 265.632372 180.512154 265.632372 C 169.171678 265.632372 158.346677 263.441599 147.908284 259.060051 C 137.469891 254.807372 128.320189 248.621658 120.330308 240.631777 C 112.340427 232.641896 106.154712 223.492193 101.902034 213.0538 C 97.520486 202.615407 95.329712 191.790407 95.329712 180.449931 C 95.329712 169.238324 97.520486 158.284454 101.902034 147.97493 C 106.154712 137.536538 112.340427 128.257966 120.330308 120.268085 C 128.320189 112.278204 137.469891 106.221359 147.908284 101.839811 C 158.346677 97.587132 169.171678 95.396358 180.512154 95.396358 C 191.723761 95.396358 202.67763 97.587132 212.987154 101.839811 C 223.425547 106.221359 232.704119 112.278204 240.694 120.268085 C 248.683881 128.257966 254.740726 137.536538 259.122274 147.97493 C 263.374952 158.284454 265.565726 169.238324 265.565726 180.449931 Z M 265.565726 180.449931 " stroke="#000000" stroke-width="3" stroke-opacity="1" stroke-miterlimit="10"/></g><path stroke-linecap="round" transform="matrix(0.0303118, 0, 0, 0.0303118, 99.301793, 345.416961)" fill="none" stroke-linejoin="miter" d="M 147.779415 156.351419 L 213.244892 156.351419 L 213.244892 221.816896 L 147.779415 221.816896 Z M 147.779415 156.351419 " stroke="#000000" stroke-width="3" stroke-opacity="1" stroke-miterlimit="10"/><g clip-path="url(#0e49458080)"><path stroke-linecap="round" transform="matrix(0.0303118, 0, 0, 0.0303118, 99.301793, 345.416961)" fill="none" stroke-linejoin="miter" d="M 213.244892 189.084157 C 213.244892 193.336836 212.342809 197.589514 210.79638 201.584455 C 209.121083 205.579395 206.672571 209.187729 203.579714 212.151717 C 200.615726 215.244574 197.007392 217.693086 193.012452 219.239515 C 189.017511 220.914812 184.764832 221.816896 180.512154 221.816896 C 176.130606 221.816896 172.006797 220.914812 167.882987 219.239515 C 163.888047 217.693086 160.408582 215.244574 157.315725 212.151717 C 154.222868 209.187729 151.903225 205.579395 150.227927 201.584455 C 148.55263 197.589514 147.779415 193.336836 147.779415 189.084157 C 147.779415 184.70261 148.55263 180.5788 150.227927 176.45499 C 151.903225 172.46005 154.222868 168.980586 157.315725 165.887728 C 160.408582 162.794871 163.888047 160.475228 167.882987 158.799931 C 172.006797 157.124633 176.130606 156.351419 180.512154 156.351419 C 184.764832 156.351419 189.017511 157.124633 193.012452 158.799931 C 197.007392 160.475228 200.615726 162.794871 203.579714 165.887728 C 206.672571 168.980586 209.121083 172.46005 210.79638 176.45499 C 212.342809 180.5788 213.244892 184.70261 213.244892 189.084157 Z M 213.244892 189.084157 " stroke="#000000" stroke-width="3" stroke-opacity="1" stroke-miterlimit="10"/></g><g clip-path="url(#5beddf9af2)"><path fill="#fea17e" d="M 274.929688 62.085938 C 276.796875 57.316406 276.769531 54.355469 278.671875 49.671875 C 279.667969 47.230469 281.042969 43.046875 281.867188 40.542969 C 282.695312 38.046875 282.25 34.714844 281.089844 32.351562 C 280.207031 30.542969 278.570312 29.1875 276.796875 28.242188 C 275.484375 27.546875 274.074219 27.035156 272.660156 26.589844 C 271.210938 26.136719 270.488281 25.003906 269.148438 25.71875 C 267.019531 23.203125 263.992188 21.429688 261.863281 18.917969 C 261.417969 18.398438 260.890625 17.820312 260.203125 17.820312 C 259.253906 17.8125 258.660156 18.890625 258.621094 19.835938 C 258.5 22.664062 261.214844 24.679688 262.785156 27.042969 C 264.976562 30.328125 264.921875 34.949219 262.644531 38.175781 C 262.402344 38.519531 262.117188 38.863281 261.707031 38.964844 C 261.335938 39.058594 260.945312 38.910156 260.601562 38.734375 C 258.984375 37.871094 258 36.136719 257.5625 34.363281 C 257.359375 33.527344 257.238281 32.636719 256.78125 31.90625 C 256.316406 31.171875 255.371094 30.652344 254.582031 31.015625 C 253.929688 31.320312 253.652344 32.082031 253.492188 32.785156 C 252.851562 35.625 253.1875 38.667969 254.414062 41.3125 C 255.527344 43.707031 257.347656 45.777344 257.988281 48.335938 C 258.707031 51.183594 257.839844 54.164062 256.988281 56.972656 C 256.988281 56.957031 272.449219 68.421875 274.929688 62.085938 Z M 274.929688 62.085938 " fill-opacity="1" fill-rule="nonzero"/></g><path fill="#160512" d="M 197.4375 39.1875 C 193.015625 32.636719 186.242188 27.554688 178.523438 25.78125 C 174.433594 24.84375 170.195312 24.828125 166.015625 25.066406 C 159.121094 25.46875 152.191406 26.570312 145.84375 29.269531 C 128.777344 36.527344 111.375 53.152344 119.066406 75.410156 C 119.894531 77.792969 121.566406 79.789062 122.8125 81.976562 C 124.78125 85.417969 126.816406 88.960938 129.9375 91.410156 C 132.222656 93.210938 134.972656 94.324219 137.75 95.207031 C 145.453125 97.628906 153.84375 98.316406 161.621094 96.164062 C 165.320312 95.140625 168.8125 93.507812 172.289062 91.875 C 177.359375 89.5 182.507812 87.078125 186.761719 83.433594 C 189.867188 80.78125 192.410156 77.542969 194.835938 74.257812 C 198.070312 69.878906 204.519531 63.523438 203.988281 57.882812 C 203.355469 51.285156 201.164062 44.707031 197.4375 39.1875 Z M 197.4375 39.1875 " fill-opacity="1" fill-rule="nonzero"/><path fill="#fea17e" d="M 133.683594 350.3125 C 133.550781 352.722656 133.429688 355.128906 133.339844 357.492188 C 133.339844 357.492188 118.535156 362.550781 115.394531 368.578125 C 114.699219 369.914062 115.890625 371.484375 117.609375 371.59375 L 154.773438 373.941406 C 154.773438 373.941406 156.230469 365.703125 158.546875 353.996094 C 150.351562 352.121094 142.015625 350.839844 133.683594 350.3125 Z M 133.683594 350.3125 " fill-opacity="1" fill-rule="nonzero"/><path fill="#264899" d="M 158.136719 355.988281 C 167.875 322.203125 171.953125 299.257812 177.972656 279.3125 L 140.816406 272.410156 C 140.816406 272.410156 135.566406 315.476562 133.578125 352.398438 C 141.914062 352.9375 149.949219 354.125 158.136719 355.988281 Z M 158.136719 355.988281 " fill-opacity="1" fill-rule="nonzero"/><path fill="#160512" d="M 129.203125 358.847656 C 130.058594 358.625 131.292969 359.515625 132.113281 359.859375 C 135.429688 361.289062 139.035156 364.183594 140.917969 366.945312 C 146.503906 365.535156 153.269531 363.070312 157.894531 360.082031 L 155.480469 372.671875 C 155.347656 373.738281 154.28125 374.5 153.035156 374.414062 L 116.921875 371.976562 C 115.117188 371.855469 113.984375 370.203125 114.726562 368.800781 C 116.335938 365.796875 120.179688 361.222656 129.203125 358.847656 Z M 129.203125 358.847656 " fill-opacity="1" fill-rule="nonzero"/><path fill="#fea17e" d="M 227.503906 351.351562 C 227.328125 353.761719 227.144531 356.15625 226.949219 358.523438 C 226.949219 358.523438 241.851562 365.332031 244.378906 371.695312 C 244.9375 373.105469 243.488281 374.515625 241.675781 374.414062 L 202.324219 372.246094 C 202.324219 372.246094 201.851562 363.894531 200.933594 351.980469 C 209.757812 351.121094 218.667969 350.867188 227.503906 351.351562 Z M 227.503906 351.351562 " fill-opacity="1" fill-rule="nonzero"/><path fill="#264899" d="M 201.082031 354.023438 C 199.214844 329.847656 193.425781 282.105469 188.164062 268.667969 L 230.042969 273.160156 C 230.042969 273.160156 230.015625 316.542969 227.347656 353.4375 C 218.519531 352.964844 209.90625 353.167969 201.082031 354.023438 Z M 201.082031 354.023438 " fill-opacity="1" fill-rule="nonzero"/><path fill="#160512" d="M 231.109375 360.371094 C 230.246094 360.042969 228.824219 360.777344 227.921875 361.027344 C 224.253906 362.039062 220.089844 364.480469 217.757812 366.992188 C 212.074219 364.914062 205.28125 361.648438 200.800781 358.125 L 201.722656 370.917969 C 201.722656 371.984375 202.753906 372.875 204.0625 372.941406 L 242.324219 374.898438 C 244.238281 375 245.640625 373.496094 245.039062 372.023438 C 243.746094 368.820312 240.289062 363.820312 231.109375 360.371094 Z M 231.109375 360.371094 " fill-opacity="1" fill-rule="nonzero"/><path fill="#e5edf5" d="M 279.222656 61.195312 C 267.214844 58.21875 265.953125 60.386719 255.695312 54.089844 C 256.039062 54.300781 245.039062 71.121094 243.867188 72.671875 C 235.894531 83.257812 224.652344 89.613281 213.289062 95.96875 C 197.363281 104.863281 179.246094 109.6875 162.457031 116.675781 C 146.003906 123.523438 130.914062 133.976562 118.789062 147.023438 C 110.789062 155.632812 103.625 165.390625 99.0625 176.273438 C 94.957031 186.070312 92.566406 198.464844 97.917969 208.410156 C 103.484375 218.746094 118.164062 225.769531 129.492188 221.34375 C 130.828125 220.824219 135.6875 218.199219 135.835938 216.707031 C 133.542969 238.953125 128.285156 259.53125 121.808594 280.933594 C 144.914062 291.4375 170.375 293.636719 194.734375 286.511719 C 196.238281 282.019531 198.675781 275.015625 200.179688 270.523438 C 201.128906 276.136719 201.816406 281.34375 202.984375 286.917969 C 220.851562 285.675781 240.78125 279.320312 255.761719 269.503906 C 251.765625 225.019531 253.734375 194.867188 238.265625 149.621094 C 259.199219 121.332031 270.191406 92.582031 279.222656 61.195312 Z M 279.222656 61.195312 " fill-opacity="1" fill-rule="nonzero"/><path fill="#fa7444" d="M 210.054688 67.792969 C 209.859375 67.792969 209.675781 67.746094 209.5 67.652344 C 208.921875 67.347656 208.710938 66.621094 209.015625 66.046875 C 209.871094 64.46875 209.675781 62.402344 208.558594 61 C 208.152344 60.488281 208.234375 59.746094 208.746094 59.339844 C 209.257812 58.929688 210 59.015625 210.410156 59.523438 C 212.109375 61.640625 212.398438 64.785156 211.105469 67.179688 C 210.882812 67.570312 210.472656 67.792969 210.054688 67.792969 Z M 210.054688 67.792969 " fill-opacity="1" fill-rule="nonzero"/><path fill="#fa7444" d="M 165.691406 112.574219 C 172.378906 110.644531 177.480469 107.472656 184.429688 107.90625 C 187.664062 121.378906 190.421875 131.230469 190.097656 147.105469 C 190.097656 147.105469 168.804688 114.550781 165.691406 112.574219 Z M 165.691406 112.574219 " fill-opacity="1" fill-rule="nonzero"/><path fill="#fea17e" d="M 163.171875 119.542969 C 157.652344 119.1875 154.226562 117.230469 149.199219 114.632812 C 147.238281 113.621094 145.359375 112.460938 143.578125 111.171875 C 139.601562 108.277344 136.496094 104.132812 133.933594 99.929688 C 130.078125 101.90625 125.070312 101.003906 121.855469 98.109375 C 118.640625 95.214844 117.207031 90.605469 117.792969 86.320312 C 118.035156 84.574219 118.609375 82.820312 119.808594 81.53125 C 121.289062 79.953125 123.601562 79.269531 125.738281 79.621094 C 127.875 79.972656 129.957031 81.449219 131.21875 83.210938 C 131.351562 80.5 129.796875 77.859375 130.234375 75.175781 C 130.585938 73.003906 126.554688 64.515625 128.460938 63.429688 C 130.375 62.34375 135.464844 60.710938 137.613281 60.257812 C 148.242188 57.984375 156.128906 54.515625 165.382812 48.820312 C 171.496094 45.0625 183.558594 48.625 184.246094 41.488281 C 191.34375 45.089844 198.152344 54.402344 199.410156 62.261719 C 199.957031 61.871094 200.253906 61.007812 200.496094 60.378906 C 201.441406 57.921875 204.871094 56.351562 207.269531 55.757812 C 210.546875 54.941406 213.6875 57.113281 215.035156 60.035156 C 216.320312 62.800781 216.246094 65.992188 215.9375 69.023438 C 215.707031 71.242188 215.304688 73.570312 213.835938 75.242188 C 212.164062 77.144531 209.191406 77.773438 206.886719 76.699219 C 207.59375 79.816406 207.175781 83.886719 206.375 86.988281 C 203.550781 97.914062 198.273438 108.074219 188.445312 113.910156 C 181.738281 117.882812 170.699219 120.023438 163.171875 119.542969 Z M 163.171875 119.542969 " fill-opacity="1" fill-rule="nonzero"/><path fill="#160512" d="M 159.390625 85.828125 C 159.558594 86.894531 159.464844 87.960938 159.09375 88.675781 C 158.40625 89.984375 156.945312 90.140625 155.738281 89.574219 C 155.347656 89.390625 154.976562 89.167969 154.6875 88.859375 C 154.421875 88.5625 154.234375 88.210938 154.058594 87.859375 C 153.222656 86.214844 152.710938 83.136719 155.152344 82.191406 C 157.53125 81.261719 159.039062 83.554688 159.390625 85.828125 Z M 159.390625 85.828125 " fill-opacity="1" fill-rule="nonzero"/><path fill="#160512" d="M 187.617188 66.324219 C 187.199219 66.464844 186.726562 66.445312 186.296875 66.242188 C 185.722656 65.964844 185.027344 65.777344 184.179688 65.675781 C 183.15625 65.546875 182.238281 65.574219 181.4375 65.757812 C 179.8125 66.140625 178.296875 67.253906 176.839844 68.320312 C 176.050781 68.90625 174.933594 68.726562 174.351562 67.941406 C 173.765625 67.152344 173.941406 66.039062 174.730469 65.453125 C 176.394531 64.230469 178.28125 62.847656 180.628906 62.289062 C 181.839844 62.011719 183.1875 61.957031 184.625 62.140625 C 185.851562 62.300781 186.902344 62.585938 187.820312 63.023438 C 188.714844 63.441406 189.085938 64.507812 188.667969 65.386719 C 188.445312 65.863281 188.054688 66.175781 187.617188 66.324219 Z M 187.617188 66.324219 " fill-opacity="1" fill-rule="nonzero"/><path fill="#160512" d="M 143.707031 81.039062 C 143.613281 81.011719 143.519531 80.976562 143.4375 80.917969 C 142.5625 80.464844 142.238281 79.386719 142.695312 78.515625 C 143.167969 77.605469 143.835938 76.753906 144.730469 75.898438 C 145.769531 74.886719 146.875 74.128906 148.019531 73.625 C 150.21875 72.660156 152.570312 72.644531 154.644531 72.625 C 155.628906 72.617188 156.425781 73.402344 156.4375 74.386719 C 156.445312 75.371094 155.65625 76.167969 154.671875 76.179688 C 152.859375 76.195312 150.980469 76.207031 149.449219 76.882812 C 148.695312 77.207031 147.945312 77.738281 147.199219 78.453125 C 146.585938 79.046875 146.140625 79.609375 145.84375 80.175781 C 145.425781 80.964844 144.515625 81.308594 143.707031 81.039062 Z M 143.707031 81.039062 " fill-opacity="1" fill-rule="nonzero"/><path fill="#fa7444" d="M 197.253906 79.675781 C 198.359375 80.128906 199.453125 80.863281 199.835938 81.996094 C 200.207031 83.089844 199.808594 84.34375 199.074219 85.234375 C 198.332031 86.125 197.289062 86.71875 196.238281 87.210938 C 193.972656 88.265625 191.539062 88.972656 189.058594 89.269531 C 187.71875 89.425781 186.167969 89.40625 185.257812 88.40625 C 184.617188 87.710938 184.457031 86.691406 184.550781 85.753906 C 185.089844 79.972656 192.550781 77.753906 197.253906 79.675781 Z M 197.253906 79.675781 " fill-opacity="1" fill-rule="nonzero"/><path fill="#fa7444" d="M 145.175781 95.96875 C 144.5625 96.988281 144.125 98.230469 144.496094 99.371094 C 144.859375 100.476562 145.925781 101.238281 147.050781 101.507812 C 148.183594 101.773438 149.367188 101.625 150.507812 101.386719 C 152.960938 100.875 155.320312 99.976562 157.496094 98.730469 C 158.667969 98.054688 159.890625 97.109375 160.023438 95.761719 C 160.117188 94.828125 159.632812 93.917969 158.992188 93.210938 C 155.089844 88.925781 147.785156 91.617188 145.175781 95.96875 Z M 145.175781 95.96875 " fill-opacity="1" fill-rule="nonzero"/><path fill="#160512" d="M 186.566406 76.789062 C 186.734375 77.859375 186.640625 78.925781 186.269531 79.640625 C 185.582031 80.945312 184.125 81.105469 182.917969 80.539062 C 182.527344 80.351562 182.15625 80.128906 181.867188 79.824219 C 181.597656 79.527344 181.410156 79.175781 181.234375 78.824219 C 180.398438 77.179688 179.886719 74.101562 182.332031 73.152344 C 184.71875 72.214844 186.214844 74.515625 186.566406 76.789062 Z M 186.566406 76.789062 " fill-opacity="1" fill-rule="nonzero"/><path fill="#fa7444" d="M 175.351562 89.40625 C 175.863281 90.046875 176.003906 90.984375 175.605469 91.699219 C 175.242188 92.359375 174.507812 92.730469 173.800781 93 C 173.019531 93.296875 172.222656 93.519531 171.40625 93.675781 C 170.71875 93.804688 169.992188 93.871094 169.332031 93.65625 C 168.664062 93.445312 168.070312 92.886719 168.003906 92.191406 C 167.707031 88.878906 173.402344 86.96875 175.351562 89.40625 Z M 175.351562 89.40625 " fill-opacity="1" fill-rule="nonzero"/><path fill="#fa7444" d="M 129.789062 95.597656 C 129.5 95.597656 129.222656 95.496094 128.988281 95.289062 C 126.621094 93.15625 125.488281 89.75 126.109375 86.625 C 126.238281 85.984375 126.863281 85.558594 127.503906 85.695312 C 128.144531 85.828125 128.5625 86.449219 128.433594 87.089844 C 127.96875 89.417969 128.8125 91.949219 130.570312 93.535156 C 131.050781 93.972656 131.089844 94.722656 130.652344 95.207031 C 130.4375 95.464844 130.113281 95.597656 129.789062 95.597656 Z M 129.789062 95.597656 " fill-opacity="1" fill-rule="nonzero"/><path fill="#fa7444" d="M 209.164062 71.085938 C 209.40625 70.945312 209.609375 70.714844 209.703125 70.425781 C 210.699219 67.390625 209.980469 63.886719 207.882812 61.484375 C 207.453125 60.992188 206.703125 60.933594 206.210938 61.371094 C 205.71875 61.796875 205.660156 62.550781 206.097656 63.042969 C 207.660156 64.832031 208.1875 67.4375 207.453125 69.703125 C 207.25 70.324219 207.59375 70.992188 208.214844 71.195312 C 208.53125 71.296875 208.875 71.25 209.164062 71.085938 Z M 209.164062 71.085938 " fill-opacity="1" fill-rule="nonzero"/><path fill="#160512" d="M 132.25 83.609375 C 132.6875 77.421875 131.785156 71.140625 129.613281 65.332031 C 134.398438 65.324219 139.925781 64.953125 142.722656 61.074219 C 143.222656 60.378906 143.640625 59.570312 144.402344 59.191406 C 145 58.894531 145.703125 58.914062 146.375 58.941406 C 149.941406 59.078125 153.574219 59.078125 157.023438 58.113281 C 160.460938 57.148438 163.730469 55.109375 165.46875 51.980469 C 165.738281 51.5 165.988281 50.980469 166.441406 50.664062 C 166.964844 50.3125 167.640625 50.3125 168.273438 50.304688 C 174.65625 50.273438 181.019531 48.597656 186.597656 45.488281 C 187.476562 47.984375 189.542969 50.035156 192.039062 50.914062 C 193.351562 51.378906 194.921875 51.628906 195.65625 52.808594 C 196.082031 53.484375 196.121094 54.320312 196.210938 55.117188 C 196.539062 57.984375 197.644531 60.75 199.378906 63.050781 C 200.597656 56.890625 199.046875 49.96875 195.988281 44.476562 C 195.050781 42.796875 193.917969 41.203125 192.421875 39.988281 C 189.855469 37.910156 186.429688 37.136719 183.121094 37.230469 C 179.8125 37.324219 176.597656 38.207031 173.421875 39.125 C 158.3125 43.492188 143.445312 48.820312 129.398438 55.859375 C 127.140625 56.992188 124.855469 58.207031 123.210938 60.128906 C 121.566406 62.039062 120.691406 64.824219 121.675781 67.140625 C 122.394531 68.8125 123.917969 69.980469 125.050781 71.398438 C 128.042969 75.148438 128.265625 80.945312 132.25 83.609375 Z M 132.25 83.609375 " fill-opacity="1" fill-rule="nonzero"/><path fill="#160512" d="M 200.886719 268 C 200.875 268 200.859375 268 200.847656 268 C 200.335938 267.984375 199.949219 267.554688 199.964844 267.046875 L 200.171875 262.210938 C 201.667969 226.894531 203.535156 182.945312 189.242188 147.457031 C 189.058594 146.984375 189.28125 146.457031 189.753906 146.261719 C 190.230469 146.074219 190.757812 146.296875 190.953125 146.769531 C 205.390625 182.621094 203.515625 226.800781 202.011719 262.285156 L 201.804688 267.121094 C 201.785156 267.613281 201.378906 268 200.886719 268 Z M 200.886719 268 " fill-opacity="1" fill-rule="nonzero"/><path fill="#264899" d="M 200.246094 201.992188 C 199.019531 213.578125 188.621094 221.992188 177.015625 220.769531 C 165.410156 219.542969 156.992188 209.164062 158.210938 197.566406 C 158.785156 192.066406 161.453125 187.269531 165.335938 183.882812 L 151.585938 154.695312 L 147.515625 156.707031 L 146.226562 153.914062 L 162.417969 146.085938 C 162.773438 146.800781 163.285156 147.808594 163.628906 148.523438 L 160.105469 150.289062 L 173.988281 179.328125 C 176.355469 178.722656 178.855469 178.519531 181.429688 178.789062 C 193.054688 180.023438 201.472656 190.414062 200.246094 201.992188 Z M 200.246094 201.992188 " fill-opacity="1" fill-rule="nonzero"/><path fill="#fa7444" d="M 193.453125 188.855469 C 188.546875 190.253906 185.257812 195.507812 183.046875 199.46875 C 181.199219 202.351562 173.800781 199.265625 171.191406 202.074219 C 167.957031 204.691406 167.714844 208.976562 164.445312 209.441406 C 167.25 213.949219 172.035156 217.167969 177.730469 217.761719 C 187.523438 218.792969 196.304688 211.695312 197.335938 201.917969 C 197.839844 197.039062 196.324219 192.398438 193.453125 188.855469 Z M 193.453125 188.855469 " fill-opacity="1" fill-rule="nonzero"/><path fill="#fea17e" d="M 152.246094 186.070312 C 153.378906 184.464844 154.34375 182.042969 155.488281 180.441406 C 156.027344 179.679688 156.585938 178.898438 157.347656 178.398438 C 158.183594 177.84375 159.175781 177.65625 160.125 177.378906 C 163.871094 176.273438 166.972656 173.601562 169.964844 170.996094 C 171.003906 170.085938 172.101562 169.09375 172.453125 167.730469 C 172.808594 166.367188 171.988281 164.59375 170.632812 164.585938 C 170.855469 163.648438 171.089844 162.664062 170.855469 161.734375 C 170.632812 160.800781 169.789062 159.953125 168.867188 160.113281 C 169.324219 158.136719 168.609375 156.613281 166.695312 156.214844 C 167.621094 155.398438 166.546875 152.828125 165.375 152.476562 C 164.203125 152.125 162.652344 152.792969 161.554688 153.347656 C 158.035156 155.148438 154.53125 157.144531 151.707031 159.992188 C 150.480469 161.226562 149.394531 162.609375 148.316406 163.992188 C 145.835938 167.164062 143.355469 170.328125 140.882812 173.5 C 145.453125 177.945312 148.277344 181.035156 152.246094 186.070312 Z M 152.246094 186.070312 " fill-opacity="1" fill-rule="nonzero"/><path fill="#160512" d="M 206.90625 180.941406 C 203.617188 180.941406 203.617188 186.042969 206.90625 186.042969 C 210.195312 186.042969 210.195312 180.941406 206.90625 180.941406 Z M 206.90625 180.941406 " fill-opacity="1" fill-rule="nonzero"/><path fill="#160512" d="M 211.589844 210.898438 C 208.300781 210.898438 208.300781 216 211.589844 216 C 214.878906 216 214.886719 210.898438 211.589844 210.898438 Z M 211.589844 210.898438 " fill-opacity="1" fill-rule="nonzero"/><path fill="#160512" d="M 211.28125 244.59375 C 207.992188 244.59375 207.992188 249.695312 211.28125 249.695312 C 214.570312 249.695312 214.570312 244.59375 211.28125 244.59375 Z M 211.28125 244.59375 " fill-opacity="1" fill-rule="nonzero"/><path fill="#160512" d="M 191.53125 174.855469 C 191.25 174.855469 190.972656 174.726562 190.785156 174.484375 L 173.894531 151.6875 C 173.503906 151.167969 173.03125 150.519531 172.882812 149.695312 C 172.742188 148.933594 172.917969 148.21875 173.058594 147.632812 L 174.5625 141.484375 L 168.488281 142.261719 C 168.03125 142.316406 167.605469 142.03125 167.484375 141.585938 C 165.792969 135.257812 163.570312 129.015625 160.90625 123.03125 C 160.699219 122.566406 160.90625 122.027344 161.371094 121.816406 C 161.835938 121.609375 162.375 121.816406 162.585938 122.277344 C 165.179688 128.105469 167.351562 134.183594 169.042969 140.332031 L 175.652344 139.488281 C 175.957031 139.453125 176.253906 139.5625 176.449219 139.785156 C 176.652344 140.007812 176.726562 140.324219 176.652344 140.609375 L 174.832031 148.0625 C 174.722656 148.515625 174.609375 148.980469 174.675781 149.351562 C 174.75 149.757812 175.054688 150.175781 175.363281 150.585938 L 192.253906 173.378906 C 192.550781 173.789062 192.46875 174.363281 192.058594 174.660156 C 191.910156 174.800781 191.714844 174.855469 191.53125 174.855469 Z M 191.53125 174.855469 " fill-opacity="1" fill-rule="nonzero"/><path fill="#160512" d="M 203.265625 171.238281 L 203.253906 171.238281 C 202.742188 171.226562 202.34375 170.808594 202.355469 170.308594 L 202.761719 141.957031 C 202.773438 141.457031 202.78125 140.925781 202.605469 140.554688 C 202.445312 140.210938 202.074219 139.898438 201.722656 139.601562 L 195.894531 134.609375 C 195.664062 134.414062 195.542969 134.117188 195.582031 133.8125 C 195.609375 133.515625 195.792969 133.246094 196.054688 133.097656 L 201.917969 129.933594 C 199.695312 123.9375 197.921875 117.742188 196.621094 111.507812 C 196.519531 111.007812 196.835938 110.523438 197.335938 110.421875 C 197.828125 110.320312 198.320312 110.636719 198.421875 111.136719 C 199.753906 117.546875 201.601562 123.910156 203.914062 130.042969 C 204.074219 130.46875 203.894531 130.953125 203.488281 131.175781 L 198.097656 134.078125 L 202.910156 138.199219 C 203.367188 138.589844 203.925781 139.070312 204.257812 139.765625 C 204.621094 140.527344 204.601562 141.335938 204.59375 141.984375 L 204.183594 170.335938 C 204.183594 170.835938 203.765625 171.238281 203.265625 171.238281 Z M 203.265625 171.238281 " fill-opacity="1" fill-rule="nonzero"/><path fill="#160512" d="M 135.195312 217.632812 C 134.992188 217.632812 134.789062 217.570312 134.621094 217.429688 C 134.21875 217.113281 134.164062 216.53125 134.480469 216.140625 C 141.738281 207.148438 148.621094 198.234375 153.183594 188.074219 C 149.605469 182.238281 144.820312 177.054688 138.960938 172.628906 C 131.007812 178.816406 122.765625 184.847656 114.476562 190.582031 C 113.175781 191.480469 111.402344 192.703125 109.339844 192.769531 C 108.835938 192.777344 108.410156 192.390625 108.390625 191.878906 C 108.371094 191.367188 108.773438 190.953125 109.28125 190.933594 C 110.6875 190.886719 111.996094 190.0625 113.4375 189.066406 C 121.890625 183.222656 130.289062 177.0625 138.390625 170.746094 C 138.71875 170.496094 139.171875 170.484375 139.507812 170.726562 C 145.957031 175.476562 151.175781 181.125 155.015625 187.519531 C 155.171875 187.777344 155.191406 188.085938 155.070312 188.363281 C 150.425781 198.910156 143.363281 208.058594 135.921875 217.273438 C 135.734375 217.523438 135.464844 217.632812 135.195312 217.632812 Z M 135.195312 217.632812 " fill-opacity="1" fill-rule="nonzero"/><path fill="#160512" d="M 270.726562 39.382812 C 269.910156 39.382812 269.234375 38.890625 268.917969 38.667969 C 268.089844 38.074219 267.523438 37.109375 267.308594 35.933594 C 267.140625 35.011719 267.199219 34.121094 267.289062 33.148438 C 267.550781 30.300781 267.859375 27.960938 268.277344 25.773438 C 268.367188 25.273438 268.84375 24.949219 269.351562 25.039062 C 269.855469 25.132812 270.179688 25.617188 270.085938 26.117188 C 269.6875 28.242188 269.382812 30.53125 269.128906 33.316406 C 269.054688 34.160156 269 34.910156 269.128906 35.605469 C 269.25 36.304688 269.578125 36.867188 270.003906 37.175781 C 270.671875 37.65625 270.792969 37.566406 270.921875 37.460938 C 271.332031 37.15625 271.910156 37.238281 272.214844 37.648438 C 272.523438 38.058594 272.4375 38.632812 272.027344 38.9375 C 271.574219 39.261719 271.136719 39.382812 270.726562 39.382812 Z M 270.726562 39.382812 " fill-opacity="1" fill-rule="nonzero"/><path fill="#160512" d="M 272.53125 40.347656 C 271.609375 40.347656 270.785156 39.605469 270.578125 38.605469 C 270.429688 37.851562 270.636719 37.136719 270.785156 36.617188 C 271.628906 33.667969 272.585938 30.699219 273.636719 27.8125 C 273.8125 27.339844 274.332031 27.089844 274.816406 27.265625 C 275.289062 27.441406 275.542969 27.960938 275.363281 28.445312 C 274.324219 31.292969 273.375 34.214844 272.550781 37.128906 C 272.417969 37.582031 272.328125 37.964844 272.382812 38.25 C 272.410156 38.390625 272.503906 38.503906 272.550781 38.519531 C 272.558594 38.519531 272.558594 38.519531 272.566406 38.519531 C 273.070312 38.519531 273.460938 38.917969 273.46875 39.421875 C 273.480469 39.929688 273.0625 40.347656 272.550781 40.359375 C 272.550781 40.347656 272.539062 40.347656 272.53125 40.347656 Z M 272.53125 40.347656 " fill-opacity="1" fill-rule="nonzero"/><path fill="#160512" d="M 275.570312 42.789062 C 275.449219 42.789062 275.335938 42.777344 275.214844 42.769531 C 274.046875 42.628906 273.078125 41.75 272.929688 40.664062 C 272.855469 40.097656 272.996094 39.578125 273.136719 39.140625 C 273.703125 37.378906 274.492188 35.699219 275.261719 34.078125 C 275.886719 32.757812 276.527344 31.394531 277.027344 30.023438 C 277.203125 29.550781 277.734375 29.296875 278.207031 29.476562 C 278.683594 29.652344 278.933594 30.171875 278.757812 30.652344 C 278.226562 32.101562 277.566406 33.511719 276.925781 34.863281 C 276.183594 36.433594 275.421875 38.058594 274.890625 39.707031 C 274.808594 39.96875 274.734375 40.226562 274.761719 40.414062 C 274.796875 40.664062 275.105469 40.914062 275.4375 40.953125 C 275.828125 40.996094 276.304688 40.832031 276.738281 40.488281 C 277.203125 40.117188 277.605469 39.578125 277.984375 39.066406 C 278.292969 38.660156 278.859375 38.578125 279.265625 38.875 C 279.675781 39.171875 279.757812 39.746094 279.460938 40.152344 C 279.035156 40.738281 278.542969 41.398438 277.882812 41.925781 C 277.15625 42.480469 276.351562 42.789062 275.570312 42.789062 Z M 275.570312 42.789062 " fill-opacity="1" fill-rule="nonzero"/><path fill="#e5edf5" d="M 265.878906 40.960938 C 264.085938 42.007812 261.789062 41.414062 260.730469 39.632812 L 239.621094 3.804688 L 246.097656 0 L 267.207031 35.820312 C 268.265625 37.609375 267.664062 39.914062 265.878906 40.960938 Z M 265.878906 40.960938 " fill-opacity="1" fill-rule="nonzero"/><path fill="#fa7444" d="M 265.238281 39.875 C 264.046875 40.570312 262.515625 40.171875 261.816406 38.992188 L 251.941406 22.246094 L 256.242188 19.714844 L 266.121094 36.460938 C 266.824219 37.648438 266.425781 39.179688 265.238281 39.875 Z M 265.238281 39.875 " fill-opacity="1" fill-rule="nonzero"/><path fill="#e5edf5" d="M 182.683594 91.050781 L 162.976562 98.816406 C 162.996094 98.804688 165.949219 103.789062 166.285156 104.234375 C 167.429688 105.78125 168.859375 107.265625 170.503906 108.296875 C 172.09375 109.289062 173.941406 109.597656 175.78125 109.316406 C 178.269531 108.945312 180.742188 108.066406 182.617188 106.347656 C 184.683594 104.457031 185.351562 101.515625 185.101562 98.796875 C 184.839844 95.910156 183.84375 93.703125 182.683594 91.050781 Z M 182.683594 91.050781 " fill-opacity="1" fill-rule="nonzero"/></svg>