<svg xmlns="http://www.w3.org/2000/svg" xmlns:xlink="http://www.w3.org/1999/xlink" width="500" zoomAndPan="magnify" viewBox="0 0 375 374.999991" height="500" preserveAspectRatio="xMidYMid meet" version="1.0"><path fill="#349370" d="M 164.261719 207.441406 C 164.261719 207.472656 164.261719 207.472656 164.261719 207.472656 C 162.519531 208.921875 160.632812 210.25 158.507812 211.433594 C 157.328125 212.082031 156.117188 212.671875 154.9375 213.144531 C 150.632812 198.3125 141.339844 185.992188 127.089844 176.183594 C 123.226562 173.496094 123.757812 167.734375 128.035156 165.84375 C 132.902344 163.714844 139.65625 162.652344 147.476562 166.640625 C 163.226562 174.707031 164.230469 206.230469 164.261719 207.441406 Z M 164.261719 207.441406 " fill-opacity="1" fill-rule="nonzero"/><path fill="#e15c63" d="M 206.152344 348.136719 C 206.296875 351.625 203.613281 354.609375 200.101562 354.757812 C 168.773438 356.144531 146.355469 342.4375 133.460938 313.984375 C 132.046875 310.792969 133.460938 307.011719 136.648438 305.5625 C 137.355469 305.238281 138.152344 305.03125 138.949219 305 C 141.574219 304.882812 143.964844 306.332031 145.054688 308.722656 C 155.734375 332.300781 173.554688 343.203125 199.542969 342.050781 C 201.222656 341.992188 202.847656 342.554688 204.113281 343.707031 C 205.355469 344.859375 206.089844 346.425781 206.152344 348.136719 Z M 206.152344 348.136719 " fill-opacity="1" fill-rule="nonzero"/><path fill="#ae2c36" d="M 267.453125 209.15625 C 271.640625 216.367188 275.503906 224.84375 278.984375 234.800781 C 297.835938 288.691406 275.59375 331.917969 258.957031 339.660156 C 252.378906 342.730469 246.300781 343.320312 241.402344 342.96875 C 234.941406 342.464844 228.511719 346.011719 225.472656 351.742188 C 223.203125 356.113281 219.453125 360.929688 213.320312 364.890625 C 197.949219 374.847656 149.570312 370.679688 114.082031 325.980469 C 76.617188 278.796875 86.203125 245.734375 103.253906 228.566406 C 119.214844 212.554688 137.886719 220.207031 154.9375 213.144531 C 156.117188 212.671875 157.328125 212.082031 158.507812 211.433594 C 160.632812 210.25 162.519531 208.921875 164.261719 207.472656 C 164.261719 207.472656 164.261719 207.472656 164.261719 207.441406 C 177.359375 196.453125 181.636719 178.429688 202.433594 173.730469 C 209.777344 172.078125 218.039062 171.839844 226.535156 174.085938 C 240.578125 177.691406 255.238281 187.914062 267.453125 209.15625 Z M 200.101562 354.757812 C 203.613281 354.609375 206.296875 351.625 206.152344 348.136719 C 206.089844 346.425781 205.355469 344.859375 204.113281 343.707031 C 202.847656 342.554688 201.222656 341.992188 199.542969 342.050781 C 173.554688 343.203125 155.734375 332.300781 145.054688 308.722656 C 143.964844 306.332031 141.574219 304.882812 138.949219 305 C 138.152344 305.03125 137.355469 305.238281 136.648438 305.5625 C 133.460938 307.011719 132.046875 310.792969 133.460938 313.984375 C 146.355469 342.4375 168.773438 356.144531 200.101562 354.757812 Z M 200.101562 354.757812 " fill-opacity="1" fill-rule="nonzero"/><path fill="#ffc05a" d="M 88.210938 216.101562 C 86.578125 216.101562 85.257812 214.777344 85.257812 213.144531 L 85.257812 56.527344 C 85.257812 54.894531 86.578125 53.570312 88.210938 53.570312 C 89.839844 53.570312 91.160156 54.894531 91.160156 56.527344 L 91.160156 213.144531 C 91.160156 214.777344 89.839844 216.101562 88.210938 216.101562 Z M 88.210938 216.101562 " fill-opacity="1" fill-rule="nonzero"/><path fill="#ffc05a" d="M 88.210938 32.742188 C 86.578125 32.742188 85.257812 31.417969 85.257812 29.789062 L 85.257812 2.988281 C 85.257812 1.359375 86.578125 0.0351562 88.210938 0.0351562 C 89.839844 0.0351562 91.160156 1.359375 91.160156 2.988281 L 91.160156 29.789062 C 91.160156 31.417969 89.839844 32.742188 88.210938 32.742188 Z M 88.210938 32.742188 " fill-opacity="1" fill-rule="nonzero"/><path fill="#ffc05a" d="M 129.421875 208.300781 C 127.789062 208.300781 126.472656 206.976562 126.472656 205.34375 L 126.472656 190.898438 C 126.472656 189.265625 127.789062 187.941406 129.421875 187.941406 C 131.050781 187.941406 132.371094 189.265625 132.371094 190.898438 L 132.371094 205.34375 C 132.371094 206.976562 131.050781 208.300781 129.421875 208.300781 Z M 129.421875 208.300781 " fill-opacity="1" fill-rule="nonzero"/><path fill="#ffc05a" d="M 129.421875 156.921875 C 127.789062 156.921875 126.472656 155.597656 126.472656 153.964844 L 126.472656 18.617188 C 126.472656 16.988281 127.789062 15.664062 129.421875 15.664062 C 131.050781 15.664062 132.371094 16.988281 132.371094 18.617188 L 132.371094 153.964844 C 132.371094 155.597656 131.050781 156.921875 129.421875 156.921875 Z M 129.421875 156.921875 " fill-opacity="1" fill-rule="nonzero"/><path fill="#ffc05a" d="M 183.316406 166.90625 C 181.6875 166.90625 180.367188 165.582031 180.367188 163.953125 L 180.367188 73.101562 C 180.367188 71.46875 181.6875 70.144531 183.316406 70.144531 C 184.949219 70.144531 186.265625 71.46875 186.265625 73.101562 L 186.265625 163.953125 C 186.265625 165.582031 184.949219 166.90625 183.316406 166.90625 Z M 183.316406 166.90625 " fill-opacity="1" fill-rule="nonzero"/><path fill="#ffc05a" d="M 183.316406 50.410156 C 181.6875 50.410156 180.367188 49.085938 180.367188 47.457031 L 180.367188 18.617188 C 180.367188 16.988281 181.6875 15.664062 183.316406 15.664062 C 184.949219 15.664062 186.265625 16.988281 186.265625 18.617188 L 186.265625 47.457031 C 186.265625 49.085938 184.949219 50.410156 183.316406 50.410156 Z M 183.316406 50.410156 " fill-opacity="1" fill-rule="nonzero"/><path fill="#ffc05a" d="M 226.535156 206.230469 C 224.902344 206.230469 223.585938 204.90625 223.585938 203.277344 L 223.585938 18.617188 C 223.585938 16.988281 224.902344 15.664062 226.535156 15.664062 C 228.167969 15.664062 229.484375 16.988281 229.484375 18.617188 L 229.484375 203.277344 C 229.484375 204.90625 228.164062 206.230469 226.535156 206.230469 Z M 226.535156 206.230469 " fill-opacity="1" fill-rule="nonzero"/><path fill="#ffc05a" d="M 267.453125 265.46875 C 265.820312 265.46875 264.5 264.144531 264.5 262.515625 L 264.5 76.203125 C 264.5 74.570312 265.820312 73.25 267.453125 73.25 C 269.082031 73.25 270.402344 74.570312 270.402344 76.203125 L 270.402344 262.515625 C 270.402344 264.144531 269.082031 265.46875 267.453125 265.46875 Z M 267.453125 265.46875 " fill-opacity="1" fill-rule="nonzero"/><path fill="#ffc05a" d="M 267.453125 59.480469 C 265.820312 59.480469 264.5 58.15625 264.5 56.527344 L 264.5 25.859375 C 264.5 24.226562 265.820312 22.902344 267.453125 22.902344 C 269.082031 22.902344 270.402344 24.226562 270.402344 25.859375 L 270.402344 56.527344 C 270.402344 58.15625 269.082031 59.480469 267.453125 59.480469 Z M 267.453125 59.480469 " fill-opacity="1" fill-rule="nonzero"/></svg>