<svg xmlns="http://www.w3.org/2000/svg" xmlns:xlink="http://www.w3.org/1999/xlink" width="500" zoomAndPan="magnify" viewBox="0 0 375 374.999991" height="500" preserveAspectRatio="xMidYMid meet" version="1.0"><defs><clipPath id="5f5b5de7f5"><path d="M 167.683594 12.441406 L 172.933594 12.441406 L 172.933594 18.441406 L 167.683594 18.441406 Z M 167.683594 12.441406 " clip-rule="nonzero"/></clipPath><clipPath id="5c2be40176"><path d="M 2 3.183594 L 370 3.183594 L 370 372.183594 L 2 372.183594 Z M 2 3.183594 " clip-rule="nonzero"/></clipPath></defs><g clip-path="url(#5f5b5de7f5)"><path fill="#000000" d="M 170.3125 12.441406 L 169.667969 14.707031 L 167.683594 15.105469 L 169.269531 16.167969 L 168.675781 18.441406 L 170.300781 16.390625 L 169.257812 17.425781 L 169.640625 15.960938 L 168.621094 15.277344 L 169.894531 15.023438 L 170.3125 13.566406 L 170.71875 14.871094 L 172.933594 14.132812 L 170.945312 14.46875 L 170.3125 12.441406 " fill-opacity="1" fill-rule="nonzero"/></g><path fill="#e72c7e" d="M 198.105469 21.28125 L 169.042969 40.484375 C 171.507812 47.46875 178.160156 52.488281 185.964844 52.488281 C 195.859375 52.488281 203.90625 44.421875 203.90625 34.507812 C 203.90625 29.285156 201.671875 24.574219 198.105469 21.28125 " fill-opacity="1" fill-rule="nonzero"/><path fill="#f24c8f" d="M 199.128906 27.261719 C 199.128906 25.164062 198.765625 23.152344 198.105469 21.28125 C 196.898438 20.171875 195.542969 19.226562 194.070312 18.476562 L 168.039062 35.265625 C 168.117188 37.085938 168.464844 38.839844 169.042969 40.484375 C 172.242188 43.433594 176.503906 45.238281 181.183594 45.238281 C 191.078125 45.238281 199.128906 37.171875 199.128906 27.261719 " fill-opacity="1" fill-rule="nonzero"/><path fill="#f46ea7" d="M 168.019531 34.507812 C 168.019531 34.761719 168.027344 35.015625 168.039062 35.265625 C 170.476562 36.507812 173.230469 37.214844 176.144531 37.214844 C 186.039062 37.214844 194.089844 29.148438 194.089844 19.234375 C 194.089844 18.980469 194.082031 18.730469 194.070312 18.476562 C 191.632812 17.234375 188.878906 16.53125 185.964844 16.53125 C 176.070312 16.53125 168.019531 24.59375 168.019531 34.507812 " fill-opacity="1" fill-rule="nonzero"/><path fill="#f6bd0e" d="M 351.339844 174.820312 L 322.28125 194.019531 C 324.742188 201.003906 331.398438 206.023438 339.199219 206.023438 C 349.09375 206.023438 357.144531 197.957031 357.144531 188.046875 C 357.144531 182.820312 354.90625 178.109375 351.339844 174.820312 " fill-opacity="1" fill-rule="nonzero"/><path fill="#f6ce14" d="M 352.363281 180.796875 C 352.363281 178.703125 352 176.691406 351.339844 174.820312 C 350.132812 173.710938 348.777344 172.761719 347.304688 172.011719 L 321.277344 188.804688 C 321.351562 190.625 321.699219 192.375 322.28125 194.019531 C 325.476562 196.96875 329.738281 198.777344 334.417969 198.777344 C 344.3125 198.777344 352.363281 190.707031 352.363281 180.796875 " fill-opacity="1" fill-rule="nonzero"/><path fill="#f5ea60" d="M 321.257812 188.046875 C 321.257812 188.296875 321.265625 188.550781 321.277344 188.804688 C 323.710938 190.046875 326.464844 190.75 329.382812 190.75 C 339.273438 190.75 347.324219 182.683594 347.324219 172.773438 C 347.324219 172.515625 347.316406 172.265625 347.304688 172.011719 C 344.867188 170.773438 342.117188 170.066406 339.199219 170.066406 C 329.304688 170.066406 321.257812 178.132812 321.257812 188.046875 " fill-opacity="1" fill-rule="nonzero"/><path fill="#f6bd0e" d="M 215.070312 164.089844 L 149.972656 199.226562 C 154.738281 214.601562 169.070312 225.800781 185.964844 225.800781 C 206.742188 225.800781 223.644531 208.863281 223.644531 188.046875 C 223.644531 178.957031 220.421875 170.613281 215.070312 164.089844 " fill-opacity="1" fill-rule="nonzero"/><path fill="#f6ce14" d="M 179.074219 213.027344 C 199.851562 213.027344 216.753906 196.089844 216.753906 175.273438 C 216.753906 171.382812 216.160156 167.625 215.070312 164.089844 C 212.734375 161.25 209.996094 158.757812 206.941406 156.699219 L 148.535156 192.351562 C 148.804688 194.714844 149.285156 197.015625 149.972656 199.226562 C 156.886719 207.648438 167.363281 213.027344 179.074219 213.027344 " fill-opacity="1" fill-rule="nonzero"/><path fill="#f5ea60" d="M 148.285156 188.046875 C 148.285156 189.503906 148.375 190.9375 148.535156 192.351562 C 154.535156 196.398438 161.753906 198.757812 169.511719 198.757812 C 190.289062 198.757812 207.191406 181.824219 207.191406 161.003906 C 207.191406 159.550781 207.105469 158.113281 206.941406 156.699219 C 200.941406 152.652344 193.722656 150.289062 185.964844 150.289062 C 165.1875 150.289062 148.285156 167.226562 148.285156 188.046875 " fill-opacity="1" fill-rule="nonzero"/><path fill="#e08641" d="M 112.695312 310.378906 L 83.632812 329.578125 C 86.097656 336.5625 92.75 341.582031 100.554688 341.582031 C 110.449219 341.582031 118.496094 333.515625 118.496094 323.601562 C 118.496094 318.378906 116.261719 313.667969 112.695312 310.378906 " fill-opacity="1" fill-rule="nonzero"/><path fill="#e6a064" d="M 113.71875 316.351562 C 113.71875 314.257812 113.355469 312.25 112.695312 310.378906 C 111.488281 309.269531 110.132812 308.320312 108.660156 307.570312 L 82.628906 324.363281 C 82.707031 326.183594 83.054688 327.933594 83.632812 329.578125 C 86.832031 332.527344 91.09375 334.332031 95.773438 334.332031 C 105.667969 334.332031 113.71875 326.269531 113.71875 316.351562 " fill-opacity="1" fill-rule="nonzero"/><path fill="#f6eab3" d="M 82.609375 323.601562 C 82.609375 323.855469 82.621094 324.109375 82.628906 324.363281 C 85.066406 325.601562 87.820312 326.308594 90.734375 326.308594 C 100.628906 326.308594 108.679688 318.242188 108.679688 308.328125 C 108.679688 308.074219 108.671875 307.824219 108.660156 307.570312 C 106.222656 306.328125 103.46875 305.625 100.554688 305.625 C 90.660156 305.625 82.609375 313.6875 82.609375 323.601562 " fill-opacity="1" fill-rule="nonzero"/><path fill="#3e3b9b" d="M 44.867188 174.820312 L 15.808594 194.019531 C 18.273438 201.003906 24.925781 206.023438 32.730469 206.023438 C 42.621094 206.023438 50.671875 197.957031 50.671875 188.046875 C 50.671875 182.820312 48.433594 178.109375 44.867188 174.820312 " fill-opacity="1" fill-rule="nonzero"/><path fill="#645ab2" d="M 45.890625 180.796875 C 45.890625 178.703125 45.53125 176.691406 44.867188 174.820312 C 43.664062 173.710938 42.304688 172.761719 40.832031 172.011719 L 14.804688 188.804688 C 14.878906 190.625 15.226562 192.375 15.808594 194.019531 C 19.003906 196.96875 23.269531 198.777344 27.949219 198.777344 C 37.84375 198.777344 45.890625 190.707031 45.890625 180.796875 " fill-opacity="1" fill-rule="nonzero"/><path fill="#857bc3" d="M 14.785156 188.046875 C 14.785156 188.296875 14.792969 188.550781 14.804688 188.804688 C 17.242188 190.046875 19.996094 190.75 22.910156 190.75 C 32.804688 190.75 40.851562 182.683594 40.851562 172.773438 C 40.851562 172.515625 40.84375 172.265625 40.832031 172.011719 C 38.398438 170.773438 35.644531 170.066406 32.730469 170.066406 C 22.835938 170.066406 14.785156 178.132812 14.785156 188.046875 " fill-opacity="1" fill-rule="nonzero"/><path fill="#100f0d" d="M 185.964844 161.078125 C 171.121094 161.078125 159.050781 173.171875 159.050781 188.046875 C 159.050781 202.917969 171.121094 215.011719 185.964844 215.011719 C 200.804688 215.011719 212.878906 202.917969 212.878906 188.046875 C 212.878906 173.171875 200.804688 161.078125 185.964844 161.078125 Z M 185.964844 225.800781 C 165.1875 225.800781 148.285156 208.863281 148.285156 188.046875 C 148.285156 167.226562 165.1875 150.289062 185.964844 150.289062 C 206.742188 150.289062 223.644531 167.226562 223.644531 188.046875 C 223.644531 208.863281 206.742188 225.800781 185.964844 225.800781 " fill-opacity="1" fill-rule="nonzero"/><path fill="#100f0d" d="M 185.964844 27.316406 C 182.003906 27.316406 178.785156 30.542969 178.785156 34.507812 C 178.785156 38.476562 182.003906 41.699219 185.964844 41.699219 C 189.921875 41.699219 193.140625 38.476562 193.140625 34.507812 C 193.140625 30.542969 189.921875 27.316406 185.964844 27.316406 Z M 185.964844 52.488281 C 176.070312 52.488281 168.019531 44.421875 168.019531 34.507812 C 168.019531 24.59375 176.070312 16.53125 185.964844 16.53125 C 195.859375 16.53125 203.90625 24.59375 203.90625 34.507812 C 203.90625 44.421875 195.859375 52.488281 185.964844 52.488281 " fill-opacity="1" fill-rule="nonzero"/><g clip-path="url(#5c2be40176)"><path fill="#100f0d" d="M 358.21875 234.363281 C 354.25 249.191406 332.53125 259.429688 298.632812 262.457031 C 290.078125 263.21875 280.992188 263.507812 271.484375 263.347656 C 270.675781 246.257812 268.546875 228.074219 265.160156 209.339844 C 277.445312 194.835938 288.367188 180.171875 297.605469 165.789062 C 306.695312 170.84375 315.054688 176.09375 322.503906 181.46875 C 321.703125 183.507812 321.257812 185.726562 321.257812 188.046875 C 321.257812 197.957031 329.304688 206.023438 339.199219 206.023438 C 342.191406 206.023438 345.015625 205.28125 347.496094 203.976562 C 354.582031 212.53125 361.050781 223.800781 358.21875 234.363281 Z M 232.054688 360.679688 C 230.414062 361.117188 228.707031 361.335938 226.9375 361.335938 C 209.113281 361.332031 185.316406 339.1875 163.558594 299.9375 C 171.054688 295.109375 178.667969 289.808594 186.324219 284.058594 C 188.699219 282.273438 189.183594 278.894531 187.402344 276.507812 C 185.621094 274.125 182.242188 273.640625 179.867188 275.429688 C 172.664062 280.835938 165.515625 285.835938 158.476562 290.386719 C 152.375 278.433594 146.496094 265.125 141.011719 250.570312 C 149.550781 253.375 158.277344 255.984375 167.128906 258.367188 C 199.824219 267.160156 232.0625 272.390625 261.132812 273.785156 C 261.910156 323.132812 250.261719 355.796875 232.054688 360.679688 Z M 115.222656 313.269531 C 111.972656 308.648438 106.609375 305.625 100.554688 305.625 C 91.46875 305.625 83.941406 312.429688 82.773438 321.21875 C 72.546875 321.699219 64.832031 319.402344 59.800781 314.359375 C 46.476562 300.996094 52.722656 266.859375 78.070312 224.523438 C 93.25 232.355469 110.082031 239.632812 127.945312 246.070312 C 134.34375 264.007812 141.566406 280.835938 149.386719 296.054688 C 137.457031 303.226562 125.953125 309.035156 115.222656 313.269531 Z M 100.554688 330.792969 C 96.59375 330.792969 93.375 327.570312 93.375 323.601562 C 93.375 319.636719 96.59375 316.410156 100.554688 316.410156 C 104.511719 316.410156 107.730469 319.636719 107.730469 323.601562 C 107.730469 327.570312 104.511719 330.792969 100.554688 330.792969 Z M 109.429688 180.328125 C 111.277344 189.105469 113.390625 197.96875 115.765625 206.859375 C 118.132812 215.71875 120.707031 224.421875 123.464844 232.914062 C 109.351562 227.527344 96.007812 221.621094 83.78125 215.347656 C 91.050781 204.089844 99.605469 192.347656 109.429688 180.328125 Z M 142.210938 144.171875 C 150.628906 135.746094 159.207031 127.746094 167.851562 120.242188 C 179.121094 122.421875 190.527344 125.054688 202.007812 128.144531 C 213.460938 131.222656 224.683594 134.6875 235.539062 138.464844 C 239.265625 149.289062 242.6875 160.5 245.761719 172.015625 C 248.902344 183.785156 251.523438 195.210938 253.65625 206.25 C 246.292969 214.730469 238.316406 223.308594 229.71875 231.917969 C 227.496094 234.140625 225.230469 236.363281 222.984375 238.53125 C 220.84375 240.597656 220.78125 244.011719 222.84375 246.15625 C 224.902344 248.304688 228.308594 248.367188 230.453125 246.304688 C 232.746094 244.09375 235.058594 241.820312 237.328125 239.546875 C 243.828125 233.039062 250.085938 226.425781 256.070312 219.757812 C 258.574219 235.105469 260.109375 249.578125 260.777344 262.984375 C 232.726562 261.566406 201.574219 256.457031 169.917969 247.945312 C 158.453125 244.867188 147.222656 241.394531 136.359375 237.617188 C 132.71875 227.003906 129.300781 215.816406 126.164062 204.074219 C 123.023438 192.304688 120.40625 180.878906 118.269531 169.839844 C 125.636719 161.359375 133.613281 152.78125 142.210938 144.171875 Z M 213.359375 85.738281 C 219.65625 98.058594 225.523438 111.386719 230.863281 125.503906 C 222.34375 122.703125 213.636719 120.101562 204.800781 117.722656 C 195.941406 115.339844 187.125 113.226562 178.375 111.371094 C 190.074219 101.808594 201.820312 93.207031 213.359375 85.738281 Z M 256.160156 169.230469 C 253.796875 160.363281 251.222656 151.664062 248.472656 143.175781 C 262.582031 148.566406 275.921875 154.46875 288.148438 160.742188 C 280.875 172 272.320312 183.746094 262.496094 195.761719 C 260.648438 186.984375 258.535156 178.125 256.160156 169.230469 Z M 246.503906 67.207031 C 277.378906 52.867188 301.296875 50.875 312.128906 61.730469 C 325.449219 75.09375 319.203125 109.230469 293.855469 151.566406 C 278.675781 143.734375 261.851562 136.457031 243.988281 130.019531 C 237.605469 112.121094 230.394531 95.3125 222.527344 80.015625 C 230.6875 75.125 238.707031 70.824219 246.503906 67.207031 Z M 339.199219 180.855469 C 343.160156 180.855469 346.378906 184.078125 346.378906 188.046875 C 346.378906 192.011719 343.160156 195.238281 339.199219 195.238281 C 335.242188 195.238281 332.023438 192.011719 332.023438 188.046875 C 332.023438 184.078125 335.242188 180.855469 339.199219 180.855469 Z M 32.730469 195.238281 C 28.769531 195.238281 25.550781 192.011719 25.550781 188.046875 C 25.550781 184.078125 28.769531 180.855469 32.730469 180.855469 C 36.6875 180.855469 39.90625 184.078125 39.90625 188.046875 C 39.90625 192.011719 36.6875 195.238281 32.730469 195.238281 Z M 355.125 196.308594 C 356.410156 193.835938 357.144531 191.027344 357.144531 188.046875 C 357.144531 178.132812 349.09375 170.066406 339.199219 170.066406 C 335.539062 170.066406 332.128906 171.171875 329.285156 173.070312 C 321.507812 167.425781 312.777344 161.917969 303.285156 156.621094 C 308.277344 148.261719 312.667969 140.03125 316.378906 132.023438 C 332.964844 96.238281 334.160156 68.566406 319.742188 54.109375 C 305.324219 39.652344 277.707031 40.828125 241.976562 57.417969 C 233.992188 61.125 225.78125 65.515625 217.441406 70.503906 C 215.863281 67.660156 214.257812 64.871094 212.628906 62.152344 C 211.101562 59.597656 207.796875 58.765625 205.246094 60.300781 C 202.695312 61.832031 201.867188 65.140625 203.398438 67.699219 C 205.046875 70.460938 206.675781 73.292969 208.285156 76.191406 C 193.914062 85.4375 179.261719 96.378906 164.765625 108.683594 C 153.410156 106.617188 142.195312 105 131.195312 103.863281 C 128.234375 103.558594 125.59375 105.714844 125.289062 108.679688 C 124.980469 111.640625 127.132812 114.289062 130.089844 114.59375 C 138.054688 115.417969 146.136719 116.5 154.3125 117.828125 C 147.667969 123.804688 141.082031 130.050781 134.601562 136.542969 C 128.101562 143.050781 121.84375 149.664062 115.855469 156.332031 C 103.023438 77.601562 115.648438 21.90625 139.871094 15.410156 C 144.320312 14.222656 149.246094 14.609375 154.507812 16.5625 C 157.292969 17.597656 160.390625 16.175781 161.425781 13.382812 C 162.460938 10.589844 161.039062 7.488281 158.253906 6.449219 C 150.855469 3.699219 143.738281 3.210938 137.089844 4.992188 C 117.382812 10.273438 104.589844 34.824219 101.066406 74.128906 C 98.648438 101.089844 100.667969 133.042969 106.769531 166.75 C 94.480469 181.253906 83.5625 195.917969 74.324219 210.300781 C 65.230469 205.25 56.875 199.996094 49.425781 194.621094 C 50.226562 192.582031 50.671875 190.367188 50.671875 188.046875 C 50.671875 178.132812 42.621094 170.066406 32.730469 170.066406 C 29.738281 170.066406 26.914062 170.808594 24.433594 172.113281 C 17.347656 163.558594 10.878906 152.289062 13.707031 141.726562 C 17.949219 125.894531 43.007812 115.191406 80.746094 113.097656 C 83.714844 112.933594 85.988281 110.390625 85.824219 107.414062 C 85.660156 104.4375 83.125 102.171875 80.152344 102.328125 C 36.265625 104.765625 8.980469 117.761719 3.308594 138.925781 C -0.0195312 151.347656 4.648438 165.40625 16.800781 179.777344 C 15.515625 182.253906 14.785156 185.066406 14.785156 188.046875 C 14.785156 197.957031 22.835938 206.023438 32.730469 206.023438 C 36.390625 206.023438 39.800781 204.917969 42.640625 203.019531 C 50.417969 208.664062 59.148438 214.171875 68.644531 219.464844 C 63.652344 227.828125 59.261719 236.058594 55.550781 244.066406 C 38.960938 279.851562 37.765625 307.523438 52.1875 321.980469 C 58.878906 328.691406 68.261719 332.074219 80.160156 332.074219 C 81.617188 332.074219 83.117188 332.015625 84.652344 331.914062 C 87.652344 337.652344 93.652344 341.582031 100.554688 341.582031 C 110.449219 341.582031 118.496094 333.515625 118.496094 323.601562 C 118.496094 323.59375 118.496094 323.582031 118.496094 323.574219 C 129.828125 319.152344 141.941406 313.078125 154.472656 305.578125 C 159.199219 314.078125 164.117188 322 169.175781 329.21875 C 188.820312 357.238281 208.980469 372.140625 226.84375 372.140625 C 229.5625 372.140625 232.234375 371.796875 234.839844 371.097656 C 254.542969 365.816406 267.335938 341.265625 270.859375 301.960938 C 271.648438 293.175781 271.960938 283.859375 271.816406 274.132812 C 273.394531 274.15625 274.96875 274.179688 276.523438 274.179688 C 284.535156 274.179688 292.25 273.855469 299.589844 273.203125 C 338.816406 269.699219 363.332031 256.898438 368.617188 237.164062 C 371.945312 224.742188 367.28125 210.679688 355.125 196.308594 " fill-opacity="1" fill-rule="nonzero"/></g></svg>