<svg xmlns="http://www.w3.org/2000/svg" xmlns:xlink="http://www.w3.org/1999/xlink" width="500" zoomAndPan="magnify" viewBox="0 0 375 374.999991" height="500" preserveAspectRatio="xMidYMid meet" version="1.0"><defs><clipPath id="96f7cf8d6b"><path d="M 223 182.027344 L 231 182.027344 L 231 186 L 223 186 Z M 223 182.027344 " clip-rule="nonzero"/></clipPath><clipPath id="17756a2a16"><path d="M 222.4375 188 L 236.6875 188 L 236.6875 210.527344 L 222.4375 210.527344 Z M 222.4375 188 " clip-rule="nonzero"/></clipPath></defs><path fill="#000000" d="M 32.6875 330.085938 L 21.585938 338.421875 L 42.785156 365.601562 L 53.453125 355.527344 Z M 32.6875 330.085938 " fill-opacity="1" fill-rule="nonzero"/><path fill="#000000" d="M 10.53125 353.191406 C 10.308594 354.800781 10.308594 356.410156 10.535156 358.019531 C 10.757812 359.628906 11.199219 361.179688 11.855469 362.667969 C 12.511719 364.152344 13.359375 365.523438 14.398438 366.773438 C 15.433594 368.023438 16.625 369.109375 17.964844 370.03125 C 19.304688 370.949219 20.746094 371.667969 22.289062 372.1875 C 23.828125 372.703125 25.410156 373.003906 27.035156 373.082031 C 28.660156 373.15625 30.261719 373.011719 31.847656 372.644531 C 33.429688 372.273438 34.933594 371.695312 36.355469 370.90625 L 15.089844 343.640625 C 13.851562 344.957031 12.84375 346.429688 12.066406 348.0625 C 11.289062 349.691406 10.777344 351.402344 10.53125 353.191406 Z M 10.53125 353.191406 " fill-opacity="1" fill-rule="nonzero"/><path fill="#000000" d="M 154.863281 227.328125 C 163.539062 220.410156 172.289062 213.234375 181.214844 205.625 C 171.183594 196.890625 161.5625 188.136719 151.921875 178.976562 C 115.914062 144.746094 88.207031 115.558594 64.71875 87.113281 C 39.964844 57.121094 20.417969 28.492188 5.277344 0 C 12.359375 81.59375 88.808594 167.472656 154.863281 227.328125 Z M 154.863281 227.328125 " fill-opacity="1" fill-rule="nonzero"/><path fill="#000000" d="M 85.28125 334.167969 C 86.296875 334.515625 87.246094 334.996094 88.128906 335.605469 C 89.011719 336.214844 89.796875 336.933594 90.484375 337.757812 C 91.171875 338.585938 91.734375 339.488281 92.171875 340.46875 C 92.609375 341.445312 92.90625 342.46875 93.0625 343.53125 C 93.679688 347.640625 93.8125 350.496094 93.820312 350.617188 C 93.832031 350.996094 93.863281 351.371094 93.921875 351.746094 C 93.976562 352.121094 94.054688 352.488281 94.15625 352.851562 C 94.261719 353.214844 94.382812 353.574219 94.53125 353.921875 C 94.675781 354.269531 94.84375 354.609375 95.03125 354.9375 C 95.21875 355.265625 95.429688 355.578125 95.65625 355.882812 C 95.882812 356.183594 96.128906 356.46875 96.390625 356.742188 C 96.652344 357.015625 96.933594 357.269531 97.226562 357.507812 C 97.519531 357.742188 97.828125 357.960938 98.152344 358.160156 C 98.472656 358.359375 98.804688 358.539062 99.148438 358.695312 C 99.492188 358.855469 99.84375 358.992188 100.203125 359.105469 C 100.566406 359.21875 100.929688 359.308594 101.304688 359.378906 C 101.675781 359.449219 102.050781 359.492188 102.425781 359.515625 C 102.804688 359.539062 103.183594 359.539062 103.558594 359.515625 C 103.9375 359.488281 104.3125 359.441406 104.683594 359.371094 C 105.054688 359.300781 105.421875 359.207031 105.78125 359.089844 C 106.140625 358.976562 106.492188 358.835938 106.835938 358.679688 C 110.804688 356.824219 112.625 351.84375 110.894531 347.578125 C 110.171875 345.804688 109.226562 344.164062 108.046875 342.652344 L 53.054688 272.113281 C 52.476562 271.371094 51.800781 270.738281 51.019531 270.210938 L 48.9375 268.808594 C 47.425781 267.78125 45.757812 267.265625 43.929688 267.265625 C 42.917969 267.265625 41.933594 267.433594 40.976562 267.765625 C 39.730469 268.175781 38.644531 268.84375 37.71875 269.773438 C 36.792969 270.699219 36.121094 271.785156 35.710938 273.027344 C 35.652344 273.207031 35.601562 273.378906 35.554688 273.550781 C 35.363281 274.277344 35.261719 275.011719 35.253906 275.761719 C 35.242188 276.511719 35.320312 277.25 35.492188 277.980469 C 35.664062 278.707031 35.921875 279.40625 36.261719 280.070312 C 36.605469 280.738281 37.023438 281.351562 37.515625 281.917969 C 38.253906 282.722656 39.109375 283.363281 40.085938 283.847656 C 41.0625 284.335938 42.09375 284.625 43.179688 284.726562 C 44.898438 284.917969 46.578125 285.28125 48.21875 285.824219 C 49.859375 286.363281 51.425781 287.066406 52.921875 287.933594 C 54.414062 288.800781 55.804688 289.8125 57.085938 290.96875 C 58.371094 292.125 59.519531 293.402344 60.539062 294.796875 C 60.984375 295.417969 61.363281 296.070312 61.679688 296.765625 C 61.996094 297.457031 62.246094 298.171875 62.421875 298.914062 C 62.601562 299.65625 62.703125 300.40625 62.738281 301.167969 C 62.769531 301.925781 62.726562 302.683594 62.609375 303.4375 C 62.496094 304.191406 62.308594 304.925781 62.046875 305.640625 C 61.789062 306.355469 61.464844 307.042969 61.074219 307.695312 C 60.679688 308.347656 60.230469 308.957031 59.71875 309.523438 C 59.210938 310.089844 58.648438 310.597656 58.039062 311.054688 L 39.355469 325.082031 L 59.523438 349.792969 L 73.351562 336.734375 C 74.132812 335.992188 75 335.371094 75.949219 334.871094 C 76.902344 334.371094 77.902344 334.003906 78.957031 333.777344 C 80.007812 333.554688 81.070312 333.472656 82.144531 333.539062 C 83.21875 333.605469 84.261719 333.816406 85.28125 334.167969 Z M 65.121094 332.660156 C 64.570312 332.660156 64.027344 332.609375 63.488281 332.5 C 62.949219 332.394531 62.421875 332.234375 61.914062 332.023438 C 61.40625 331.8125 60.925781 331.554688 60.46875 331.25 C 60.011719 330.945312 59.585938 330.597656 59.199219 330.207031 C 58.808594 329.820312 58.460938 329.398438 58.15625 328.941406 C 57.851562 328.484375 57.59375 328 57.382812 327.492188 C 57.171875 326.984375 57.011719 326.460938 56.90625 325.921875 C 56.796875 325.382812 56.742188 324.835938 56.742188 324.285156 C 56.742188 323.738281 56.796875 323.191406 56.90625 322.652344 C 57.011719 322.113281 57.171875 321.589844 57.382812 321.082031 C 57.589844 320.574219 57.847656 320.089844 58.15625 319.632812 C 58.460938 319.175781 58.808594 318.753906 59.195312 318.363281 C 59.585938 317.976562 60.007812 317.628906 60.464844 317.324219 C 60.921875 317.019531 61.40625 316.757812 61.914062 316.550781 C 62.421875 316.339844 62.945312 316.179688 63.484375 316.070312 C 64.023438 315.964844 64.570312 315.910156 65.121094 315.910156 C 65.667969 315.910156 66.214844 315.964844 66.753906 316.070312 C 67.292969 316.179688 67.816406 316.335938 68.324219 316.546875 C 68.832031 316.757812 69.316406 317.015625 69.773438 317.320312 C 70.230469 317.625 70.65625 317.972656 71.042969 318.363281 C 71.433594 318.75 71.78125 319.175781 72.085938 319.632812 C 72.390625 320.089844 72.648438 320.570312 72.859375 321.078125 C 73.070312 321.585938 73.230469 322.109375 73.335938 322.648438 C 73.445312 323.1875 73.5 323.734375 73.5 324.285156 C 73.5 324.832031 73.445312 325.378906 73.335938 325.917969 C 73.230469 326.457031 73.070312 326.980469 72.859375 327.488281 C 72.648438 327.996094 72.390625 328.480469 72.085938 328.9375 C 71.78125 329.394531 71.433594 329.816406 71.042969 330.207031 C 70.65625 330.59375 70.230469 330.941406 69.773438 331.246094 C 69.316406 331.550781 68.835938 331.8125 68.328125 332.023438 C 67.816406 332.230469 67.292969 332.390625 66.753906 332.5 C 66.214844 332.605469 65.671875 332.660156 65.121094 332.660156 Z M 65.121094 332.660156 " fill-opacity="1" fill-rule="nonzero"/><path fill="#000000" d="M 220.660156 238.214844 C 211.648438 246.257812 202.742188 253.925781 194.101562 261.140625 C 232.097656 292.339844 263.746094 314.164062 273.601562 320.808594 L 294.136719 294.464844 C 283.25 286.023438 272.46875 277.859375 262.015625 269.949219 C 248.515625 259.742188 234.589844 249.203125 220.660156 238.214844 Z M 220.660156 238.214844 " fill-opacity="1" fill-rule="nonzero"/><path fill="#000000" d="M 360.167969 343.726562 L 339.765625 371.394531 C 340.675781 371.832031 341.621094 372.183594 342.589844 372.457031 C 343.5625 372.726562 344.550781 372.914062 345.558594 373.015625 C 346.5625 373.117188 347.566406 373.128906 348.574219 373.054688 C 349.582031 372.984375 350.574219 372.824219 351.554688 372.578125 C 352.535156 372.332031 353.484375 372.007812 354.410156 371.597656 C 355.332031 371.1875 356.210938 370.703125 357.050781 370.140625 C 357.890625 369.578125 358.675781 368.949219 359.402344 368.25 C 360.132812 367.554688 360.796875 366.796875 361.398438 365.984375 C 361.996094 365.171875 362.519531 364.316406 362.972656 363.410156 C 363.421875 362.507812 363.792969 361.574219 364.082031 360.605469 C 364.371094 359.636719 364.574219 358.652344 364.691406 357.652344 C 364.808594 356.648438 364.839844 355.644531 364.785156 354.636719 C 364.730469 353.628906 364.589844 352.632812 364.359375 351.648438 C 364.132812 350.664062 363.820312 349.707031 363.429688 348.777344 C 363.035156 347.847656 362.5625 346.960938 362.015625 346.113281 C 361.46875 345.265625 360.851562 344.46875 360.167969 343.726562 Z M 360.167969 343.726562 " fill-opacity="1" fill-rule="nonzero"/><path fill="#000000" d="M 223.257812 178.972656 C 183.574219 216.695312 149.371094 242.5625 113.167969 269.949219 C 102.710938 277.859375 91.925781 286.023438 81.039062 294.464844 L 101.578125 320.804688 C 115.921875 311.125 176.488281 269.222656 236.039062 212.753906 C 275.765625 175.085938 307.261719 138.410156 329.652344 103.75 C 353.644531 66.621094 367.136719 31.789062 369.898438 -0.015625 C 332.234375 70.703125 272.242188 132.410156 223.257812 178.972656 Z M 223.257812 178.972656 " fill-opacity="1" fill-rule="nonzero"/><path fill="#000000" d="M 333.15625 366.324219 L 353.683594 338.488281 L 342.597656 330.164062 L 322.609375 356.363281 Z M 333.15625 366.324219 " fill-opacity="1" fill-rule="nonzero"/><path fill="#000000" d="M 339.464844 273.035156 C 339.054688 271.789062 338.382812 270.699219 337.457031 269.773438 C 336.527344 268.84375 335.441406 268.171875 334.195312 267.761719 C 332.859375 267.296875 331.492188 267.15625 330.089844 267.339844 C 328.6875 267.523438 327.402344 268.015625 326.234375 268.808594 L 324.152344 270.210938 C 323.371094 270.738281 322.695312 271.371094 322.117188 272.109375 L 267.121094 342.652344 C 265.945312 344.164062 264.996094 345.804688 264.277344 347.578125 C 262.546875 351.84375 264.367188 356.820312 268.335938 358.679688 C 268.679688 358.835938 269.027344 358.976562 269.386719 359.089844 C 269.746094 359.207031 270.109375 359.300781 270.480469 359.371094 C 270.851562 359.441406 271.222656 359.488281 271.601562 359.515625 C 271.976562 359.539062 272.351562 359.542969 272.730469 359.519531 C 273.105469 359.496094 273.480469 359.453125 273.851562 359.386719 C 274.222656 359.316406 274.585938 359.226562 274.945312 359.113281 C 275.304688 359 275.65625 358.867188 276 358.710938 C 276.34375 358.554688 276.675781 358.375 276.996094 358.179688 C 277.316406 357.980469 277.625 357.765625 277.917969 357.527344 C 278.214844 357.292969 278.492188 357.039062 278.753906 356.769531 C 279.019531 356.5 279.265625 356.214844 279.492188 355.914062 C 279.71875 355.617188 279.929688 355.300781 280.117188 354.976562 C 280.308594 354.648438 280.476562 354.3125 280.621094 353.964844 C 280.769531 353.621094 280.894531 353.265625 281 352.902344 C 281.105469 352.539062 281.183594 352.171875 281.242188 351.800781 C 281.300781 351.429688 281.335938 351.054688 281.347656 350.675781 C 281.355469 350.496094 281.492188 347.640625 282.105469 343.53125 C 282.265625 342.46875 282.566406 341.445312 283.007812 340.464844 C 283.445312 339.484375 284.011719 338.582031 284.695312 337.757812 C 285.382812 336.929688 286.171875 336.214844 287.054688 335.601562 C 287.9375 334.992188 288.886719 334.511719 289.90625 334.160156 C 290.921875 333.8125 291.964844 333.605469 293.039062 333.539062 C 294.109375 333.476562 295.171875 333.558594 296.222656 333.785156 C 297.273438 334.011719 298.273438 334.375 299.222656 334.875 C 300.175781 335.375 301.039062 335.996094 301.820312 336.734375 L 316.515625 350.613281 L 335.929688 325.164062 L 317.136719 311.050781 C 316.527344 310.597656 315.964844 310.085938 315.453125 309.519531 C 314.945312 308.953125 314.492188 308.34375 314.101562 307.691406 C 313.710938 307.039062 313.382812 306.355469 313.125 305.636719 C 312.867188 304.921875 312.679688 304.1875 312.5625 303.433594 C 312.449219 302.679688 312.40625 301.925781 312.4375 301.164062 C 312.46875 300.402344 312.574219 299.652344 312.75 298.910156 C 312.929688 298.171875 313.175781 297.453125 313.492188 296.761719 C 313.8125 296.066406 314.191406 295.414062 314.636719 294.792969 C 315.652344 293.398438 316.804688 292.121094 318.085938 290.96875 C 319.371094 289.8125 320.757812 288.800781 322.253906 287.933594 C 323.746094 287.066406 325.3125 286.363281 326.953125 285.824219 C 328.59375 285.28125 330.273438 284.917969 331.988281 284.726562 C 333.078125 284.628906 334.109375 284.335938 335.085938 283.851562 C 336.0625 283.363281 336.921875 282.71875 337.660156 281.914062 C 338.152344 281.351562 338.570312 280.734375 338.910156 280.070312 C 339.253906 279.402344 339.511719 278.703125 339.679688 277.976562 C 339.851562 277.246094 339.933594 276.507812 339.921875 275.757812 C 339.910156 275.007812 339.808594 274.269531 339.617188 273.546875 C 339.570312 273.375 339.527344 273.203125 339.464844 273.035156 Z M 318.429688 324.285156 C 318.429688 324.832031 318.378906 325.378906 318.269531 325.917969 C 318.164062 326.457031 318.003906 326.980469 317.792969 327.488281 C 317.582031 327.996094 317.324219 328.480469 317.019531 328.9375 C 316.714844 329.394531 316.367188 329.816406 315.976562 330.207031 C 315.589844 330.59375 315.164062 330.941406 314.707031 331.246094 C 314.25 331.550781 313.769531 331.808594 313.257812 332.019531 C 312.75 332.230469 312.226562 332.390625 311.6875 332.496094 C 311.148438 332.605469 310.605469 332.65625 310.054688 332.65625 C 309.503906 332.65625 308.960938 332.605469 308.421875 332.496094 C 307.878906 332.390625 307.355469 332.230469 306.847656 332.019531 C 306.339844 331.808594 305.859375 331.550781 305.402344 331.246094 C 304.941406 330.941406 304.519531 330.59375 304.132812 330.203125 C 303.742188 329.816406 303.394531 329.390625 303.089844 328.933594 C 302.785156 328.476562 302.527344 327.996094 302.316406 327.488281 C 302.105469 326.980469 301.945312 326.457031 301.839844 325.914062 C 301.730469 325.375 301.679688 324.832031 301.679688 324.28125 C 301.679688 323.730469 301.730469 323.1875 301.839844 322.648438 C 301.945312 322.109375 302.105469 321.585938 302.316406 321.078125 C 302.527344 320.570312 302.785156 320.085938 303.089844 319.628906 C 303.394531 319.171875 303.742188 318.75 304.132812 318.359375 C 304.519531 317.972656 304.945312 317.625 305.402344 317.320312 C 305.859375 317.015625 306.34375 316.757812 306.851562 316.546875 C 307.359375 316.335938 307.882812 316.175781 308.421875 316.070312 C 308.960938 315.960938 309.503906 315.910156 310.054688 315.910156 C 310.605469 315.910156 311.148438 315.964844 311.6875 316.070312 C 312.226562 316.179688 312.753906 316.339844 313.261719 316.546875 C 313.769531 316.757812 314.25 317.015625 314.707031 317.324219 C 315.164062 317.628906 315.585938 317.976562 315.976562 318.363281 C 316.363281 318.753906 316.710938 319.175781 317.015625 319.632812 C 317.324219 320.089844 317.582031 320.574219 317.792969 321.082031 C 318.003906 321.589844 318.160156 322.113281 318.269531 322.652344 C 318.375 323.191406 318.429688 323.734375 318.429688 324.285156 Z M 318.429688 324.285156 " fill-opacity="1" fill-rule="nonzero"/><path fill="#000000" d="M 61.898438 43.671875 C 61.675781 43.832031 61.46875 44.007812 61.277344 44.207031 C 61.089844 44.40625 60.921875 44.617188 60.777344 44.851562 C 60.628906 45.082031 60.507812 45.324219 60.410156 45.578125 C 60.3125 45.835938 60.238281 46.097656 60.191406 46.367188 C 60.144531 46.636719 60.125 46.90625 60.132812 47.179688 C 60.140625 47.453125 60.171875 47.722656 60.230469 47.988281 C 60.292969 48.257812 60.378906 48.515625 60.488281 48.765625 C 60.597656 49.015625 60.734375 49.25 60.890625 49.476562 C 79.214844 75.503906 101.265625 102.011719 128.292969 130.519531 C 128.480469 130.714844 128.683594 130.894531 128.910156 131.050781 C 129.132812 131.207031 129.367188 131.339844 129.617188 131.453125 C 129.867188 131.5625 130.125 131.648438 130.390625 131.707031 C 130.65625 131.765625 130.925781 131.800781 131.199219 131.808594 C 131.472656 131.816406 131.742188 131.796875 132.011719 131.75 C 132.28125 131.703125 132.542969 131.628906 132.800781 131.53125 C 133.054688 131.433594 133.296875 131.3125 133.527344 131.167969 C 133.757812 131.023438 133.972656 130.855469 134.171875 130.667969 C 134.371094 130.480469 134.546875 130.273438 134.703125 130.050781 C 134.863281 129.828125 134.996094 129.59375 135.109375 129.34375 C 135.21875 129.09375 135.304688 128.835938 135.367188 128.570312 C 135.425781 128.304688 135.460938 128.035156 135.46875 127.761719 C 135.476562 127.488281 135.457031 127.21875 135.414062 126.949219 C 135.367188 126.679688 135.296875 126.417969 135.199219 126.164062 C 135.101562 125.910156 134.980469 125.664062 134.835938 125.433594 C 134.691406 125.203125 134.523438 124.988281 134.335938 124.789062 C 107.59375 96.578125 85.796875 70.375 67.703125 44.679688 C 67.546875 44.457031 67.367188 44.25 67.167969 44.0625 C 66.972656 43.875 66.757812 43.707031 66.527344 43.558594 C 66.292969 43.414062 66.050781 43.292969 65.796875 43.191406 C 65.539062 43.09375 65.277344 43.023438 65.007812 42.976562 C 64.738281 42.929688 64.46875 42.90625 64.195312 42.914062 C 63.921875 42.921875 63.652344 42.953125 63.382812 43.015625 C 63.117188 43.074219 62.859375 43.160156 62.609375 43.269531 C 62.359375 43.382812 62.121094 43.515625 61.898438 43.671875 Z M 61.898438 43.671875 " fill-opacity="1" fill-rule="nonzero"/><path fill="#000000" d="M 50.746094 18.972656 C 50.601562 18.742188 50.433594 18.527344 50.25 18.328125 C 50.0625 18.132812 49.859375 17.953125 49.636719 17.792969 C 49.417969 17.636719 49.183594 17.5 48.933594 17.386719 C 48.6875 17.273438 48.429688 17.1875 48.164062 17.125 C 47.898438 17.0625 47.628906 17.027344 47.359375 17.015625 C 47.085938 17.007812 46.816406 17.023438 46.546875 17.066406 C 46.277344 17.109375 46.015625 17.179688 45.761719 17.273438 C 45.503906 17.367188 45.261719 17.488281 45.03125 17.628906 C 44.796875 17.773438 44.582031 17.9375 44.382812 18.121094 C 44.183594 18.304688 44.003906 18.507812 43.84375 18.726562 C 43.683594 18.949219 43.542969 19.183594 43.429688 19.429688 C 43.316406 19.675781 43.226562 19.933594 43.164062 20.195312 C 43.097656 20.460938 43.0625 20.730469 43.050781 21 C 43.039062 21.273438 43.050781 21.542969 43.09375 21.8125 C 43.136719 22.082031 43.203125 22.34375 43.296875 22.601562 C 43.390625 22.855469 43.507812 23.101562 43.648438 23.332031 C 45.292969 26.011719 46.996094 28.71875 48.707031 31.382812 C 48.855469 31.613281 49.023438 31.828125 49.214844 32.023438 C 49.402344 32.222656 49.609375 32.398438 49.835938 32.554688 C 50.058594 32.710938 50.296875 32.84375 50.546875 32.953125 C 50.800781 33.0625 51.058594 33.144531 51.324219 33.203125 C 51.59375 33.261719 51.863281 33.292969 52.136719 33.296875 C 52.410156 33.300781 52.679688 33.28125 52.949219 33.230469 C 53.21875 33.183594 53.480469 33.109375 53.734375 33.007812 C 53.992188 32.910156 54.234375 32.785156 54.464844 32.636719 C 54.691406 32.488281 54.90625 32.320312 55.105469 32.132812 C 55.300781 31.941406 55.476562 31.734375 55.632812 31.507812 C 55.789062 31.285156 55.921875 31.046875 56.03125 30.796875 C 56.140625 30.546875 56.222656 30.285156 56.28125 30.019531 C 56.339844 29.753906 56.371094 29.480469 56.375 29.207031 C 56.382812 28.933594 56.359375 28.664062 56.3125 28.394531 C 56.261719 28.125 56.1875 27.863281 56.089844 27.609375 C 55.988281 27.355469 55.863281 27.113281 55.714844 26.882812 C 54.035156 24.265625 52.359375 21.605469 50.746094 18.972656 Z M 50.746094 18.972656 " fill-opacity="1" fill-rule="nonzero"/><g clip-path="url(#96f7cf8d6b)"><path fill="#000000" d="M 230.082031 183.816406 C 230.078125 183.964844 229.914062 183.945312 229.757812 183.941406 C 229.796875 184.21875 229.644531 184.773438 229.796875 185.050781 C 229.496094 185.117188 229.097656 185.257812 228.742188 185.136719 C 228.449219 185.457031 228.046875 185.152344 227.804688 184.886719 C 227.648438 184.878906 227.597656 184.976562 227.480469 185.011719 C 227.3125 184.992188 227.277344 184.835938 227.195312 184.722656 C 226.734375 184.789062 226.386719 184.972656 225.9375 185.050781 C 225.851562 185.0625 225.925781 185.234375 225.855469 185.257812 C 225.367188 185.433594 225.109375 185.121094 224.675781 185.339844 C 224.632812 185.238281 224.480469 185.238281 224.515625 185.054688 C 224.238281 185.03125 224.003906 185.089844 223.824219 185.054688 C 223.808594 184.855469 223.871094 184.746094 223.945312 184.640625 C 224.136719 184.679688 224.285156 184.765625 224.472656 184.804688 C 224.511719 184.609375 224.652344 184.515625 224.921875 184.558594 L 224.921875 184.886719 C 225.492188 184.894531 226.007812 184.546875 226.585938 184.433594 C 226.113281 184.078125 225.242188 184.121094 224.882812 183.652344 C 224.996094 183.617188 225.046875 183.519531 225.207031 183.527344 C 225.199219 183.148438 225.261719 183.089844 225.246094 182.703125 C 225.183594 182.535156 224.851562 182.636719 224.800781 182.457031 C 224.839844 182.105469 225.28125 182.027344 225.570312 182.125 C 226.058594 182.292969 226.730469 182.65625 227.277344 182.867188 C 228.355469 183.285156 229.269531 183.390625 230.082031 183.816406 Z M 225.367188 183.402344 C 225.539062 183.382812 225.546875 183.523438 225.734375 183.484375 C 225.796875 183.3125 225.796875 182.960938 225.734375 182.785156 C 225.574219 182.808594 225.5 182.75 225.410156 182.703125 C 225.371094 182.820312 225.363281 183.128906 225.367188 183.402344 Z M 225.898438 183.570312 C 226.050781 183.648438 226.234375 183.695312 226.382812 183.773438 C 226.433594 183.578125 226.441406 183.335938 226.464844 183.117188 C 226.328125 183.007812 226.152344 182.9375 225.9375 182.910156 C 225.898438 183.054688 225.894531 183.289062 225.898438 183.570312 Z M 226.546875 183.855469 C 226.800781 183.886719 226.945312 184.027344 227.195312 184.0625 C 227.28125 183.890625 227.214844 183.5625 227.238281 183.320312 C 226.984375 183.289062 226.859375 183.128906 226.585938 183.117188 C 226.5 183.289062 226.566406 183.617188 226.546875 183.855469 Z M 227.398438 183.941406 C 227.40625 183.878906 227.5 183.902344 227.5625 183.898438 C 227.605469 183.789062 227.609375 183.644531 227.601562 183.484375 C 227.527344 183.453125 227.453125 183.417969 227.359375 183.402344 C 227.410156 183.609375 227.265625 183.90625 227.398438 183.941406 Z M 228.089844 183.898438 C 228.238281 183.871094 228.441406 183.894531 228.496094 183.773438 C 228.246094 183.6875 227.988281 183.605469 227.726562 183.527344 C 227.757812 183.683594 227.675781 183.722656 227.683594 183.855469 C 227.789062 183.742188 228.117188 183.46875 228.089844 183.898438 Z M 228.824219 184.683594 C 228.917969 184.707031 229.007812 184.742188 229.148438 184.722656 C 229.121094 184.476562 229.128906 184.28125 229.148438 184.023438 C 229.070312 183.988281 229 183.953125 228.902344 183.941406 C 228.824219 184.132812 228.886719 184.472656 228.820312 184.683594 Z M 229.308594 184.847656 L 229.511719 184.847656 C 229.539062 184.703125 229.59375 184.078125 229.554688 183.980469 C 229.074219 183.855469 229.304688 184.613281 229.308594 184.847656 Z M 228.007812 184.394531 C 228.261719 184.4375 228.441406 184.558594 228.699219 184.597656 C 228.71875 184.453125 228.761719 184.332031 228.742188 184.144531 C 228.460938 184.191406 228.1875 184.246094 228.011719 184.394531 Z M 226.507812 184.640625 C 226.652344 184.625 226.777344 184.585938 226.871094 184.515625 C 226.726562 184.535156 226.558594 184.527344 226.507812 184.640625 Z M 224.675781 184.847656 L 224.800781 184.847656 C 224.789062 184.773438 224.839844 184.640625 224.71875 184.683594 C 224.707031 184.738281 224.660156 184.761719 224.675781 184.847656 Z M 227.601562 184.722656 C 227.488281 184.757812 227.496094 184.664062 227.398438 184.683594 C 227.359375 184.847656 227.617188 184.925781 227.601562 184.722656 Z M 228.210938 184.96875 C 228.136719 184.960938 228 184.804688 227.96875 184.886719 C 228.007812 184.933594 228.144531 185.089844 228.210938 184.96875 Z M 228.210938 184.96875 " fill-opacity="1" fill-rule="evenodd"/></g><g clip-path="url(#17756a2a16)"><path fill="#000000" d="M 235.121094 194.367188 C 235.15625 194.597656 235.0625 195.082031 235.160156 195.398438 C 235.28125 195.792969 235.820312 196.105469 235.894531 196.46875 C 236.03125 196.488281 236.121094 196.453125 236.21875 196.429688 C 236.371094 196.617188 236.511719 196.816406 236.664062 197.007812 C 236.632812 197.375 236.265625 197.398438 236.175781 197.707031 L 235.8125 197.707031 C 235.90625 197.949219 235.746094 198.082031 235.730469 198.324219 C 235.503906 198.449219 235.320312 198.574219 234.917969 198.492188 C 235.074219 198.777344 235.039062 199.195312 235.160156 199.644531 C 235.207031 199.804688 235.285156 199.953125 235.285156 200.058594 C 235.28125 200.226562 235.136719 200.324219 235.121094 200.46875 C 235.105469 200.589844 235.160156 200.929688 235.203125 201.085938 C 235.214844 201.132812 235.320312 201.191406 235.324219 201.253906 C 235.347656 201.5 235.207031 201.769531 235.285156 202.035156 C 234.835938 202.066406 234.554688 201.921875 234.511719 201.539062 C 234.296875 202.460938 234.914062 203.613281 234.308594 204.136719 C 234.40625 204.488281 234.179688 204.703125 234.144531 204.960938 C 234.09375 205.386719 234.226562 205.824219 234.1875 206.238281 C 234.117188 206.941406 233.742188 207.476562 233.578125 208.054688 C 233.882812 208.027344 234.148438 208.261719 234.308594 208.507812 C 234.210938 209.105469 234.011719 209.609375 233.496094 209.785156 C 233.472656 210.167969 233.238281 210.410156 232.925781 210.402344 C 231.996094 210.386719 232.796875 209.09375 232.4375 208.589844 C 232.46875 208.214844 232.652344 207.847656 232.5625 207.476562 C 232.414062 207.546875 232.429688 207.78125 232.15625 207.722656 C 232.0625 208.398438 231.511719 208.613281 230.933594 208.796875 C 230.777344 208.679688 230.703125 208.480469 230.730469 208.175781 C 232.007812 207.320312 230.808594 205.945312 230.527344 204.839844 C 230.367188 204.730469 230.230469 204.589844 230.121094 204.425781 C 230.183594 203.46875 230.027344 202.152344 230.449219 201.253906 C 230.394531 201.097656 230.15625 201.136719 230.121094 200.964844 C 230.085938 200.78125 230.148438 200.648438 230.164062 200.46875 C 230.027344 200.925781 229.519531 200.941406 229.511719 200.34375 C 229.511719 200.140625 229.894531 199.425781 229.917969 199.066406 C 229.921875 199.042969 230 198.679688 230.042969 198.53125 C 229.769531 198.574219 229.390625 198.859375 229.066406 198.984375 C 229.25 199.8125 229.066406 200.785156 229.230469 201.625 C 229.394531 202.472656 229.175781 203.359375 229.148438 204.097656 C 228.929688 204.136719 228.726562 204.105469 228.578125 203.972656 C 228.726562 204.414062 228.558594 204.753906 228.660156 205.292969 C 228.585938 205.421875 228.453125 205.496094 228.335938 205.582031 C 228.554688 206.316406 228.214844 207.113281 228.210938 207.886719 C 229.3125 208.199219 228.261719 209.300781 228.089844 209.910156 C 227.414062 210.527344 226.878906 209.453125 227.117188 208.796875 C 227.125 208.621094 226.960938 208.621094 226.953125 208.464844 C 227.15625 207.402344 226.734375 206.527344 227.035156 205.539062 C 226.976562 205.472656 226.832031 205.496094 226.789062 205.414062 C 226.730469 205.230469 226.777344 204.933594 226.628906 204.839844 C 226.53125 204.988281 226.664062 205.371094 226.34375 205.292969 C 226.410156 205.980469 226.574219 206.542969 226.546875 207.023438 C 226.808594 207.253906 226.804688 207.664062 226.710938 208.09375 C 226.582031 208.132812 226.519531 208.230469 226.382812 208.257812 C 226.332031 208.769531 225.90625 209.445312 225.285156 209.332031 C 225.171875 209.308594 224.90625 209.128906 224.878906 208.960938 C 224.835938 208.640625 225.21875 208.449219 225.328125 208.09375 C 225.65625 207.011719 224.910156 206.1875 224.800781 205.332031 C 224.230469 205.199219 224.332031 204.425781 224.515625 203.929688 C 224.410156 203.820312 224.472656 204.027344 224.3125 203.972656 C 224.128906 203.9375 224.148438 203.699219 224.027344 203.601562 C 224.199219 202.105469 224.246094 200.480469 224.554688 199.230469 C 224.773438 199.082031 224.882812 198.820312 225.003906 198.574219 C 224.921875 198.515625 224.8125 198.488281 224.800781 198.367188 C 224.25 198.636719 224.230469 199.4375 223.988281 200.015625 L 223.660156 200.015625 C 223.945312 200.695312 223.285156 201.042969 223.335938 201.625 C 222.734375 201.503906 222.460938 200.527344 222.808594 200.058594 C 222.710938 199.976562 222.648438 199.859375 222.605469 199.726562 C 222.796875 198.683594 223.53125 198.191406 223.742188 197.171875 C 223.839844 197.078125 223.914062 196.960938 224.027344 196.882812 C 224.285156 196.113281 224.445312 195.246094 224.960938 194.738281 C 224.941406 194.609375 225.035156 194.59375 225.003906 194.449219 C 225.125 194.394531 225.3125 194.410156 225.488281 194.410156 C 225.457031 194.3125 225.386719 194.019531 225.53125 193.832031 C 225.9375 193.703125 225.9375 194.324219 226.425781 194.246094 C 226.535156 194.109375 226.546875 193.699219 226.546875 193.335938 C 226.4375 193.214844 226.21875 193.203125 226.058594 193.132812 C 226.046875 192.980469 226.105469 192.902344 226.140625 192.800781 C 226.257812 192.847656 226.429688 192.839844 226.546875 192.882812 C 226.710938 192.492188 226.96875 192.171875 226.914062 191.773438 C 227.460938 191.640625 227.976562 191.824219 228.414062 192.019531 C 228.523438 192.851562 228.492188 193.507812 228.171875 194.203125 C 228.199219 194.371094 228.390625 194.367188 228.539062 194.410156 C 228.941406 193.621094 228.945312 192.679688 229.148438 191.773438 C 229.363281 190.808594 229.695312 189.839844 229.839844 188.886719 C 229.855469 188.796875 229.78125 188.808594 229.714844 188.804688 C 229.855469 188.691406 229.976562 188.476562 230 188.144531 C 230.191406 188.113281 230.269531 188.203125 230.367188 188.269531 C 230.304688 188.484375 230.179688 188.714844 230.324219 188.84375 C 230.347656 189.003906 230.222656 189.015625 230.203125 189.132812 C 230.207031 189.945312 229.753906 190.664062 229.714844 191.484375 C 229.703125 191.726562 229.789062 191.96875 229.796875 192.183594 C 229.828125 192.972656 229.566406 193.847656 229.390625 194.699219 C 229.40625 194.859375 229.570312 194.875 229.59375 195.027344 C 229.894531 194.722656 230.257812 193.933594 230.773438 193.875 C 231.027344 193.84375 231.222656 193.898438 231.503906 193.792969 C 231.464844 193.605469 231.277344 193.613281 231.382812 193.378906 C 231.320312 193.25 231.136719 193.429688 231.097656 193.335938 C 231.082031 193.199219 231.167969 193.160156 231.21875 193.089844 C 231.125 193.0625 231.046875 193.0625 230.976562 192.925781 C 231.050781 192.835938 231.015625 192.636719 231.136719 192.597656 C 231.082031 192.449219 230.875 192.453125 230.8125 192.308594 C 230.875 191.984375 231.253906 191.886719 231.261719 191.566406 C 231.265625 191.296875 231.019531 191.265625 230.976562 190.945312 C 231.429688 190.789062 232.179688 190.933594 232.5625 191.113281 C 232.226562 190.296875 231.777344 189.597656 231.464844 188.761719 C 231.535156 188.746094 231.714844 188.636719 231.75 188.722656 C 232.515625 189.617188 232.691406 191.117188 233.78125 191.6875 C 233.734375 191.824219 233.582031 191.84375 233.496094 191.9375 C 233.648438 192.605469 233.949219 193.125 234.144531 193.75 C 234.269531 193.789062 234.386719 193.835938 234.511719 193.875 C 234.515625 194.027344 234.558594 193.992188 234.511719 194.121094 C 234.660156 194.230469 234.882812 194.484375 235.121094 194.363281 Z M 229.148438 194.492188 C 229.25 193.703125 229.578125 192.921875 229.511719 192.101562 C 229.46875 192.925781 228.988281 193.738281 229.148438 194.492188 Z M 233.089844 193.460938 C 233.203125 193.605469 233.394531 193.894531 233.65625 193.75 C 233.496094 193.488281 233.449219 193.109375 233.292969 192.84375 C 233.175781 193 233.109375 193.207031 233.089844 193.460938 Z M 232.074219 204.589844 C 232.605469 205.136719 231.859375 206.261719 232.519531 206.777344 C 232.574219 206.269531 232.5 205.597656 232.683594 205.125 C 232.460938 204.761719 232.371094 204.261719 232.195312 203.847656 C 232.125 204.152344 232.207031 204.355469 232.074219 204.589844 Z M 232.074219 204.589844 " fill-opacity="1" fill-rule="evenodd"/></g></svg>