<svg xmlns="http://www.w3.org/2000/svg" xmlns:xlink="http://www.w3.org/1999/xlink" width="500" zoomAndPan="magnify" viewBox="0 0 375 374.999991" height="500" preserveAspectRatio="xMidYMid meet" version="1.0"><defs><clipPath id="1437475bd9"><path d="M 102.148438 348.261719 L 107.398438 348.261719 L 107.398438 353.511719 L 102.148438 353.511719 Z M 102.148438 348.261719 " clip-rule="nonzero"/></clipPath><clipPath id="cbefb33357"><path d="M 102.148438 348.261719 L 107.398438 348.261719 L 107.398438 353.511719 L 102.148438 353.511719 Z M 102.148438 348.261719 " clip-rule="nonzero"/></clipPath></defs><g clip-path="url(#1437475bd9)"><path stroke-linecap="round" transform="matrix(0.0303118, 0, 0, 0.0303118, 99.301793, 345.416961)" fill="none" stroke-linejoin="miter" d="M 252.034476 221.816896 L 108.989832 221.816896 L 180.512154 97.84487 Z M 252.034476 221.816896 " stroke="#000000" stroke-width="3" stroke-opacity="1" stroke-miterlimit="10"/><path stroke-linecap="round" transform="matrix(0.0303118, 0, 0, 0.0303118, 99.301793, 345.416961)" fill="none" stroke-linejoin="miter" d="M 265.565726 180.449931 C 265.565726 191.790407 263.374952 202.615407 259.122274 213.0538 C 254.740726 223.492193 248.683881 232.641896 240.694 240.631777 C 232.704119 248.621658 223.425547 254.807372 212.987154 259.060051 C 202.67763 263.441599 191.723761 265.632372 180.512154 265.632372 C 169.171678 265.632372 158.346677 263.441599 147.908284 259.060051 C 137.469891 254.807372 128.320189 248.621658 120.330308 240.631777 C 112.340427 232.641896 106.154712 223.492193 101.902034 213.0538 C 97.520486 202.615407 95.329712 191.790407 95.329712 180.449931 C 95.329712 169.238324 97.520486 158.284454 101.902034 147.97493 C 106.154712 137.536538 112.340427 128.257966 120.330308 120.268085 C 128.320189 112.278204 137.469891 106.221359 147.908284 101.839811 C 158.346677 97.587132 169.171678 95.396358 180.512154 95.396358 C 191.723761 95.396358 202.67763 97.587132 212.987154 101.839811 C 223.425547 106.221359 232.704119 112.278204 240.694 120.268085 C 248.683881 128.257966 254.740726 137.536538 259.122274 147.97493 C 263.374952 158.284454 265.565726 169.238324 265.565726 180.449931 Z M 265.565726 180.449931 " stroke="#000000" stroke-width="3" stroke-opacity="1" stroke-miterlimit="10"/></g><path stroke-linecap="round" transform="matrix(0.0303118, 0, 0, 0.0303118, 99.301793, 345.416961)" fill="none" stroke-linejoin="miter" d="M 147.779415 156.351419 L 213.244892 156.351419 L 213.244892 221.816896 L 147.779415 221.816896 Z M 147.779415 156.351419 " stroke="#000000" stroke-width="3" stroke-opacity="1" stroke-miterlimit="10"/><g clip-path="url(#cbefb33357)"><path stroke-linecap="round" transform="matrix(0.0303118, 0, 0, 0.0303118, 99.301793, 345.416961)" fill="none" stroke-linejoin="miter" d="M 213.244892 189.084157 C 213.244892 193.336836 212.342809 197.589514 210.79638 201.584455 C 209.121083 205.579395 206.672571 209.187729 203.579714 212.151717 C 200.615726 215.244574 197.007392 217.693086 193.012452 219.239515 C 189.017511 220.914812 184.764832 221.816896 180.512154 221.816896 C 176.130606 221.816896 172.006797 220.914812 167.882987 219.239515 C 163.888047 217.693086 160.408582 215.244574 157.315725 212.151717 C 154.222868 209.187729 151.903225 205.579395 150.227927 201.584455 C 148.55263 197.589514 147.779415 193.336836 147.779415 189.084157 C 147.779415 184.70261 148.55263 180.5788 150.227927 176.45499 C 151.903225 172.46005 154.222868 168.980586 157.315725 165.887728 C 160.408582 162.794871 163.888047 160.475228 167.882987 158.799931 C 172.006797 157.124633 176.130606 156.351419 180.512154 156.351419 C 184.764832 156.351419 189.017511 157.124633 193.012452 158.799931 C 197.007392 160.475228 200.615726 162.794871 203.579714 165.887728 C 206.672571 168.980586 209.121083 172.46005 210.79638 176.45499 C 212.342809 180.5788 213.244892 184.70261 213.244892 189.084157 Z M 213.244892 189.084157 " stroke="#000000" stroke-width="3" stroke-opacity="1" stroke-miterlimit="10"/></g><path fill="#58964a" d="M 18.90625 292.808594 C 18.90625 292.808594 1.890625 297.730469 0.992188 305.789062 C 0.0976562 313.84375 100.398438 309.367188 100.398438 309.367188 C 100.398438 309.367188 92.335938 315.1875 96.367188 320.113281 C 100.398438 325.035156 150.546875 325.484375 165.324219 324.140625 C 165.324219 324.140625 155.921875 316.53125 159.054688 312.503906 C 162.1875 308.472656 172.933594 318.320312 172.933594 318.320312 C 172.933594 318.320312 173.382812 308.027344 177.414062 306.234375 C 181.441406 304.445312 182.785156 317.425781 182.785156 317.425781 C 182.785156 317.425781 194.875 306.234375 200.25 306.234375 C 205.621094 306.234375 201.144531 316.53125 201.144531 316.53125 C 201.144531 316.53125 218.160156 309.367188 224.875 312.054688 C 231.589844 314.738281 225.769531 320.113281 225.769531 320.113281 C 225.769531 320.113281 278.160156 317.425781 290.25 312.503906 C 302.339844 307.578125 350.695312 312.503906 362.785156 305.339844 C 374.875 298.179688 343.839844 293.921875 343.839844 293.921875 L 285.628906 293.023438 C 285.628906 293.023438 289.351562 280.722656 284.875 278.035156 C 280.398438 275.351562 271.441406 284.304688 271.441406 284.304688 C 271.441406 284.304688 277.261719 267.292969 270.996094 264.609375 C 264.726562 261.921875 253.085938 273.113281 253.085938 273.113281 C 253.085938 273.113281 257.113281 251.628906 240.546875 249.835938 C 223.980469 248.046875 218.160156 270.425781 218.160156 270.425781 C 218.160156 270.425781 202.039062 255.207031 189.949219 260.578125 C 177.859375 265.949219 177.414062 283.855469 177.414062 283.855469 C 177.414062 283.855469 170.695312 264.609375 159.054688 267.292969 C 147.414062 269.980469 141.589844 279.828125 141.589844 279.828125 C 141.589844 279.828125 138.457031 255.207031 129.054688 235.960938 C 119.652344 216.714844 106.664062 237.753906 106.664062 237.753906 C 106.664062 237.753906 90.335938 226.703125 77.007812 235.808594 C 63.679688 244.914062 59.203125 267.742188 59.203125 267.742188 C 59.203125 267.742188 34.128906 243.570312 23.828125 254.761719 C 13.53125 265.949219 18.90625 292.808594 18.90625 292.808594 Z M 18.90625 292.808594 " fill-opacity="1" fill-rule="nonzero"/><path fill="#5e7252" d="M 170.0625 298.066406 C 170.0625 298.277344 169.949219 298.484375 169.71875 298.691406 C 169.492188 298.898438 169.148438 299.105469 168.695312 299.308594 C 168.238281 299.511719 167.671875 299.714844 166.996094 299.914062 C 166.316406 300.113281 165.53125 300.308594 164.636719 300.5 C 163.746094 300.695312 162.75 300.882812 161.648438 301.066406 C 160.546875 301.25 159.351562 301.429688 158.054688 301.601562 C 156.757812 301.773438 155.367188 301.941406 153.886719 302.101562 C 152.40625 302.261719 150.839844 302.417969 149.191406 302.566406 C 147.539062 302.710938 145.8125 302.851562 144.007812 302.984375 C 142.203125 303.117188 140.332031 303.242188 138.390625 303.355469 C 136.453125 303.472656 134.453125 303.578125 132.394531 303.675781 C 130.335938 303.773438 128.226562 303.863281 126.070312 303.945312 C 123.914062 304.023438 121.722656 304.09375 119.488281 304.152344 C 117.253906 304.214844 114.992188 304.265625 112.703125 304.304688 C 110.414062 304.347656 108.109375 304.375 105.785156 304.398438 C 103.464844 304.417969 101.136719 304.429688 98.800781 304.429688 C 96.46875 304.429688 94.140625 304.417969 91.816406 304.398438 C 89.492188 304.375 87.1875 304.347656 84.898438 304.304688 C 82.609375 304.265625 80.347656 304.214844 78.113281 304.152344 C 75.882812 304.09375 73.6875 304.023438 71.53125 303.945312 C 69.375 303.863281 67.265625 303.773438 65.207031 303.675781 C 63.148438 303.578125 61.152344 303.472656 59.210938 303.355469 C 57.269531 303.242188 55.398438 303.117188 53.59375 302.984375 C 51.789062 302.851562 50.0625 302.710938 48.410156 302.566406 C 46.761719 302.417969 45.195312 302.261719 43.714844 302.101562 C 42.234375 301.941406 40.847656 301.773438 39.550781 301.601562 C 38.253906 301.429688 37.054688 301.25 35.953125 301.066406 C 34.855469 300.882812 33.855469 300.695312 32.964844 300.5 C 32.070312 300.308594 31.285156 300.113281 30.609375 299.914062 C 29.929688 299.714844 29.363281 299.511719 28.910156 299.308594 C 28.453125 299.105469 28.113281 298.898438 27.882812 298.691406 C 27.652344 298.484375 27.539062 298.277344 27.539062 298.066406 C 27.539062 297.859375 27.652344 297.652344 27.882812 297.445312 C 28.113281 297.238281 28.453125 297.03125 28.910156 296.828125 C 29.363281 296.621094 29.929688 296.421875 30.609375 296.222656 C 31.285156 296.023438 32.070312 295.824219 32.964844 295.632812 C 33.855469 295.441406 34.855469 295.253906 35.953125 295.070312 C 37.054688 294.886719 38.253906 294.707031 39.550781 294.535156 C 40.847656 294.359375 42.234375 294.195312 43.714844 294.03125 C 45.195312 293.871094 46.761719 293.71875 48.410156 293.570312 C 50.0625 293.421875 51.789062 293.285156 53.59375 293.152344 C 55.398438 293.019531 57.269531 292.894531 59.210938 292.777344 C 61.152344 292.664062 63.148438 292.554688 65.207031 292.457031 C 67.265625 292.359375 69.375 292.269531 71.53125 292.191406 C 73.6875 292.113281 75.882812 292.042969 78.113281 291.980469 C 80.347656 291.921875 82.609375 291.871094 84.898438 291.828125 C 87.1875 291.789062 89.492188 291.757812 91.816406 291.738281 C 94.140625 291.71875 96.46875 291.707031 98.800781 291.707031 C 101.136719 291.707031 103.464844 291.71875 105.785156 291.738281 C 108.109375 291.757812 110.414062 291.789062 112.703125 291.828125 C 114.992188 291.871094 117.253906 291.921875 119.488281 291.980469 C 121.722656 292.042969 123.914062 292.113281 126.070312 292.191406 C 128.226562 292.269531 130.335938 292.359375 132.394531 292.457031 C 134.453125 292.554688 136.453125 292.664062 138.390625 292.777344 C 140.332031 292.894531 142.203125 293.019531 144.007812 293.152344 C 145.8125 293.28125 147.539062 293.421875 149.191406 293.570312 C 150.839844 293.71875 152.40625 293.871094 153.886719 294.03125 C 155.367188 294.195312 156.757812 294.359375 158.054688 294.535156 C 159.351562 294.707031 160.546875 294.886719 161.648438 295.070312 C 162.75 295.253906 163.746094 295.441406 164.636719 295.632812 C 165.53125 295.824219 166.316406 296.023438 166.996094 296.222656 C 167.671875 296.421875 168.238281 296.621094 168.695312 296.828125 C 169.148438 297.03125 169.492188 297.238281 169.71875 297.445312 C 169.949219 297.652344 170.0625 297.859375 170.0625 298.066406 Z M 170.0625 298.066406 " fill-opacity="1" fill-rule="nonzero"/><path fill="#5e7252" d="M 309.734375 298.753906 C 309.734375 298.914062 309.648438 299.070312 309.476562 299.226562 C 309.304688 299.386719 309.046875 299.542969 308.707031 299.695312 C 308.367188 299.851562 307.941406 300.003906 307.433594 300.15625 C 306.925781 300.308594 306.335938 300.457031 305.664062 300.605469 C 304.996094 300.75 304.25 300.894531 303.421875 301.03125 C 302.597656 301.171875 301.699219 301.308594 300.726562 301.441406 C 299.753906 301.570312 298.710938 301.699219 297.601562 301.820312 C 296.492188 301.941406 295.316406 302.058594 294.078125 302.171875 C 292.84375 302.285156 291.546875 302.390625 290.195312 302.492188 C 288.839844 302.589844 287.4375 302.683594 285.980469 302.773438 C 284.523438 302.859375 283.027344 302.941406 281.480469 303.015625 C 279.9375 303.09375 278.359375 303.160156 276.742188 303.21875 C 275.125 303.28125 273.476562 303.332031 271.800781 303.378906 C 270.128906 303.425781 268.429688 303.464844 266.714844 303.496094 C 264.996094 303.527344 263.269531 303.550781 261.527344 303.566406 C 259.785156 303.582031 258.039062 303.589844 256.289062 303.589844 C 254.539062 303.589844 252.792969 303.582031 251.050781 303.566406 C 249.308594 303.550781 247.578125 303.527344 245.859375 303.496094 C 244.144531 303.464844 242.449219 303.425781 240.773438 303.378906 C 239.097656 303.332031 237.453125 303.28125 235.835938 303.21875 C 234.21875 303.160156 232.636719 303.09375 231.09375 303.015625 C 229.550781 302.941406 228.050781 302.859375 226.59375 302.773438 C 225.140625 302.683594 223.734375 302.589844 222.382812 302.492188 C 221.027344 302.390625 219.734375 302.285156 218.496094 302.171875 C 217.257812 302.058594 216.082031 301.941406 214.972656 301.820312 C 213.863281 301.699219 212.820312 301.570312 211.847656 301.441406 C 210.875 301.308594 209.976562 301.171875 209.152344 301.03125 C 208.328125 300.894531 207.578125 300.75 206.910156 300.605469 C 206.242188 300.457031 205.652344 300.308594 205.144531 300.15625 C 204.636719 300.003906 204.210938 299.851562 203.867188 299.695312 C 203.527344 299.542969 203.269531 299.386719 203.097656 299.226562 C 202.925781 299.070312 202.84375 298.914062 202.84375 298.753906 C 202.84375 298.59375 202.925781 298.4375 203.097656 298.28125 C 203.269531 298.121094 203.527344 297.964844 203.867188 297.8125 C 204.210938 297.65625 204.636719 297.503906 205.144531 297.351562 C 205.652344 297.199219 206.242188 297.050781 206.910156 296.902344 C 207.578125 296.757812 208.328125 296.613281 209.152344 296.476562 C 209.976562 296.335938 210.875 296.199219 211.847656 296.070312 C 212.820312 295.9375 213.863281 295.808594 214.972656 295.6875 C 216.082031 295.566406 217.257812 295.449219 218.496094 295.335938 C 219.734375 295.222656 221.027344 295.117188 222.382812 295.015625 C 223.734375 294.917969 225.140625 294.824219 226.59375 294.734375 C 228.050781 294.648438 229.550781 294.566406 231.09375 294.492188 C 232.636719 294.417969 234.21875 294.347656 235.835938 294.289062 C 237.453125 294.226562 239.097656 294.175781 240.773438 294.128906 C 242.449219 294.082031 244.144531 294.042969 245.859375 294.011719 C 247.578125 293.980469 249.308594 293.957031 251.050781 293.941406 C 252.792969 293.929688 254.539062 293.921875 256.289062 293.921875 C 258.039062 293.921875 259.785156 293.929688 261.527344 293.941406 C 263.269531 293.957031 264.996094 293.980469 266.714844 294.011719 C 268.429688 294.042969 270.128906 294.082031 271.800781 294.128906 C 273.476562 294.175781 275.125 294.226562 276.742188 294.289062 C 278.359375 294.347656 279.9375 294.417969 281.480469 294.492188 C 283.027344 294.566406 284.523438 294.648438 285.980469 294.734375 C 287.4375 294.824219 288.839844 294.917969 290.195312 295.015625 C 291.546875 295.117188 292.84375 295.222656 294.078125 295.335938 C 295.316406 295.449219 296.492188 295.566406 297.601562 295.6875 C 298.710938 295.808594 299.753906 295.9375 300.726562 296.066406 C 301.699219 296.199219 302.597656 296.335938 303.421875 296.476562 C 304.25 296.613281 304.996094 296.757812 305.664062 296.902344 C 306.335938 297.050781 306.925781 297.199219 307.433594 297.351562 C 307.941406 297.503906 308.367188 297.65625 308.707031 297.8125 C 309.046875 297.964844 309.304688 298.121094 309.476562 298.28125 C 309.648438 298.4375 309.734375 298.59375 309.734375 298.753906 Z M 309.734375 298.753906 " fill-opacity="1" fill-rule="nonzero"/><path fill="#e6916b" d="M 108.5625 252.375 C 108.5625 252.375 125.34375 233.882812 126.691406 232.535156 C 128.039062 231.191406 138.570312 249.558594 138.570312 249.558594 C 138.570312 249.558594 128.039062 265.109375 125.957031 266.824219 C 123.875 268.539062 108.5625 252.375 108.5625 252.375 Z M 108.5625 252.375 " fill-opacity="1" fill-rule="nonzero"/><path fill="#ffffff" d="M 125.878906 254.042969 C 123.515625 252.53125 121.289062 250.773438 119.457031 248.644531 C 118.21875 247.207031 117.152344 245.644531 116.121094 244.058594 C 112.136719 248.433594 108.5625 252.375 108.5625 252.375 C 108.5625 252.375 123.875 268.539062 125.957031 266.824219 C 127 265.964844 130.160156 261.636719 133.058594 257.53125 C 130.546875 256.652344 128.132812 255.492188 125.878906 254.042969 Z M 125.878906 254.042969 " fill-opacity="1" fill-rule="nonzero"/><path fill="#6c4e4e" d="M 97.96875 273.601562 C 97.96875 273.601562 110.113281 281.546875 116.957031 287.507812 C 123.800781 293.464844 126.011719 295.671875 137.050781 296.554688 C 148.089844 297.4375 156.921875 297.4375 157.140625 295.894531 C 157.363281 294.347656 156.921875 291.257812 153.167969 289.933594 C 149.414062 288.609375 136.167969 273.160156 133.296875 269.1875 C 130.425781 265.214844 134.40625 259.75 134.40625 257.761719 C 134.40625 255.777344 126.453125 253.074219 123.140625 254.839844 C 119.828125 256.605469 111.4375 255.0625 110.996094 251.527344 C 110.765625 249.679688 108.070312 250.535156 108.070312 250.535156 C 108.070312 250.535156 102.539062 255.292969 99.140625 261.175781 C 97.433594 264.125 96.054688 266.609375 95.761719 267.421875 C 94.878906 269.847656 92.890625 270.511719 97.96875 273.601562 Z M 97.96875 273.601562 " fill-opacity="1" fill-rule="nonzero"/><path fill="#4a3333" d="M 112.761719 276.25 C 108.558594 270.957031 102.050781 265.335938 98.34375 262.558594 C 97.019531 264.882812 96.007812 266.742188 95.761719 267.421875 C 94.878906 269.847656 92.890625 270.511719 97.96875 273.601562 C 97.96875 273.601562 110.113281 281.546875 116.957031 287.507812 C 123.800781 293.464844 126.011719 295.671875 137.050781 296.554688 C 148.089844 297.4375 156.921875 297.4375 157.140625 295.894531 C 157.210938 295.410156 157.214844 294.773438 157.074219 294.089844 C 150.503906 293.972656 133.9375 293.546875 129.542969 292.140625 C 124.023438 290.375 118.722656 283.753906 112.761719 276.25 Z M 112.761719 276.25 " fill-opacity="1" fill-rule="nonzero"/><path fill="#f4b44f" d="M 84.996094 182.304688 C 85.113281 183.925781 154.429688 186.933594 158.027344 188.472656 C 161.628906 190.015625 117.910156 229.09375 117.910156 229.09375 C 117.910156 229.09375 111.515625 234.09375 120.996094 244.515625 C 130.480469 254.941406 139 258.398438 142.597656 257.886719 C 146.199219 257.371094 195.738281 216.058594 210.828125 202.007812 C 225.921875 187.960938 207.917969 157.625 205.347656 149.398438 C 202.777344 141.171875 105.050781 145.285156 105.050781 145.285156 C 105.050781 145.285156 82.421875 146.828125 84.996094 182.304688 Z M 84.996094 182.304688 " fill-opacity="1" fill-rule="nonzero"/><path fill="#d59839" d="M 151.132812 245.777344 C 148.46875 244.570312 145.886719 243.148438 143.386719 241.636719 C 141.078125 240.238281 138.839844 238.730469 136.675781 237.121094 C 141.839844 232.402344 147.003906 227.683594 152.152344 222.949219 C 160.292969 215.460938 168.367188 207.898438 176.121094 200.015625 C 180.5 195.566406 184.769531 191.015625 188.894531 186.335938 C 189.464844 185.6875 188.519531 184.734375 187.945312 185.386719 C 180.636719 193.679688 172.863281 201.550781 164.886719 209.199219 C 156.851562 216.898438 148.613281 224.378906 140.398438 231.890625 C 138.792969 233.359375 137.1875 234.824219 135.582031 236.292969 C 133.453125 234.65625 131.398438 232.921875 129.429688 231.089844 C 127.183594 228.992188 125.0625 226.773438 123.050781 224.449219 C 122.523438 224.929688 122.023438 225.382812 121.5625 225.800781 C 125.292969 230.121094 129.484375 234.144531 134.039062 237.707031 C 131.339844 240.171875 128.644531 242.636719 125.945312 245.105469 C 125.308594 245.6875 126.257812 246.636719 126.898438 246.054688 C 129.636719 243.546875 132.378906 241.042969 135.125 238.539062 C 139.839844 242.105469 144.917969 245.183594 150.257812 247.578125 C 151.757812 248.25 153.292969 248.816406 154.863281 249.195312 C 155.53125 248.671875 156.214844 248.132812 156.917969 247.578125 C 154.914062 247.308594 152.957031 246.601562 151.132812 245.777344 Z M 151.132812 245.777344 " fill-opacity="1" fill-rule="nonzero"/><path fill="#d59839" d="M 193.316406 174.523438 C 192.722656 173.753906 191.746094 173.667969 190.859375 173.507812 C 190.625 173.46875 190.144531 173.445312 190.019531 173.207031 C 189.902344 172.976562 190.257812 172.386719 190.304688 172.15625 C 190.363281 171.859375 190.355469 171.550781 190.265625 171.265625 C 189.910156 170.140625 188.589844 169.84375 187.582031 169.625 C 185.933594 169.265625 184.285156 168.894531 182.640625 168.511719 C 179.246094 167.722656 175.859375 166.882812 172.488281 165.992188 C 168.695312 164.992188 164.917969 163.925781 161.160156 162.804688 C 160.328125 162.554688 159.976562 163.851562 160.800781 164.097656 C 167.015625 165.953125 173.277344 167.648438 179.578125 169.167969 C 181.167969 169.550781 182.761719 169.921875 184.355469 170.28125 C 185.097656 170.449219 185.84375 170.617188 186.589844 170.78125 C 187.230469 170.921875 188.0625 170.980469 188.636719 171.339844 C 189.28125 171.746094 188.765625 172.292969 188.691406 172.890625 C 188.632812 173.328125 188.730469 173.761719 189.015625 174.105469 C 189.546875 174.75 190.445312 174.777344 191.203125 174.917969 C 191.683594 175.007812 192.375 175.109375 192.339844 175.730469 C 192.296875 176.445312 191.550781 176.988281 191.035156 177.371094 C 190.046875 178.097656 189.097656 178.886719 189.058594 180.203125 C 189.035156 181.066406 190.378906 181.066406 190.402344 180.203125 C 190.4375 178.960938 192.191406 178.351562 192.902344 177.507812 C 193.59375 176.683594 194.039062 175.46875 193.316406 174.523438 Z M 193.316406 174.523438 " fill-opacity="1" fill-rule="nonzero"/><path fill="#d59839" d="M 170.472656 175.496094 C 164.089844 181.683594 160.386719 187.875 153.714844 193.753906 C 152.738281 194.613281 152.664062 195.859375 153.636719 195.007812 C 160.308594 189.128906 165.511719 183.109375 171.898438 176.917969 C 172.832031 176.015625 171.40625 174.589844 170.472656 175.496094 Z M 170.472656 175.496094 " fill-opacity="1" fill-rule="nonzero"/><path fill="#6c4e4e" d="M 61.550781 294.347656 C 61.550781 295.101562 61.773438 299.621094 50.730469 300.375 C 39.691406 301.125 33.953125 296.105469 31.964844 281.042969 C 29.976562 265.980469 31.300781 240.121094 35.496094 234.597656 C 39.691406 229.074219 44.109375 228.070312 51.171875 239.617188 C 58.238281 251.167969 61.550781 294.347656 61.550781 294.347656 Z M 61.550781 294.347656 " fill-opacity="1" fill-rule="nonzero"/><path fill="#4a3333" d="M 61.527344 294.914062 C 59.09375 296.5625 53.058594 300.027344 46.757812 298.867188 C 38.589844 297.359375 34.835938 290.332031 33.511719 280.539062 C 32.183594 270.75 30.640625 257.191406 33.730469 252.671875 C 36.820312 248.15625 37.703125 246.144531 38.808594 240.371094 C 39.910156 234.613281 42.546875 232.351562 46.722656 233.585938 C 42.105469 228.769531 38.734375 230.335938 35.496094 234.597656 C 31.300781 240.121094 29.976562 265.980469 31.964844 281.042969 C 33.949219 296.105469 39.691406 301.125 50.730469 300.371094 C 60.121094 299.734375 61.363281 296.371094 61.527344 294.914062 Z M 61.527344 294.914062 " fill-opacity="1" fill-rule="nonzero"/><path fill="#f4b44f" d="M 50.851562 239.566406 C 50.851562 239.566406 44.851562 238.898438 40.847656 245.902344 C 36.847656 252.902344 39.96875 274.234375 42.304688 276.566406 C 44.640625 278.902344 67.527344 298.578125 73.863281 299.578125 C 80.203125 300.578125 99.878906 300.910156 103.878906 293.910156 C 107.882812 286.910156 105.546875 268.90625 102.546875 254.902344 C 99.542969 240.902344 92.207031 214.230469 88.871094 199.894531 C 85.539062 185.558594 95.210938 157.554688 95.542969 154.21875 C 95.875 150.886719 44.515625 134.882812 43.515625 135.550781 C 42.515625 136.214844 28.765625 156.539062 29.507812 170.890625 C 30.507812 190.226562 50.851562 239.566406 50.851562 239.566406 Z M 50.851562 239.566406 " fill-opacity="1" fill-rule="nonzero"/><path fill="#d59839" d="M 79.878906 285.089844 C 70.710938 273.253906 62.542969 260.636719 55.476562 247.4375 C 53.476562 243.703125 51.566406 239.917969 49.746094 236.09375 C 49.1875 234.925781 47.449219 235.945312 48.007812 237.113281 C 54.496094 250.726562 62.117188 263.796875 70.785156 276.136719 C 70.738281 276.222656 70.699219 276.320312 70.691406 276.433594 C 70.378906 279.964844 70.800781 283.539062 71.921875 286.902344 C 72.195312 287.71875 73.492188 287.371094 73.21875 286.546875 C 72.269531 283.703125 71.847656 280.738281 71.953125 277.757812 C 74.066406 280.714844 76.226562 283.640625 78.453125 286.515625 C 78.789062 286.949219 79.523438 286.859375 79.878906 286.515625 C 80.308594 286.09375 80.210938 285.519531 79.878906 285.089844 Z M 79.878906 285.089844 " fill-opacity="1" fill-rule="nonzero"/><path fill="#d59839" d="M 79.203125 240.445312 C 78.46875 237.882812 77.738281 235.320312 77.007812 232.753906 C 75.542969 227.625 74.082031 222.496094 72.621094 217.371094 C 72.285156 216.195312 71.949219 215.019531 71.613281 213.84375 C 71.304688 212.761719 71.140625 211.234375 70.269531 210.429688 C 69.511719 209.726562 68.4375 209.8125 67.480469 209.851562 C 66.066406 209.902344 64.648438 209.976562 63.234375 210.070312 C 59.714844 210.308594 56.207031 210.683594 52.714844 211.167969 C 52.875 211.019531 52.980469 210.808594 52.925781 210.539062 C 51.335938 202.324219 49.742188 194.109375 48.152344 185.894531 C 47.582031 182.945312 46.890625 179.980469 46.425781 177 C 46.4375 176.996094 46.445312 176.996094 46.457031 176.992188 C 49.808594 176.054688 53.15625 175.113281 56.507812 174.171875 C 57.902344 173.78125 59.425781 173.460938 60.53125 172.457031 C 61.628906 171.460938 62.113281 169.96875 62.679688 168.644531 C 65.4375 162.1875 68.15625 155.707031 70.828125 149.210938 C 71.320312 148.011719 69.371094 147.492188 68.882812 148.675781 C 66.363281 154.808594 63.800781 160.921875 61.199219 167.023438 C 60.679688 168.242188 60.238281 169.882812 59.292969 170.855469 C 58.328125 171.847656 56.613281 172.050781 55.34375 172.40625 C 52.28125 173.265625 49.214844 174.125 46.152344 174.988281 C 46.105469 174.609375 46.0625 174.230469 46.027344 173.851562 C 45.664062 169.777344 46.367188 165.78125 47.542969 161.890625 C 48.785156 157.777344 50.558594 153.847656 52.78125 150.171875 C 53.226562 149.429688 52.066406 148.757812 51.621094 149.496094 C 49.601562 152.835938 47.945312 156.386719 46.707031 160.085938 C 45.46875 163.789062 44.546875 167.695312 44.574219 171.621094 C 44.601562 175.773438 45.625 179.894531 46.410156 183.949219 C 47.21875 188.113281 48.023438 192.273438 48.832031 196.4375 C 49.765625 201.253906 50.699219 206.074219 51.632812 210.894531 C 51.667969 211.085938 51.769531 211.207031 51.890625 211.285156 C 49.839844 211.578125 47.796875 211.898438 45.761719 212.277344 C 44.488281 212.511719 45.027344 214.453125 46.296875 214.21875 C 51.09375 213.332031 55.925781 212.675781 60.785156 212.269531 C 63.226562 212.066406 65.6875 211.875 68.136719 211.839844 C 68.589844 211.832031 68.855469 211.777344 69.054688 212.222656 C 69.261719 212.6875 69.347656 213.246094 69.488281 213.738281 C 69.855469 215.019531 70.21875 216.300781 70.585938 217.582031 C 70.753906 218.171875 70.921875 218.761719 71.089844 219.351562 C 63 219.519531 54.957031 220.765625 47.203125 223.066406 C 46.375 223.3125 46.726562 224.609375 47.558594 224.363281 C 55.226562 222.085938 63.160156 220.851562 71.15625 220.691406 C 71.269531 220.691406 71.367188 220.660156 71.453125 220.617188 C 72.503906 224.308594 73.554688 227.996094 74.609375 231.6875 C 75.277344 234.039062 75.949219 236.386719 76.617188 238.738281 C 76.9375 239.859375 77.257812 240.980469 77.578125 242.101562 C 77.867188 243.117188 78.511719 244.457031 78.363281 245.539062 C 78.21875 246.578125 77.058594 247.257812 76.3125 247.851562 C 75.171875 248.757812 74.035156 249.660156 72.894531 250.566406 C 70.703125 252.304688 68.511719 254.042969 66.320312 255.78125 C 65.308594 256.585938 66.742188 258.003906 67.746094 257.203125 C 69.894531 255.5 72.039062 253.796875 74.1875 252.09375 L 77.210938 249.695312 C 78.109375 248.980469 79.105469 248.3125 79.761719 247.355469 C 81.160156 245.324219 79.796875 242.539062 79.203125 240.445312 Z M 79.203125 240.445312 " fill-opacity="1" fill-rule="nonzero"/><path fill="#d59839" d="M 65.566406 278.953125 C 58.074219 272.296875 51.210938 264.945312 45.105469 257 C 44.585938 256.324219 43.421875 256.988281 43.945312 257.675781 C 50.121094 265.71875 57.035156 273.167969 64.617188 279.902344 C 65.261719 280.472656 66.214844 279.527344 65.566406 278.953125 Z M 65.566406 278.953125 " fill-opacity="1" fill-rule="nonzero"/><path fill="#d59839" d="M 53.035156 246.464844 C 51.023438 248.886719 49.753906 251.828125 49.066406 254.886719 C 48.285156 258.371094 48.15625 261.972656 48.085938 265.53125 C 48.007812 269.339844 48.085938 273.152344 48.308594 276.953125 C 48.414062 278.703125 48.558594 280.445312 48.726562 282.1875 C 49.425781 282.769531 50.15625 283.382812 50.917969 284.011719 C 50.355469 278.867188 50.074219 273.691406 50.070312 268.515625 C 50.066406 262.339844 49.910156 255.429688 53.082031 249.902344 C 53.519531 249.136719 54.113281 248.261719 54.816406 247.445312 C 54.476562 246.828125 54.152344 246.203125 53.847656 245.570312 C 53.5625 245.859375 53.289062 246.160156 53.035156 246.464844 Z M 53.035156 246.464844 " fill-opacity="1" fill-rule="nonzero"/><path fill="#ffffff" d="M 90.25 174.800781 C 88.359375 180.515625 87.6875 186.59375 88.289062 192.585938 C 88.417969 193.863281 90.433594 193.875 90.304688 192.585938 C 89.714844 186.753906 90.351562 180.902344 92.191406 175.335938 C 92.601562 174.101562 90.65625 173.574219 90.25 174.800781 Z M 90.25 174.800781 " fill-opacity="1" fill-rule="nonzero"/><path fill="#e6916b" d="M 209.816406 185.941406 C 209.816406 185.941406 210.375 291.925781 213.148438 294.699219 C 215.925781 297.476562 233.964844 298.863281 238.683594 298.585938 C 243.402344 298.308594 242.566406 294.421875 242.566406 294.421875 C 242.566406 294.421875 249.230469 293.3125 253.113281 293.867188 C 257 294.421875 261.71875 298.03125 265.050781 298.308594 C 268.378906 298.585938 269.488281 295.808594 271.433594 296.085938 C 273.375 296.363281 274.761719 293.867188 270.042969 290.539062 C 265.328125 287.210938 255.335938 281.105469 250.0625 279.441406 C 244.789062 277.777344 233.964844 279.441406 231.1875 278.054688 C 228.414062 276.667969 237.015625 203.699219 236.460938 190.933594 C 235.90625 178.171875 209.816406 185.941406 209.816406 185.941406 Z M 209.816406 185.941406 " fill-opacity="1" fill-rule="nonzero"/><path fill="#db805c" d="M 211.378906 230.359375 C 213.441406 229.898438 215.46875 229.277344 217.480469 228.648438 C 223.042969 226.914062 228.683594 225.4375 234.296875 223.863281 C 235.585938 209.046875 236.671875 195.734375 236.460938 190.933594 C 235.90625 178.171875 209.820312 185.941406 209.820312 185.941406 C 209.820312 185.941406 209.929688 206.875 210.292969 230.375 C 210.65625 230.371094 211.015625 230.367188 211.378906 230.359375 Z M 211.378906 230.359375 " fill-opacity="1" fill-rule="nonzero"/><path fill="#db805c" d="M 243.121094 293.867188 C 242.777344 292.714844 242.335938 291.492188 241.367188 290.710938 C 240.121094 289.703125 238.378906 289.960938 236.878906 289.960938 C 235.273438 289.964844 233.667969 290 232.0625 289.945312 C 230.585938 289.898438 229.109375 289.71875 227.796875 288.992188 C 226.664062 288.359375 225.648438 290.097656 226.78125 290.730469 C 229.253906 292.105469 232.121094 291.976562 234.863281 291.976562 C 235.628906 291.976562 236.398438 291.976562 237.167969 291.976562 C 237.90625 291.976562 238.695312 291.898438 239.429688 292 C 240.554688 292.160156 240.898438 293.46875 241.179688 294.402344 C 241.546875 295.640625 243.492188 295.113281 243.121094 293.867188 Z M 243.121094 293.867188 " fill-opacity="1" fill-rule="nonzero"/><path fill="#db805c" d="M 267.6875 293.753906 C 266.117188 292.695312 264.207031 291.976562 262.5 291.152344 C 258.871094 289.402344 255.210938 287.707031 251.527344 286.070312 C 250.355469 285.546875 249.328125 287.28125 250.511719 287.808594 C 253.496094 289.136719 256.46875 290.5 259.421875 291.902344 C 260.898438 292.605469 262.367188 293.316406 263.835938 294.039062 C 264.230469 294.230469 267.492188 295.65625 267.042969 296.140625 C 266.167969 297.09375 267.589844 298.519531 268.46875 297.5625 C 269.636719 296.296875 268.984375 294.625 267.6875 293.753906 Z M 267.6875 293.753906 " fill-opacity="1" fill-rule="nonzero"/><path fill="#b3aa78" d="M 192.660156 160.023438 C 192.660156 160.023438 158.199219 168.59375 155.800781 169.621094 C 153.398438 170.648438 144.679688 191.40625 144.679688 191.40625 C 144.679688 191.40625 106.425781 192.585938 104.367188 190.53125 C 102.308594 188.472656 104.367188 177.847656 104.367188 177.847656 C 104.367188 177.847656 91.296875 173.257812 76.566406 165.976562 C 75.460938 165.429688 75.527344 161.027344 74.40625 160.449219 C 73.144531 159.800781 70.691406 162.972656 69.421875 162.289062 C 65.925781 160.398438 62.4375 158.378906 59.105469 156.253906 C 39.21875 143.570312 36.820312 142.886719 39.90625 136.714844 C 42.992188 130.546875 54.304688 113.75 63.5625 111.007812 C 72.820312 108.265625 80.023438 105.867188 102.308594 97.640625 C 124.597656 89.414062 139.683594 88.042969 157.859375 86.671875 C 176.03125 85.300781 190.773438 90.441406 201.40625 95.238281 C 212.035156 100.039062 237.75 111.691406 240.152344 134.316406 C 242.550781 156.9375 243.921875 187.789062 242.894531 191.558594 C 241.863281 195.328125 205.175781 199.785156 201.402344 198.414062 C 197.632812 197.042969 201.0625 191.558594 195.917969 169.277344 C 194.789062 164.386719 192.660156 160.023438 192.660156 160.023438 Z M 192.660156 160.023438 " fill-opacity="1" fill-rule="nonzero"/><path fill="#b3aa78" d="M 184.832031 146.886719 L 189.859375 157.625 C 189.859375 157.625 196.945312 148.941406 201.976562 137.058594 C 207.003906 125.175781 196.488281 130.890625 196.488281 130.890625 C 196.488281 130.890625 191.230469 142.542969 184.832031 146.886719 Z M 184.832031 146.886719 " fill-opacity="1" fill-rule="nonzero"/><path fill="#978b54" d="M 199.21875 140.332031 C 196.5 146.019531 193.703125 151.789062 189.621094 156.636719 C 188.347656 152.984375 186.859375 149.417969 185.121094 145.957031 C 184.769531 145.253906 183.757812 145.699219 183.871094 146.367188 C 183.851562 146.402344 183.824219 146.425781 183.8125 146.46875 C 182.203125 151.042969 180.097656 155.582031 176.871094 159.257812 C 174.179688 162.324219 170.671875 164.332031 167.101562 166.21875 C 168.832031 165.722656 170.636719 165.210938 172.425781 164.703125 C 174.46875 163.390625 176.375 161.890625 177.992188 160.007812 C 180.992188 156.523438 183.050781 152.363281 184.648438 148.074219 C 186.207031 151.332031 187.582031 154.675781 188.722656 158.101562 C 188.863281 158.523438 189.453125 158.882812 189.828125 158.460938 C 194.46875 153.265625 197.511719 146.996094 200.492188 140.761719 C 200.867188 139.980469 199.589844 139.5625 199.21875 140.332031 Z M 199.21875 140.332031 " fill-opacity="1" fill-rule="nonzero"/><path fill="#978b54" d="M 126.539062 174.273438 C 126.167969 173.652344 125.554688 173.109375 125.0625 172.585938 C 123.933594 171.394531 122.734375 170.273438 121.484375 169.210938 C 121.488281 169.191406 121.5 169.171875 121.5 169.152344 C 121.882812 166.121094 122.40625 163.105469 123.058594 160.121094 C 123.246094 159.28125 121.949219 158.921875 121.765625 159.765625 C 121.09375 162.832031 120.570312 165.925781 120.175781 169.039062 C 118.792969 169.839844 117.425781 170.671875 116.089844 171.542969 C 115.519531 171.910156 114.867188 172.261719 114.410156 172.773438 C 113.894531 173.347656 113.800781 174.097656 113.675781 174.824219 C 113.074219 178.34375 112.46875 181.863281 111.867188 185.382812 C 111.722656 186.230469 113.015625 186.59375 113.164062 185.742188 C 113.710938 182.546875 114.257812 179.351562 114.804688 176.15625 C 114.925781 175.449219 114.917969 174.398438 115.320312 173.78125 C 115.679688 173.230469 116.5 172.871094 117.03125 172.527344 C 118.234375 171.753906 119.457031 171.011719 120.691406 170.292969 C 121.769531 171.222656 122.8125 172.1875 123.800781 173.210938 C 124.269531 173.695312 125.109375 174.332031 125.378906 174.953125 C 125.65625 175.582031 125.371094 176.6875 125.332031 177.359375 C 125.125 180.855469 124.917969 184.351562 124.710938 187.847656 C 124.660156 188.710938 126.003906 188.707031 126.054688 187.847656 C 126.28125 184.019531 126.507812 180.1875 126.730469 176.359375 C 126.773438 175.667969 126.914062 174.90625 126.539062 174.273438 Z M 126.539062 174.273438 " fill-opacity="1" fill-rule="nonzero"/><path fill="#978b54" d="M 170.746094 110.800781 C 165.261719 111.9375 159.984375 113.9375 155.121094 116.714844 C 154.984375 116.792969 154.910156 116.894531 154.859375 117.007812 C 152.398438 114.039062 149.222656 111.691406 145.253906 110.363281 C 139.160156 108.320312 132.046875 109.109375 127.167969 113.503906 C 126.203125 114.371094 127.632812 115.792969 128.59375 114.925781 C 132.625 111.296875 138.457031 110.574219 143.570312 111.957031 C 149.128906 113.460938 153.421875 117.453125 156.101562 122.464844 C 162.640625 134.679688 158.914062 148.921875 155.058594 161.335938 C 152.574219 169.332031 149.863281 177.257812 146.9375 185.105469 C 146.484375 186.320312 148.429688 186.84375 148.878906 185.640625 C 151.632812 178.253906 154.195312 170.800781 156.558594 163.28125 C 158.863281 155.957031 161.097656 148.507812 161.597656 140.800781 C 162.105469 132.992188 160.324219 124.253906 155.59375 117.941406 C 155.660156 117.925781 155.730469 117.910156 155.800781 117.871094 C 160.570312 115.148438 165.726562 113.207031 171.105469 112.09375 C 171.949219 111.921875 171.59375 110.625 170.746094 110.800781 Z M 170.746094 110.800781 " fill-opacity="1" fill-rule="nonzero"/><path fill="#978b54" d="M 206.1875 157.9375 C 198.035156 158.75 187.914062 160.605469 183.042969 162.335938 C 181.820312 162.769531 182.152344 163.707031 183.433594 163.515625 C 189.25 162.652344 198.402344 160.730469 206.1875 159.953125 C 207.464844 159.824219 207.480469 157.808594 206.1875 157.9375 Z M 206.1875 157.9375 " fill-opacity="1" fill-rule="nonzero"/><path fill="#978b54" d="M 114.652344 127.609375 C 112.371094 134.550781 110.34375 141.578125 108.558594 148.664062 C 107.746094 142.300781 107.929688 135.820312 109.113281 129.511719 C 109.347656 128.246094 107.40625 127.703125 107.167969 128.976562 C 105.738281 136.613281 105.699219 144.417969 107.050781 152.070312 C 107.113281 152.425781 107.3125 152.636719 107.558594 152.730469 C 106.492188 157.210938 105.519531 161.714844 104.65625 166.238281 C 103.953125 169.925781 103.316406 173.628906 102.746094 177.34375 C 102.550781 178.609375 104.492188 179.15625 104.6875 177.878906 C 106.714844 164.722656 109.574219 151.699219 113.269531 138.910156 C 114.3125 135.300781 115.421875 131.714844 116.59375 128.144531 C 117 126.910156 115.054688 126.378906 114.652344 127.609375 Z M 114.652344 127.609375 " fill-opacity="1" fill-rule="nonzero"/><path fill="#978b54" d="M 102.878906 131.425781 C 94.421875 137.238281 85.949219 143.359375 79.335938 151.292969 C 77.484375 153.511719 75.796875 155.863281 74.308594 158.34375 C 73.863281 159.085938 75.023438 159.761719 75.46875 159.019531 C 80.695312 150.300781 88.429688 143.503906 96.546875 137.539062 C 98.851562 135.84375 101.199219 134.207031 103.558594 132.585938 C 104.265625 132.097656 103.59375 130.933594 102.878906 131.425781 Z M 102.878906 131.425781 " fill-opacity="1" fill-rule="nonzero"/><path fill="#978b54" d="M 121.820312 176.972656 C 121.765625 176.765625 121.59375 176.566406 121.433594 176.421875 C 121.300781 176.300781 121.148438 176.1875 120.984375 176.109375 C 120.660156 175.949219 120.296875 175.847656 119.929688 175.875 C 119.511719 175.902344 119.148438 176.042969 118.824219 176.308594 C 118.546875 176.53125 118.375 176.859375 118.296875 177.210938 C 118.003906 177.582031 117.898438 178.09375 118.003906 178.578125 C 118.175781 179.359375 118.996094 179.832031 119.765625 179.742188 C 120.214844 179.6875 120.605469 179.527344 120.953125 179.230469 C 121.273438 178.964844 121.476562 178.59375 121.628906 178.210938 C 121.6875 178.0625 121.730469 177.910156 121.765625 177.753906 C 121.789062 177.625 121.808594 177.492188 121.824219 177.363281 C 121.839844 177.234375 121.855469 177.105469 121.820312 176.972656 Z M 121.820312 176.972656 " fill-opacity="1" fill-rule="nonzero"/><path fill="#978b54" d="M 242.242188 179.230469 C 242.535156 178.890625 242.828125 178.550781 243.125 178.210938 C 243.105469 177.570312 243.085938 176.914062 243.0625 176.242188 L 241.074219 178.53125 C 240.453125 179.246094 239.65625 179.964844 239.261719 180.839844 C 238.84375 181.769531 238.988281 182.875 238.992188 183.867188 L 239.050781 193.839844 C 239.535156 193.675781 239.984375 193.507812 240.390625 193.34375 L 240.34375 184.875 C 240.335938 183.914062 240.214844 182.863281 240.34375 181.910156 C 240.484375 180.875 241.589844 179.980469 242.242188 179.230469 Z M 242.242188 179.230469 " fill-opacity="1" fill-rule="nonzero"/><path fill="#978b54" d="M 193.699219 91.773438 C 190.261719 89.160156 185.535156 89.421875 181.8125 91.269531 C 177.632812 93.339844 175.023438 97.476562 173.457031 101.726562 C 171.597656 106.777344 170.871094 112.261719 170.382812 117.59375 C 169.847656 123.460938 169.738281 129.359375 169.558594 135.246094 C 169.355469 142.003906 169.152344 148.765625 168.949219 155.523438 C 168.9375 155.992188 169.550781 156.417969 169.960938 156.105469 C 174.453125 152.707031 179.140625 149.582031 184.007812 146.746094 C 184.753906 146.3125 184.078125 145.148438 183.332031 145.585938 C 178.839844 148.203125 174.507812 151.078125 170.332031 154.175781 C 170.488281 148.972656 170.648438 143.769531 170.804688 138.570312 C 170.96875 132.988281 171.070312 127.394531 171.410156 121.816406 C 171.734375 116.453125 172.292969 111.054688 173.609375 105.828125 C 174.710938 101.449219 176.53125 96.925781 180.097656 93.964844 C 183.636719 91.027344 189.179688 90.011719 193.019531 92.929688 C 193.707031 93.453125 194.378906 92.289062 193.699219 91.773438 Z M 193.699219 91.773438 " fill-opacity="1" fill-rule="nonzero"/><path fill="#978b54" d="M 181.046875 150.652344 C 181.027344 150.5625 180.988281 150.472656 180.945312 150.390625 C 180.90625 150.3125 180.847656 150.242188 180.785156 150.179688 C 180.675781 150.074219 180.539062 149.996094 180.390625 149.953125 C 180.292969 149.921875 180.183594 149.914062 180.078125 149.910156 C 180.03125 149.90625 179.984375 149.90625 179.9375 149.910156 C 179.796875 149.917969 179.648438 149.933594 179.511719 149.972656 C 179.445312 149.992188 179.382812 150.019531 179.320312 150.046875 C 179.253906 150.074219 179.183594 150.101562 179.121094 150.140625 C 179.042969 150.191406 178.96875 150.25 178.902344 150.3125 C 178.828125 150.375 178.773438 150.457031 178.714844 150.53125 C 178.671875 150.589844 178.648438 150.648438 178.621094 150.714844 C 178.59375 150.777344 178.566406 150.839844 178.550781 150.90625 C 178.511719 151.117188 178.511719 151.277344 178.554688 151.484375 C 178.574219 151.574219 178.617188 151.660156 178.652344 151.746094 C 178.660156 151.761719 178.675781 151.773438 178.683594 151.789062 C 178.6875 151.792969 178.6875 151.804688 178.691406 151.808594 C 178.730469 151.890625 178.789062 151.964844 178.847656 152.03125 C 178.910156 152.101562 178.992188 152.15625 179.066406 152.210938 C 179.175781 152.285156 179.308594 152.335938 179.441406 152.359375 C 179.644531 152.394531 179.824219 152.398438 180.027344 152.347656 C 180.363281 152.261719 180.628906 152.027344 180.820312 151.742188 C 180.902344 151.625 180.957031 151.484375 181.003906 151.351562 C 181.050781 151.222656 181.070312 151.078125 181.074219 150.941406 C 181.082031 150.84375 181.0625 150.746094 181.046875 150.652344 Z M 181.046875 150.652344 " fill-opacity="1" fill-rule="nonzero"/><path fill="#db805c" d="M 178.710938 128.960938 C 178.710938 128.960938 180.945312 142.085938 183.230469 144.828125 C 185.921875 148.054688 192.605469 133.402344 194.433594 127.003906 C 196.261719 120.605469 178.710938 128.960938 178.710938 128.960938 Z M 178.710938 128.960938 " fill-opacity="1" fill-rule="nonzero"/><path fill="#db805c" d="M 197.953125 131.753906 C 197.953125 131.753906 189.894531 128.796875 185.453125 128.464844 C 181.011719 128.136719 178.710938 128.960938 178.710938 128.960938 C 178.710938 128.960938 177.722656 117.121094 178.710938 107.257812 C 179.699219 97.394531 184.796875 92.789062 188.25 93.28125 C 191.703125 93.777344 196.800781 116.300781 198.941406 119.917969 C 201.078125 123.535156 197.953125 131.753906 197.953125 131.753906 Z M 197.953125 131.753906 " fill-opacity="1" fill-rule="nonzero"/><path fill="#1a1a1a" d="M 194.609375 107.066406 C 194.398438 107.261719 194.1875 107.460938 193.988281 107.664062 C 190.785156 110.9375 188.949219 115.207031 188.027344 119.640625 C 187.40625 122.609375 187.164062 125.644531 187.117188 128.679688 C 191.648438 129.441406 197.953125 131.753906 197.953125 131.753906 C 197.953125 131.753906 201.078125 123.535156 198.941406 119.917969 C 197.964844 118.269531 196.375 112.695312 194.609375 107.066406 Z M 194.609375 107.066406 " fill-opacity="1" fill-rule="nonzero"/><path fill="#e6916b" d="M 197.757812 94.914062 C 197.757812 94.914062 195.953125 88.972656 191.011719 90.507812 C 187.242188 91.675781 183.644531 99.859375 185.289062 104.296875 C 186.933594 108.738281 191.210938 108.738281 191.210938 108.738281 C 191.210938 108.738281 190.058594 123.535156 191.703125 129.945312 C 193.347656 136.359375 205.355469 145.070312 211.769531 144.578125 C 218.183594 144.085938 223.773438 139.8125 232.324219 128.300781 C 240.878906 116.792969 241.648438 109.175781 241.980469 107.695312 C 242.308594 106.214844 243.507812 109.558594 233.640625 108.410156 C 223.773438 107.257812 214.890625 96.898438 213.082031 92.789062 C 211.273438 88.679688 212.769531 93.855469 209.644531 96.648438 C 206.519531 99.445312 204.617188 97.742188 202.808594 98.398438 C 201 99.054688 199.023438 103.660156 199.023438 103.660156 L 196.351562 101.054688 C 196.355469 101.054688 198.25 97.542969 197.757812 94.914062 Z M 197.757812 94.914062 " fill-opacity="1" fill-rule="nonzero"/><path fill="#6c4e4e" d="M 224.042969 137.574219 C 223.292969 136.449219 211.171875 128.652344 203.40625 130.636719 C 194.589844 132.886719 195.609375 116.480469 195.796875 112.542969 C 195.855469 111.304688 196.183594 107.535156 196.976562 105.398438 C 206.015625 104.65625 208.570312 97.667969 208.570312 97.667969 L 197.027344 93.878906 C 197.027344 93.878906 192.148438 104.84375 191.210938 108.738281 C 190.273438 112.632812 189.335938 131.949219 191.960938 135.886719 C 194.589844 139.824219 208.285156 148.078125 213.726562 146.953125 C 219.164062 145.828125 224.792969 138.699219 224.042969 137.574219 Z M 224.042969 137.574219 " fill-opacity="1" fill-rule="nonzero"/><path fill="#e26f53" d="M 219.234375 130.933594 C 219.101562 130.726562 218.886719 130.507812 218.632812 130.472656 C 218.0625 130.382812 217.492188 130.296875 216.917969 130.210938 C 216.785156 130.167969 216.652344 130.160156 216.519531 130.191406 C 216.382812 130.199219 216.257812 130.238281 216.144531 130.3125 C 215.933594 130.433594 215.734375 130.671875 215.679688 130.914062 C 215.621094 131.171875 215.632812 131.460938 215.78125 131.6875 C 215.914062 131.894531 216.132812 132.113281 216.382812 132.152344 C 216.953125 132.238281 217.527344 132.324219 218.097656 132.414062 C 218.230469 132.453125 218.363281 132.460938 218.496094 132.429688 C 218.632812 132.425781 218.757812 132.382812 218.871094 132.3125 C 219.082031 132.1875 219.28125 131.949219 219.335938 131.707031 C 219.394531 131.453125 219.382812 131.164062 219.234375 130.933594 Z M 219.234375 130.933594 " fill-opacity="1" fill-rule="nonzero"/><path fill="#1a1a1a" d="M 212.382812 113.789062 C 212.316406 113.667969 212.21875 113.558594 212.132812 113.453125 C 212.097656 113.414062 212.066406 113.375 212.027344 113.34375 C 211.941406 113.269531 211.847656 113.195312 211.753906 113.132812 C 211.679688 113.074219 211.601562 113.015625 211.515625 112.976562 C 211.382812 112.914062 211.246094 112.847656 211.105469 112.820312 C 210.960938 112.792969 210.804688 112.765625 210.652344 112.769531 C 210.320312 112.777344 210.074219 112.859375 209.777344 112.992188 C 209.722656 113.019531 209.671875 113.046875 209.625 113.082031 C 209.511719 113.160156 209.402344 113.246094 209.304688 113.339844 C 209.277344 113.355469 209.242188 113.359375 209.21875 113.378906 C 209.097656 113.453125 208.976562 113.542969 208.875 113.644531 C 208.664062 113.867188 208.539062 114.09375 208.4375 114.382812 C 208.421875 114.429688 208.410156 114.476562 208.398438 114.527344 C 208.375 114.671875 208.34375 114.828125 208.351562 114.976562 C 208.359375 115.164062 208.394531 115.328125 208.445312 115.488281 C 208.457031 115.585938 208.464844 115.683594 208.488281 115.777344 C 208.515625 115.898438 208.585938 116.042969 208.632812 116.140625 C 208.652344 116.191406 208.679688 116.238281 208.714844 116.28125 C 208.800781 116.402344 208.886719 116.527344 209.003906 116.621094 C 209.113281 116.710938 209.226562 116.808594 209.355469 116.875 C 209.488281 116.9375 209.632812 117.007812 209.777344 117.039062 C 210.109375 117.117188 210.363281 117.105469 210.691406 117.054688 C 210.746094 117.046875 210.804688 117.03125 210.859375 117.011719 C 211.007812 116.960938 211.15625 116.902344 211.296875 116.824219 C 211.351562 116.792969 211.402344 116.757812 211.453125 116.71875 C 211.578125 116.625 211.707031 116.53125 211.820312 116.421875 C 211.972656 116.269531 212.109375 116.085938 212.230469 115.910156 C 212.363281 115.71875 212.457031 115.5 212.535156 115.28125 C 212.585938 115.128906 212.597656 114.964844 212.617188 114.804688 C 212.625 114.738281 212.625 114.679688 212.621094 114.613281 C 212.589844 114.304688 212.535156 114.0625 212.382812 113.789062 Z M 212.382812 113.789062 " fill-opacity="1" fill-rule="nonzero"/><path fill="#1a1a1a" d="M 233.070312 123.171875 C 232.925781 122.773438 232.667969 122.421875 232.289062 122.21875 C 232.140625 122.140625 231.980469 122.066406 231.816406 122.035156 C 231.574219 121.992188 231.402344 121.980469 231.167969 122.011719 C 230.753906 122.066406 230.417969 122.25 230.105469 122.515625 C 229.832031 122.753906 229.644531 123.082031 229.523438 123.417969 C 229.503906 123.464844 229.492188 123.519531 229.480469 123.570312 C 229.402344 123.757812 229.367188 123.917969 229.34375 124.148438 C 229.304688 124.570312 229.496094 124.964844 229.761719 125.28125 C 229.96875 125.53125 230.296875 125.714844 230.609375 125.800781 C 231.285156 125.988281 232.035156 125.765625 232.511719 125.25 C 232.761719 124.976562 232.929688 124.679688 233.046875 124.328125 C 233.167969 123.976562 233.203125 123.527344 233.070312 123.171875 Z M 233.070312 123.171875 " fill-opacity="1" fill-rule="nonzero"/><path fill="#4a3333" d="M 218.871094 141.625 C 217.652344 141.464844 216.28125 141.25 215.308594 140.429688 C 214.867188 140.058594 214.566406 139.609375 214.417969 139.046875 C 214.253906 138.414062 214.089844 137.828125 213.589844 137.375 C 212.605469 136.492188 211.34375 136.914062 210.179688 136.976562 C 208.972656 137.035156 207.878906 136.539062 207.078125 135.648438 C 206.210938 134.679688 204.789062 136.109375 205.652344 137.070312 C 206.605469 138.128906 207.914062 138.785156 209.324219 138.953125 C 209.984375 139.03125 210.605469 138.9375 211.257812 138.859375 C 211.519531 138.824219 211.789062 138.796875 212.054688 138.816406 C 212.285156 138.835938 212.273438 138.871094 212.363281 139.117188 C 212.582031 139.738281 212.675781 140.34375 213.058594 140.90625 C 213.453125 141.484375 213.949219 141.957031 214.53125 142.347656 C 215.808594 143.210938 217.375 143.441406 218.871094 143.636719 C 219.410156 143.710938 219.878906 143.125 219.878906 142.632812 C 219.878906 142.027344 219.410156 141.695312 218.871094 141.625 Z M 218.871094 141.625 " fill-opacity="1" fill-rule="nonzero"/><path fill="#6c4e4e" d="M 215.359375 109.222656 C 212.984375 108.375 210.511719 107.863281 207.996094 107.664062 C 207.453125 107.621094 206.992188 108.15625 206.992188 108.671875 C 206.992188 109.253906 207.453125 109.632812 207.996094 109.679688 C 210.320312 109.863281 212.617188 110.375 214.824219 111.164062 C 215.335938 111.347656 215.925781 110.957031 216.0625 110.460938 C 216.214844 109.902344 215.871094 109.40625 215.359375 109.222656 Z M 215.359375 109.222656 " fill-opacity="1" fill-rule="nonzero"/><path fill="#6c4e4e" d="M 237.320312 120.429688 C 236 119.246094 234.675781 118.066406 233.355469 116.886719 C 232.960938 116.535156 232.3125 116.46875 231.929688 116.886719 C 231.578125 117.269531 231.511719 117.9375 231.929688 118.3125 L 235.898438 121.851562 C 236.289062 122.203125 236.9375 122.269531 237.320312 121.851562 C 237.671875 121.46875 237.742188 120.800781 237.320312 120.429688 Z M 237.320312 120.429688 " fill-opacity="1" fill-rule="nonzero"/><path fill="#978b54" d="M 189.378906 70.4375 C 189.378906 70.4375 185.554688 77.179688 188.328125 85.253906 C 191.101562 93.328125 196.121094 103.324219 213.558594 112.066406 C 231 120.804688 244.625 120.511719 252.214844 118.816406 C 259.800781 117.121094 264.71875 109.957031 265.746094 106.382812 C 266.773438 102.804688 189.378906 70.4375 189.378906 70.4375 Z M 189.378906 70.4375 " fill-opacity="1" fill-rule="nonzero"/><path fill="#b3aa78" d="M 237.660156 68.328125 C 238.894531 68.945312 240.113281 69.597656 241.308594 70.277344 C 242.503906 70.957031 243.675781 71.667969 244.820312 72.40625 C 245.964844 73.144531 247.082031 73.90625 248.164062 74.695312 C 249.246094 75.484375 250.296875 76.292969 251.304688 77.125 C 252.316406 77.953125 253.289062 78.800781 254.21875 79.664062 C 255.148438 80.53125 256.03125 81.40625 256.871094 82.296875 C 257.710938 83.1875 258.5 84.085938 259.238281 84.996094 C 259.976562 85.902344 260.664062 86.816406 261.296875 87.730469 C 261.933594 88.648438 262.507812 89.5625 263.03125 90.480469 C 263.550781 91.394531 264.015625 92.308594 264.417969 93.214844 C 264.824219 94.121094 265.167969 95.019531 265.449219 95.910156 C 265.734375 96.796875 265.953125 97.671875 266.113281 98.535156 C 266.273438 99.398438 266.371094 100.246094 266.402344 101.074219 C 266.4375 101.902344 266.410156 102.707031 266.316406 103.492188 C 266.226562 104.277344 266.070312 105.039062 265.855469 105.773438 C 265.636719 106.507812 265.359375 107.214844 265.019531 107.894531 C 264.679688 108.574219 264.28125 109.21875 263.824219 109.832031 C 263.363281 110.445312 262.847656 111.027344 262.273438 111.570312 C 261.703125 112.113281 261.074219 112.621094 260.390625 113.089844 C 259.707031 113.5625 258.972656 113.992188 258.183594 114.378906 C 257.398438 114.769531 256.566406 115.117188 255.683594 115.425781 C 254.800781 115.730469 253.875 115.996094 252.90625 116.214844 C 251.941406 116.4375 250.933594 116.613281 249.886719 116.746094 C 248.839844 116.878906 247.761719 116.964844 246.648438 117.007812 C 245.535156 117.050781 244.390625 117.046875 243.222656 117 C 242.050781 116.953125 240.859375 116.859375 239.644531 116.722656 C 238.425781 116.585938 237.195312 116.40625 235.945312 116.179688 C 234.695312 115.953125 233.433594 115.6875 232.164062 115.375 C 230.894531 115.0625 229.617188 114.710938 228.335938 114.316406 C 227.054688 113.921875 225.777344 113.488281 224.5 113.011719 C 223.21875 112.539062 221.949219 112.027344 220.6875 111.480469 C 219.425781 110.933594 218.175781 110.347656 216.941406 109.730469 C 215.703125 109.113281 214.488281 108.464844 213.292969 107.78125 C 212.097656 107.101562 210.925781 106.390625 209.78125 105.652344 C 208.636719 104.914062 207.519531 104.152344 206.4375 103.363281 C 205.351562 102.574219 204.304688 101.765625 203.292969 100.9375 C 202.28125 100.105469 201.3125 99.257812 200.382812 98.394531 C 199.453125 97.53125 198.570312 96.652344 197.730469 95.761719 C 196.890625 94.871094 196.101562 93.972656 195.363281 93.0625 C 194.621094 92.15625 193.9375 91.246094 193.300781 90.328125 C 192.667969 89.410156 192.089844 88.496094 191.570312 87.578125 C 191.046875 86.664062 190.585938 85.753906 190.179688 84.84375 C 189.777344 83.9375 189.433594 83.039062 189.148438 82.152344 C 188.867188 81.261719 188.644531 80.386719 188.488281 79.523438 C 188.328125 78.660156 188.230469 77.816406 188.195312 76.988281 C 188.164062 76.160156 188.191406 75.351562 188.285156 74.566406 C 188.375 73.78125 188.53125 73.019531 188.746094 72.285156 C 188.960938 71.550781 189.242188 70.84375 189.578125 70.164062 C 189.917969 69.488281 190.316406 68.839844 190.777344 68.226562 C 191.234375 67.613281 191.75 67.035156 192.324219 66.488281 C 192.898438 65.945312 193.527344 65.4375 194.210938 64.96875 C 194.894531 64.5 195.628906 64.070312 196.414062 63.679688 C 197.203125 63.289062 198.035156 62.941406 198.917969 62.632812 C 199.800781 62.328125 200.722656 62.0625 201.691406 61.84375 C 202.660156 61.625 203.667969 61.445312 204.714844 61.316406 C 205.761719 61.183594 206.839844 61.09375 207.953125 61.050781 C 209.066406 61.011719 210.207031 61.011719 211.378906 61.058594 C 212.550781 61.109375 213.742188 61.199219 214.957031 61.335938 C 216.171875 61.472656 217.40625 61.65625 218.65625 61.878906 C 219.90625 62.105469 221.164062 62.375 222.4375 62.683594 C 223.707031 62.996094 224.984375 63.347656 226.265625 63.742188 C 227.546875 64.136719 228.824219 64.574219 230.101562 65.046875 C 231.378906 65.519531 232.648438 66.03125 233.914062 66.578125 C 235.175781 67.128906 236.425781 67.710938 237.660156 68.328125 Z M 237.660156 68.328125 " fill-opacity="1" fill-rule="nonzero"/><path fill="#978b54" d="M 252.105469 96.9375 C 249.273438 101.585938 236.800781 99.9375 224.246094 93.261719 C 211.691406 86.582031 203.585938 77.273438 206.644531 72.753906 C 215.789062 59.222656 231.351562 56.457031 243.90625 63.132812 C 256.460938 69.8125 259.367188 84.230469 252.105469 96.9375 Z M 252.105469 96.9375 " fill-opacity="1" fill-rule="nonzero"/><path fill="#b3aa78" d="M 243.90625 63.132812 C 232.078125 56.839844 217.578125 58.941406 208.289062 70.523438 C 207.925781 75.425781 215.515625 83.304688 226.523438 89.160156 C 238.300781 95.421875 250 97.261719 253.746094 93.628906 C 258.792969 81.808594 255.382812 69.238281 243.90625 63.132812 Z M 243.90625 63.132812 " fill-opacity="1" fill-rule="nonzero"/><path fill="#978b54" d="M 245.214844 63.480469 C 245.023438 62.792969 244.558594 62.246094 243.957031 61.832031 C 243.796875 61.71875 243.613281 61.628906 243.421875 61.550781 C 243.195312 61.414062 242.953125 61.304688 242.679688 61.25 C 242.59375 61.230469 242.511719 61.222656 242.425781 61.210938 C 242 61.085938 241.542969 61.09375 241.128906 61.265625 C 240.660156 61.453125 240.351562 61.820312 240.175781 62.261719 C 240.144531 62.34375 240.121094 62.429688 240.105469 62.511719 C 239.992188 62.859375 239.992188 63.242188 240.128906 63.578125 C 240.292969 63.976562 240.542969 64.296875 240.84375 64.621094 C 240.914062 64.699219 241.023438 64.761719 241.136719 64.808594 C 241.5625 65.128906 242.085938 65.378906 242.578125 65.523438 C 243.074219 65.667969 243.625 65.628906 244.085938 65.390625 C 244.363281 65.246094 244.566406 65.023438 244.71875 64.769531 C 244.824219 64.660156 244.898438 64.535156 244.953125 64.398438 C 245.195312 64.160156 245.304688 63.804688 245.214844 63.480469 Z M 245.214844 63.480469 " fill-opacity="1" fill-rule="nonzero"/><path fill="#978b54" d="M 249.292969 77.972656 C 249.042969 74.957031 248.554688 71.914062 247.703125 69 C 247.027344 66.679688 245.894531 64.324219 243.550781 63.132812 C 243.015625 62.863281 242.511719 63.082031 242.242188 63.449219 C 242.191406 63.234375 242.054688 63.03125 241.804688 62.878906 C 237.648438 60.390625 232.421875 60.226562 227.753906 61.519531 C 222.832031 62.882812 218.664062 65.875 215.09375 69.265625 C 212.976562 71.277344 211.039062 73.445312 209.109375 75.609375 C 208.277344 76.542969 209.695312 77.871094 210.535156 76.933594 C 216.464844 70.28125 223.5 62.59375 233.535156 62.605469 C 236.117188 62.605469 238.613281 63.21875 240.792969 64.523438 C 241.3125 64.832031 241.808594 64.621094 242.074219 64.246094 C 242.132812 64.453125 242.277344 64.644531 242.535156 64.777344 C 244.730469 65.890625 245.476562 68.328125 246.019531 70.464844 C 246.714844 73.222656 247.160156 76.035156 247.347656 78.867188 C 247.726562 84.628906 247.058594 90.414062 245.382812 95.980469 C 245.027344 97.15625 246.972656 97.640625 247.324219 96.464844 C 249.128906 90.464844 249.816406 84.171875 249.292969 77.972656 Z M 249.292969 77.972656 " fill-opacity="1" fill-rule="nonzero"/><path fill="#978b54" d="M 252.289062 117.359375 C 250.691406 111.128906 249.097656 104.898438 247.5 98.667969 C 247.195312 97.488281 245.253906 98.007812 245.558594 99.191406 C 247.15625 105.421875 248.753906 111.652344 250.347656 117.882812 C 250.652344 119.0625 252.59375 118.542969 252.289062 117.359375 Z M 252.289062 117.359375 " fill-opacity="1" fill-rule="nonzero"/><path fill="#978b54" d="M 207.992188 77.09375 C 201.472656 78.429688 195.050781 80.164062 188.769531 82.289062 C 187.554688 82.699219 188.078125 84.523438 189.304688 84.109375 C 195.589844 81.980469 202.011719 80.246094 208.53125 78.914062 C 209.800781 78.652344 209.261719 76.832031 207.992188 77.09375 Z M 207.992188 77.09375 " fill-opacity="1" fill-rule="nonzero"/><path fill="#c7c09c" d="M 255.738281 79.527344 C 255.660156 79.023438 255.210938 76.859375 254.734375 76.988281 C 254.15625 77.144531 254.574219 78.652344 254.574219 80.214844 C 254.582031 84.191406 253.921875 87.65625 252.675781 91.460938 C 252.296875 92.632812 254.238281 93.109375 254.621094 91.945312 C 255.976562 87.792969 256.398438 83.804688 255.738281 79.527344 Z M 255.738281 79.527344 " fill-opacity="1" fill-rule="nonzero"/><path fill="#383838" d="M 203.5625 202.753906 L 206.789062 197.667969 L 211.367188 190.035156 C 211.367188 190.035156 215.441406 181.042969 217.476562 180.707031 C 219.511719 180.367188 235.628906 183.417969 236.988281 184.097656 C 238.34375 184.777344 227.824219 203.773438 226.976562 205.46875 C 226.128906 207.164062 203.5625 202.753906 203.5625 202.753906 Z M 203.5625 202.753906 " fill-opacity="1" fill-rule="nonzero"/><path fill="#1a1a1a" d="M 236.988281 184.097656 C 235.628906 183.417969 219.511719 180.367188 217.476562 180.707031 C 217.414062 180.714844 217.351562 180.734375 217.285156 180.761719 C 218.058594 182.589844 219.296875 185.34375 219.996094 185.980469 C 221.066406 186.953125 233.203125 188.894531 234.078125 188.992188 C 234.570312 189.046875 235.898438 187 236.964844 185.203125 C 237.136719 184.582031 237.164062 184.183594 236.988281 184.097656 Z M 236.988281 184.097656 " fill-opacity="1" fill-rule="nonzero"/><path fill="#2a2a2a" d="M 218.285156 187.238281 C 215.210938 191.996094 212.402344 196.917969 209.867188 201.980469 C 209.480469 202.753906 210.640625 203.433594 211.027344 202.660156 C 213.5625 197.59375 216.371094 192.675781 219.445312 187.914062 C 219.914062 187.1875 218.753906 186.511719 218.285156 187.238281 Z M 218.285156 187.238281 " fill-opacity="1" fill-rule="nonzero"/><path fill="#58964a" d="M 222.761719 183.6875 C 222.761719 184.351562 222.394531 184.886719 221.941406 184.886719 C 221.484375 184.886719 221.117188 184.351562 221.117188 183.6875 C 221.117188 183.027344 221.484375 182.488281 221.941406 182.488281 C 222.394531 182.488281 222.761719 183.027344 222.761719 183.6875 Z M 222.761719 183.6875 " fill-opacity="1" fill-rule="nonzero"/><path fill="#1a1a1a" d="M 135.949219 186.484375 C 135.949219 186.484375 144.308594 188.417969 144.679688 191.40625 C 145.054688 194.398438 133.089844 194.273438 133.089844 194.273438 Z M 135.949219 186.484375 " fill-opacity="1" fill-rule="nonzero"/><path fill="#e6916b" d="M 206.789062 197.667969 C 206.789062 197.667969 208.316406 201.550781 210.828125 202.007812 C 217.28125 203.179688 226.796875 203.214844 229.007812 201.742188 C 231.128906 202.664062 231.945312 204.460938 231.09375 205.816406 C 229.695312 208.046875 228.589844 208.214844 227.402344 208.554688 C 227.402344 208.554688 228.335938 210.554688 226.808594 212.589844 C 225.28125 214.625 223.71875 215.214844 223.71875 215.214844 C 223.71875 215.214844 222.90625 216.832031 222.226562 218.867188 C 221.546875 220.902344 216.796875 221.410156 216.796875 221.410156 C 216.796875 221.410156 217.644531 222.9375 215.78125 225.144531 C 213.914062 227.347656 205.261719 227.855469 200.511719 227.515625 C 195.757812 227.175781 184.902344 222.257812 181 223.105469 C 177.097656 223.953125 141.886719 235.164062 127.976562 239.234375 C 114.0625 243.304688 106.257812 239.742188 103.371094 232.28125 C 100.488281 224.816406 104.390625 195.304688 105.410156 188.859375 C 105.410156 188.859375 105.578125 183.773438 117.964844 183.941406 C 130.351562 184.109375 135.949219 186.484375 135.949219 186.484375 C 135.949219 186.484375 132.894531 208.363281 132.554688 209.382812 C 132.214844 210.398438 141.636719 211.742188 164.203125 208.011719 C 186.765625 204.28125 193.554688 197.835938 200.339844 194.273438 C 207.128906 190.710938 211.367188 190.035156 211.367188 190.035156 Z M 206.789062 197.667969 " fill-opacity="1" fill-rule="nonzero"/><path fill="#db805c" d="M 226.386719 208.519531 C 219.988281 209.746094 216.960938 209.125 210.601562 207.722656 C 209.339844 207.441406 208.796875 209.382812 210.066406 209.664062 C 216.792969 211.148438 221.484375 210.769531 226.542969 209.347656 C 227.789062 209 227.652344 208.277344 226.386719 208.519531 Z M 226.386719 208.519531 " fill-opacity="1" fill-rule="nonzero"/><path fill="#db805c" d="M 222.480469 215.179688 C 217.738281 215.773438 212.308594 214.925781 207.621094 214.3125 C 207.078125 214.242188 206.621094 214.828125 206.613281 215.320312 C 206.609375 215.921875 207.085938 216.257812 207.621094 216.328125 C 212.515625 216.96875 217.328125 217.03125 222.214844 216.023438 C 223.480469 215.761719 224.015625 214.988281 222.480469 215.179688 Z M 222.480469 215.179688 " fill-opacity="1" fill-rule="nonzero"/><path fill="#db805c" d="M 214.492188 220.941406 C 210.949219 220.894531 207.410156 220.613281 203.902344 220.082031 C 203.367188 220 202.820312 220.21875 202.664062 220.785156 C 202.535156 221.261719 202.828125 221.941406 203.367188 222.023438 C 207.050781 222.585938 212.007812 222.464844 216.113281 221.699219 C 217.386719 221.460938 215.789062 220.960938 214.492188 220.941406 Z M 214.492188 220.941406 " fill-opacity="1" fill-rule="nonzero"/><path fill="#db805c" d="M 139.226562 208.386719 C 134.546875 208.488281 129.871094 208.054688 125.296875 207.050781 C 124.695312 206.917969 124.0625 207.164062 123.863281 207.792969 C 123.6875 208.335938 123.996094 209.09375 124.605469 209.226562 C 129.378906 210.273438 134.246094 210.773438 139.136719 210.667969 C 140.597656 210.636719 140.699219 208.355469 139.226562 208.386719 Z M 139.226562 208.386719 " fill-opacity="1" fill-rule="nonzero"/><path fill="#46282e" d="M 311.335938 267.914062 C 311.335938 267.914062 313.726562 280.378906 313.992188 281.972656 C 314.253906 283.5625 317.835938 287.542969 317.308594 287.675781 C 316.777344 287.804688 314.253906 286.613281 313.59375 286.214844 C 312.929688 285.816406 312.132812 286.347656 310.675781 287.542969 C 309.214844 288.734375 309.214844 291.917969 307.488281 292.980469 C 305.765625 294.039062 303.910156 294.835938 304.703125 293.242188 C 305.5 291.652344 306.960938 289.398438 308.019531 287.011719 C 308.019531 287.011719 305.765625 287.675781 303.644531 290.328125 C 301.519531 292.980469 300.328125 293.640625 299 293.375 C 297.671875 293.109375 302.050781 288.070312 302.050781 288.070312 C 302.050781 288.070312 301.121094 287.941406 302.316406 285.15625 C 303.511719 282.371094 309.082031 282.769531 310.144531 281.839844 C 311.203125 280.910156 308.683594 269.902344 308.683594 269.902344 Z M 311.335938 267.914062 " fill-opacity="1" fill-rule="nonzero"/><path fill="#5e4449" d="M 284.671875 298.8125 C 285.601562 299.476562 295.417969 298.414062 296.214844 298.019531 C 296.214844 298.019531 294.355469 299.210938 292.765625 299.742188 C 291.171875 300.273438 296.480469 300.007812 297.9375 299.34375 C 299.398438 298.679688 301.121094 296.824219 301.121094 296.824219 C 301.121094 296.824219 300.988281 299.875 302.847656 300.800781 C 304.703125 301.730469 303.511719 298.945312 303.378906 296.558594 C 303.246094 294.171875 301.652344 294.171875 302.582031 289.796875 C 303.511719 285.417969 305.765625 274.28125 306.164062 272.554688 C 306.5625 270.832031 303.246094 271.230469 303.246094 271.230469 C 303.246094 271.628906 300.855469 286.878906 299.664062 290.722656 C 298.46875 294.570312 293.5625 293.109375 291.171875 292.710938 C 289.402344 292.417969 287.925781 294.601562 287.386719 295.910156 C 287.230469 295.90625 287.074219 295.902344 286.929688 295.894531 C 283.746094 295.761719 283.746094 298.148438 284.671875 298.8125 Z M 289.742188 295.953125 C 290.394531 295.253906 290.820312 294.988281 291.703125 295.101562 C 292.765625 295.234375 295.550781 295.894531 295.550781 295.894531 C 295.550781 295.894531 292.578125 295.96875 289.742188 295.953125 Z M 289.742188 295.953125 " fill-opacity="1" fill-rule="nonzero"/><path fill="#47648d" d="M 257.605469 158.972656 C 257.539062 161.320312 259.128906 163.148438 260.585938 164.816406 C 262.097656 166.550781 263.722656 168.183594 265.550781 169.585938 C 269.101562 172.308594 273.492188 173.953125 277.976562 173.289062 C 277.839844 174.414062 278.246094 175.5625 279.214844 176.285156 C 280.65625 177.367188 282.925781 176.925781 284.601562 176.886719 C 287.902344 176.808594 291.8125 177.289062 294.351562 174.894531 C 299.636719 177.179688 305.167969 179.5 311.050781 179.105469 C 312.046875 179.039062 312.421875 177.785156 311.558594 177.230469 C 309.007812 175.589844 306.699219 173.605469 304.6875 171.351562 C 307.976562 172.078125 311.273438 172.753906 314.585938 173.359375 C 315.386719 173.507812 316.25 172.675781 315.722656 171.882812 C 313.9375 169.175781 311.675781 166.820312 309.0625 164.9375 C 312.378906 164.277344 315.550781 162.898438 318.28125 160.835938 C 319.0625 160.246094 318.835938 159.011719 317.773438 158.957031 C 315.074219 158.820312 312.390625 158.398438 309.777344 157.710938 C 311.042969 157.289062 312.289062 156.832031 313.53125 156.351562 C 315.015625 155.773438 316.820312 155.308594 317.875 154.03125 C 318.277344 153.542969 318.28125 152.792969 317.671875 152.449219 C 316.480469 151.777344 315.21875 151.847656 313.902344 151.789062 C 312.417969 151.722656 310.992188 151.230469 309.582031 150.796875 L 304.308594 149.175781 C 305.667969 148.53125 307.0625 147.96875 308.535156 147.640625 C 310.273438 147.25 312.046875 147.359375 313.714844 146.652344 C 314.710938 146.230469 314.097656 144.824219 313.207031 144.773438 C 307.445312 144.464844 301.144531 142.835938 295.542969 144.523438 C 297.886719 141.460938 300.769531 138.820312 304.085938 136.777344 C 305.070312 136.167969 304.414062 134.671875 303.308594 134.933594 C 298.964844 135.964844 294.410156 136.675781 290.703125 139.332031 C 289.328125 140.316406 288.09375 141.449219 286.9375 142.664062 C 287.957031 138.25 288.707031 133.785156 288.898438 129.234375 C 288.941406 128.230469 287.5 127.871094 287.023438 128.726562 C 284.3125 133.5625 281.601562 138.398438 278.890625 143.230469 C 279.074219 139.289062 279.484375 135.359375 280.144531 131.464844 C 280.296875 130.582031 279.175781 129.636719 278.460938 130.484375 C 275.714844 133.742188 273.308594 137.199219 271.496094 141.070312 C 270.375 143.460938 269.464844 145.941406 268.777344 148.488281 C 268.003906 145.851562 267.71875 143.117188 268.351562 140.375 C 268.574219 139.425781 267.394531 138.648438 266.667969 139.394531 C 263.40625 142.757812 262.878906 148.132812 262.851562 152.59375 C 262.839844 154.6875 263.070312 156.800781 263.605469 158.816406 C 262.007812 158.292969 260.332031 157.992188 258.613281 157.964844 C 258.054688 157.957031 257.621094 158.4375 257.605469 158.972656 Z M 257.605469 158.972656 " fill-opacity="1" fill-rule="nonzero"/><path fill="#335381" d="M 266.53125 150.460938 C 267.734375 158.128906 274.542969 163.585938 281.488281 166.511719 C 282.269531 166.84375 281.925781 168.144531 281.128906 167.808594 C 273.777344 164.707031 267.460938 158.671875 266.175781 150.515625 C 266.042969 149.667969 266.394531 149.609375 266.53125 150.460938 Z M 266.53125 150.460938 " fill-opacity="1" fill-rule="nonzero"/><path fill="#335381" d="M 262.972656 162.328125 C 267.222656 165.625 273.03125 167.984375 278.558594 168.164062 C 279.421875 168.191406 279.425781 169.535156 278.558594 169.507812 C 272.644531 169.3125 267.472656 166.171875 262.921875 162.644531 C 262.238281 162.117188 262.296875 161.804688 262.972656 162.328125 Z M 262.972656 162.328125 " fill-opacity="1" fill-rule="nonzero"/><path fill="#335381" d="M 275.917969 150.71875 C 276.3125 156.464844 279.976562 162.035156 284.277344 165.859375 C 284.925781 166.433594 283.972656 167.378906 283.328125 166.808594 C 278.753906 162.742188 275.949219 156.953125 275.527344 150.859375 C 275.46875 149.996094 275.855469 149.859375 275.917969 150.71875 Z M 275.917969 150.71875 " fill-opacity="1" fill-rule="nonzero"/><path fill="#6980a2" d="M 294.054688 189.582031 C 294.054688 189.582031 292.472656 186.066406 293.847656 179.59375 C 295.226562 173.117188 295.503906 167.8125 289.992188 165.128906 C 284.476562 162.441406 279.792969 166.78125 277.105469 170.019531 C 274.417969 173.253906 266.394531 183.683594 266.046875 185.199219 C 265.703125 186.714844 277.242188 179.660156 278.691406 179.9375 C 280.136719 180.210938 276.554688 189.238281 276.554688 189.238281 C 276.554688 189.238281 278.414062 192.472656 280.6875 191.507812 C 282.960938 190.546875 283.238281 188.824219 285.304688 189.582031 C 287.371094 190.339844 287.371094 191.441406 289.027344 191.992188 C 290.679688 192.542969 294.332031 192.679688 294.054688 189.582031 Z M 294.054688 189.582031 " fill-opacity="1" fill-rule="nonzero"/><path fill="#597398" d="M 311.148438 270.777344 C 311.148438 270.777344 307.824219 276.589844 302.835938 274.929688 C 297.851562 273.269531 295.027344 269.777344 290.539062 268.285156 C 286.050781 266.789062 275.582031 260.308594 268.9375 250.34375 C 262.289062 240.375 266.777344 231.402344 266.777344 231.402344 C 266.777344 231.402344 262.121094 227.25 263.949219 221.269531 C 265.777344 215.289062 270.597656 207.980469 272.59375 201.335938 C 274.585938 194.691406 276.554688 189.238281 276.554688 189.238281 C 276.554688 189.238281 289.375 185.054688 294.03125 190.371094 C 294.03125 190.371094 294.859375 197.347656 300.34375 202.996094 C 305.828125 208.644531 321.949219 218.613281 329.261719 224.59375 C 336.574219 230.574219 336.980469 234.992188 343.667969 238 C 350.355469 241.003906 353.699219 242.46875 358.507812 243.21875 C 363.320312 243.96875 367.675781 243.855469 368.242188 244.609375 C 368.804688 245.359375 366.777344 246.523438 365.574219 246.710938 L 368.878906 247.875 C 368.878906 247.875 364.445312 251.144531 357.34375 251.40625 C 350.242188 251.667969 349.53125 251.40625 349.53125 251.40625 C 349.53125 251.40625 348.328125 252.15625 346.5625 252.722656 C 344.796875 253.285156 344.195312 253.398438 344.195312 253.398438 C 344.195312 253.398438 347.953125 254.863281 348.0625 255.875 C 348.175781 256.890625 345.507812 258.769531 343.855469 259.257812 C 342.203125 259.746094 340.699219 259.671875 340.699219 259.671875 C 340.699219 259.671875 340.625 262 337.542969 262.113281 C 334.464844 262.222656 329.042969 261.066406 324.585938 260.09375 C 324.585938 260.09375 319.878906 267.402344 311.148438 270.777344 Z M 311.148438 270.777344 " fill-opacity="1" fill-rule="nonzero"/><path fill="#46282e" d="M 300.804688 203.453125 C 300.8125 204.046875 300.773438 204.632812 300.660156 205.207031 C 300.5 206.015625 300.183594 206.804688 299.570312 207.378906 C 298.90625 208.003906 297.988281 208.242188 297.09375 208.269531 C 296.480469 208.289062 295.863281 208.257812 295.285156 208.035156 C 294.558594 207.753906 293.878906 207.351562 293.121094 207.136719 C 292.480469 206.957031 291.683594 206.90625 291.136719 207.355469 C 290.644531 207.761719 290.628906 208.375 290.277344 208.851562 C 290.078125 209.125 289.539062 209.226562 289.230469 209.335938 C 288.847656 209.464844 288.457031 209.582031 288.066406 209.695312 C 287.324219 209.914062 286.570312 210.121094 285.882812 210.484375 C 284.609375 211.160156 283.871094 212.441406 283.507812 213.800781 C 283.101562 215.316406 283.007812 216.917969 282.957031 218.480469 C 282.9375 219.160156 282.941406 219.839844 282.933594 220.519531 C 282.921875 221.304688 282.75 222.125 282.636719 222.902344 C 282.402344 224.453125 282.027344 226.027344 281 227.253906 C 280.429688 227.9375 279.667969 228.589844 278.855469 228.964844 C 278.019531 229.351562 277.070312 229.308594 276.171875 229.304688 C 275.382812 229.304688 274.542969 229.324219 273.828125 229.699219 C 273.230469 230.011719 272.867188 230.617188 272.605469 231.210938 C 272.34375 231.804688 272.125 232.464844 271.582031 232.867188 C 271.046875 233.265625 270.296875 233.375 269.644531 233.378906 C 268.460938 233.386719 266.777344 231.402344 266.777344 231.402344 C 266.777344 231.402344 262.121094 227.25 263.949219 221.269531 C 265.777344 215.289062 270.597656 207.980469 272.59375 201.335938 C 274.585938 194.691406 276.554688 189.234375 276.554688 189.234375 C 276.554688 189.234375 288.769531 187.710938 294.03125 190.371094 C 294.03125 190.371094 294.859375 197.347656 300.34375 202.996094 C 300.488281 203.144531 300.644531 203.296875 300.804688 203.453125 Z M 300.804688 203.453125 " fill-opacity="1" fill-rule="nonzero"/><path fill="#335381" d="M 279.257812 186.867188 C 279.683594 186.851562 279.976562 186.695312 280.308594 186.433594 C 280.617188 186.191406 280.921875 185.863281 281.324219 185.820312 C 282.039062 185.742188 282.496094 186.269531 283 186.671875 C 283.628906 187.175781 284.3125 187.386719 285.113281 187.25 C 285.6875 187.152344 286.3125 186.691406 286.898438 186.78125 C 287.742188 186.910156 288.449219 187.679688 289.125 188.148438 C 289.800781 188.621094 290.625 188.753906 291.429688 188.613281 C 292.257812 188.46875 292.953125 188.058594 293.507812 187.496094 C 293.738281 188.863281 294.054688 189.582031 294.054688 189.582031 C 294.332031 192.679688 290.679688 192.542969 289.027344 191.992188 C 287.371094 191.441406 287.371094 190.339844 285.304688 189.582031 C 283.238281 188.824219 282.960938 190.546875 280.6875 191.507812 C 278.414062 192.472656 276.554688 189.234375 276.554688 189.234375 C 276.554688 189.234375 277.039062 188.011719 277.582031 186.453125 C 278.078125 186.734375 278.640625 186.890625 279.257812 186.867188 Z M 279.257812 186.867188 " fill-opacity="1" fill-rule="nonzero"/><path fill="#265978" d="M 277.90625 177.226562 C 278.007812 177.046875 280.179688 173.917969 282.867188 171.921875 C 285.554688 169.925781 290.171875 171.234375 290.449219 171.507812 C 290.722656 171.785156 288.242188 175.019531 286.105469 176.46875 C 283.96875 177.914062 277.285156 178.328125 277.90625 177.226562 Z M 277.90625 177.226562 " fill-opacity="1" fill-rule="nonzero"/><path fill="#401635" d="M 282.308594 174.082031 C 282.308594 175.265625 283.269531 176.222656 284.453125 176.222656 C 285.636719 176.222656 286.597656 175.261719 286.597656 174.082031 C 286.597656 172.898438 285.636719 171.9375 284.453125 171.9375 C 283.269531 171.9375 282.308594 172.898438 282.308594 174.082031 Z M 282.308594 174.082031 " fill-opacity="1" fill-rule="nonzero"/><path fill="#000000" d="M 283.605469 174.148438 C 283.605469 174.578125 283.957031 174.929688 284.386719 174.929688 C 284.816406 174.929688 285.164062 174.578125 285.164062 174.148438 C 285.164062 173.71875 284.816406 173.371094 284.386719 173.371094 C 283.957031 173.371094 283.605469 173.71875 283.605469 174.148438 Z M 283.605469 174.148438 " fill-opacity="1" fill-rule="nonzero"/><path fill="#265978" d="M 266.488281 185.109375 C 268.320312 184.09375 270.175781 181.953125 271.695312 180.519531 C 272.984375 179.296875 274.234375 177.320312 276.203125 178 C 277.015625 178.277344 276.664062 179.574219 275.84375 179.292969 C 274.972656 178.992188 274.070312 179.660156 273.40625 180.164062 C 272.667969 180.726562 272.011719 181.390625 271.335938 182.023438 C 269.945312 183.335938 268.550781 184.140625 266.878906 185.066406 C 266.125 185.488281 265.730469 185.527344 266.488281 185.109375 Z M 266.488281 185.109375 " fill-opacity="1" fill-rule="nonzero"/><path fill="#335381" d="M 319.25 258.371094 C 324.234375 259.59375 331.121094 260.96875 333.683594 261.296875 C 334.894531 261.449219 336.121094 261.5625 337.339844 261.480469 C 337.925781 261.441406 338.546875 261.367188 339.105469 261.171875 C 339.382812 261.078125 339.691406 260.957031 339.882812 260.722656 C 339.949219 260.636719 340.085938 260.234375 339.996094 260.0625 C 339.808594 260.039062 339.621094 260.023438 339.4375 259.988281 C 338.789062 259.863281 338.800781 258.824219 339.4375 258.691406 C 339.773438 258.621094 340.09375 258.65625 340.371094 258.773438 C 342.207031 258.980469 344.078125 258.539062 345.644531 257.546875 C 346.0625 257.28125 346.453125 256.972656 346.8125 256.628906 C 346.921875 256.523438 347.210938 256.328125 347.253906 256.171875 C 347.363281 255.808594 347.15625 255.789062 346.875 255.621094 C 345.789062 254.957031 344.621094 254.394531 343.5 253.785156 C 342.929688 253.476562 343.167969 252.492188 343.839844 252.535156 C 345.347656 252.632812 346.820312 252.324219 348.121094 251.539062 C 348.242188 251.46875 348.878906 250.996094 348.632812 250.789062 C 348.503906 250.546875 347.800781 250.253906 347.5625 250.101562 C 346.851562 249.640625 346.140625 249.179688 345.429688 248.722656 C 345.003906 248.449219 344.988281 247.832031 345.429688 247.5625 C 346.171875 247.105469 345.902344 246.085938 345.457031 245.519531 C 344.871094 244.78125 343.957031 244.28125 343.191406 243.757812 C 341.355469 242.5 339.371094 241.4375 337.679688 239.992188 C 334.851562 237.566406 335.347656 237.140625 339.757812 240.152344 L 343.867188 242.597656 C 344.742188 243.191406 345.710938 243.757812 346.40625 244.570312 C 347.234375 245.539062 347.507812 246.996094 346.835938 248.019531 C 347.703125 248.5625 348.578125 249.101562 349.40625 249.695312 C 349.914062 250.0625 350.179688 250.539062 350.140625 251.046875 C 350.160156 251.042969 350.175781 251.03125 350.199219 251.03125 C 356.066406 250.949219 362.253906 250.773438 367.554688 248.039062 C 366.554688 247.71875 365.539062 247.449219 364.503906 247.238281 C 363.757812 247.082031 363.933594 245.90625 364.683594 245.917969 C 365.53125 245.929688 366.359375 245.8125 367.152344 245.507812 C 367.191406 245.496094 367.554688 245.363281 367.761719 245.261719 C 367.691406 245.230469 367.613281 245.183594 367.578125 245.171875 C 367.128906 245.03125 366.707031 244.832031 366.246094 244.710938 C 364.550781 244.265625 362.785156 244.273438 361.046875 244.148438 C 357.539062 243.898438 354.136719 243.058594 350.898438 241.691406 C 350.105469 241.355469 349.988281 240.636719 350.777344 240.96875 C 352.894531 241.867188 355.921875 242.074219 358.1875 242.464844 C 360.398438 242.847656 362.640625 242.808594 364.859375 243.09375 C 365.878906 243.222656 366.878906 243.4375 367.832031 243.828125 C 368.453125 244.082031 369.355469 244.464844 369.3125 245.289062 C 369.273438 246.09375 368.410156 246.4375 367.773438 246.699219 C 367.773438 246.699219 367.769531 246.699219 367.769531 246.699219 C 368.304688 246.871094 368.839844 247.046875 369.371094 247.246094 C 369.902344 247.445312 370.050781 248.152344 369.53125 248.472656 C 363.757812 252.035156 356.789062 252.28125 350.199219 252.375 C 349.925781 252.378906 347.535156 253.492188 346.214844 253.730469 C 346.332031 253.796875 346.453125 253.863281 346.570312 253.925781 C 347.175781 254.253906 347.90625 254.542969 348.359375 255.085938 C 349.324219 256.246094 348.070312 257.371094 347.183594 258.082031 C 345.515625 259.421875 343.464844 260.125 341.367188 260.148438 C 341.453125 260.855469 341.101562 261.515625 340.503906 261.957031 C 338.742188 263.253906 335.859375 262.90625 333.835938 262.65625 C 328.78125 262.03125 323.800781 260.824219 319.015625 259.085938 C 316.285156 258.09375 317.582031 257.964844 319.25 258.371094 Z M 319.25 258.371094 " fill-opacity="1" fill-rule="nonzero"/><path fill="#ffffff" d="M 303.003906 243.53125 C 303.003906 243.53125 307.324219 254.660156 307.65625 254.328125 C 307.988281 253.996094 310.980469 257.152344 316.464844 257.484375 C 321.949219 257.816406 325.273438 254.992188 322.613281 253.332031 C 322.613281 253.332031 328.261719 253.5 329.59375 251.671875 C 330.921875 249.84375 327.765625 246.519531 327.765625 246.519531 C 327.765625 246.519531 333.25 246.355469 332.917969 243.199219 L 328.929688 238.546875 C 328.929688 238.546875 334.246094 239.875 334.246094 237.714844 C 334.246094 235.558594 330.421875 231.734375 325.4375 228.246094 C 320.453125 224.757812 300.84375 236.886719 303.003906 243.53125 Z M 303.003906 243.53125 " fill-opacity="1" fill-rule="nonzero"/><path fill="#46282e" d="M 293.171875 211.40625 C 292.699219 211.558594 286.386719 213.296875 286.550781 223.597656 C 286.71875 233.894531 300.179688 250.175781 307.65625 254.328125 C 307.65625 254.328125 307.988281 251.171875 307.824219 248.679688 C 307.65625 246.1875 315.632812 247.1875 315.632812 243.363281 C 315.632812 239.542969 315.46875 237.050781 318.457031 236.054688 C 321.449219 235.058594 329.09375 233.894531 327.765625 230.40625 C 326.433594 226.917969 299.738281 209.285156 293.171875 211.40625 Z M 293.171875 211.40625 " fill-opacity="1" fill-rule="nonzero"/><path fill="#3a1a20" d="M 288.664062 213.378906 C 290.75 211.296875 293.835938 210.175781 296.722656 211.058594 C 297.546875 211.3125 297.195312 212.609375 296.363281 212.355469 C 293.972656 211.621094 291.453125 212.539062 289.699219 214.246094 C 287.703125 216.1875 286.953125 219.03125 286.910156 221.75 C 286.816406 227.945312 289.777344 233.507812 293.488281 238.269531 C 295.667969 241.066406 297.976562 243.769531 300.234375 246.503906 C 300.78125 247.164062 299.835938 248.121094 299.285156 247.453125 C 297.027344 244.71875 294.722656 242.015625 292.539062 239.21875 C 290.535156 236.644531 288.691406 233.945312 287.441406 230.917969 C 285.238281 225.585938 284.148438 217.886719 288.664062 213.378906 Z M 288.664062 213.378906 " fill-opacity="1" fill-rule="nonzero"/><path fill="#335381" d="M 289.765625 249.183594 C 283.089844 250.566406 276.261719 247.460938 272.882812 241.558594 C 272.453125 240.808594 271.292969 241.484375 271.722656 242.238281 C 275.414062 248.679688 282.859375 251.984375 290.121094 250.476562 C 290.96875 250.304688 290.609375 249.007812 289.765625 249.183594 Z M 289.765625 249.183594 " fill-opacity="1" fill-rule="nonzero"/><path fill="#335381" d="M 309.042969 268.105469 C 305.179688 268.972656 301.953125 266.003906 299.605469 263.351562 C 299.035156 262.703125 298.085938 263.652344 298.65625 264.300781 C 299.25 264.96875 299.890625 265.636719 300.574219 266.261719 C 297.828125 267.488281 294.664062 267.503906 291.882812 266.367188 C 291.542969 266.226562 291.148438 266.515625 291.054688 266.835938 C 290.945312 267.21875 291.191406 267.523438 291.523438 267.660156 C 294.734375 268.972656 298.40625 268.804688 301.519531 267.308594 C 301.585938 267.277344 301.625 267.234375 301.671875 267.195312 C 303.882812 268.925781 306.480469 270.054688 309.402344 269.398438 C 310.242188 269.210938 309.886719 267.914062 309.042969 268.105469 Z M 309.042969 268.105469 " fill-opacity="1" fill-rule="nonzero"/><path fill="#335381" d="M 295.820312 258.222656 C 292.1875 259.597656 288.136719 258.132812 286.285156 254.710938 C 285.871094 253.953125 284.710938 254.628906 285.125 255.390625 C 287.242188 259.296875 292.007812 261.097656 296.179688 259.519531 C 296.980469 259.214844 296.632812 257.917969 295.820312 258.222656 Z M 295.820312 258.222656 " fill-opacity="1" fill-rule="nonzero"/><path fill="#335381" d="M 302.601562 254.714844 C 302.402344 254.371094 302.019531 254.332031 301.683594 254.476562 C 299.785156 255.296875 297.390625 254.964844 295.78125 253.667969 C 295.496094 253.441406 295.105469 253.394531 294.828125 253.667969 C 294.59375 253.902344 294.546875 254.390625 294.828125 254.617188 C 296.957031 256.332031 299.855469 256.71875 302.363281 255.632812 C 302.695312 255.488281 302.769531 255 302.601562 254.714844 Z M 302.601562 254.714844 " fill-opacity="1" fill-rule="nonzero"/><path fill="#3a1a20" d="M 272.234375 223.980469 C 271.75 224.25 271.207031 224.472656 270.667969 224.488281 C 270.136719 224.503906 269.6875 224.328125 269.324219 223.992188 C 268.441406 223.179688 268.230469 221.890625 268.023438 220.734375 C 267.960938 220.375 267.523438 220.175781 267.199219 220.261719 C 266.820312 220.367188 266.667969 220.730469 266.730469 221.089844 C 266.984375 222.542969 267.339844 224.121094 268.554688 225.09375 C 269.15625 225.578125 269.882812 225.855469 270.667969 225.832031 C 271.460938 225.808594 272.222656 225.527344 272.910156 225.140625 C 273.664062 224.714844 272.988281 223.554688 272.234375 223.980469 Z M 272.234375 223.980469 " fill-opacity="1" fill-rule="nonzero"/><path fill="#3a1a20" d="M 277.296875 223.328125 C 277.082031 222.992188 276.726562 222.933594 276.378906 223.085938 C 276.523438 223.023438 276.355469 223.089844 276.332031 223.097656 C 276.28125 223.113281 276.226562 223.125 276.175781 223.136719 C 276.164062 223.140625 276.15625 223.140625 276.152344 223.144531 C 276.144531 223.144531 276.144531 223.144531 276.136719 223.144531 C 276.089844 223.144531 276.046875 223.148438 276 223.152344 C 275.945312 223.152344 275.890625 223.148438 275.835938 223.144531 C 275.824219 223.144531 275.816406 223.144531 275.808594 223.140625 C 275.703125 223.121094 275.601562 223.101562 275.5 223.066406 C 275.460938 223.054688 275.421875 223.039062 275.386719 223.027344 C 275.382812 223.023438 275.328125 223.003906 275.296875 222.988281 C 275.203125 222.941406 275.113281 222.890625 275.023438 222.832031 C 274.984375 222.804688 274.945312 222.777344 274.90625 222.75 C 274.890625 222.742188 274.890625 222.742188 274.882812 222.738281 C 274.878906 222.734375 274.878906 222.730469 274.863281 222.714844 C 274.777344 222.640625 274.691406 222.566406 274.617188 222.480469 C 274.574219 222.4375 274.539062 222.394531 274.5 222.347656 C 274.484375 222.332031 274.484375 222.328125 274.476562 222.324219 C 274.480469 222.324219 274.476562 222.320312 274.46875 222.304688 C 274.398438 222.210938 274.332031 222.113281 274.273438 222.011719 C 274.207031 221.902344 274.144531 221.789062 274.089844 221.675781 C 274.058594 221.617188 274.035156 221.558594 274.007812 221.5 C 273.992188 221.472656 273.988281 221.464844 273.988281 221.460938 C 273.984375 221.453125 273.984375 221.449219 273.972656 221.421875 C 273.789062 220.960938 273.648438 220.480469 273.511719 220 C 273.414062 219.664062 273.03125 219.421875 272.683594 219.53125 C 272.339844 219.644531 272.113281 219.996094 272.214844 220.359375 C 272.539062 221.492188 272.90625 222.714844 273.785156 223.550781 C 274.195312 223.941406 274.703125 224.246094 275.25 224.394531 C 275.871094 224.558594 276.476562 224.5 277.058594 224.246094 C 277.378906 224.101562 277.480469 223.605469 277.296875 223.328125 Z M 277.296875 223.328125 " fill-opacity="1" fill-rule="nonzero"/><path fill="#3a1a20" d="M 277.917969 214.65625 C 277.769531 214.585938 277.628906 214.507812 277.496094 214.417969 C 277.460938 214.394531 277.425781 214.371094 277.394531 214.347656 C 277.386719 214.324219 277.238281 214.210938 277.214844 214.191406 C 277.15625 214.136719 277.097656 214.078125 277.042969 214.019531 C 277.027344 214 276.910156 213.84375 276.890625 213.839844 C 276.882812 213.832031 276.878906 213.824219 276.875 213.816406 C 276.855469 213.792969 276.835938 213.765625 276.816406 213.738281 C 276.769531 213.664062 276.722656 213.589844 276.675781 213.511719 C 276.636719 213.441406 276.597656 213.371094 276.5625 213.296875 C 276.558594 213.289062 276.550781 213.265625 276.539062 213.242188 C 276.539062 213.242188 276.53125 213.230469 276.519531 213.199219 C 276.515625 213.199219 276.515625 213.1875 276.511719 213.1875 C 276.511719 213.1875 276.515625 213.191406 276.515625 213.191406 C 276.457031 213.039062 276.410156 212.886719 276.371094 212.730469 C 276.355469 212.652344 276.339844 212.578125 276.328125 212.5 C 276.324219 212.460938 276.320312 212.421875 276.316406 212.382812 C 276.304688 212.210938 276.308594 212.042969 276.324219 211.875 C 276.355469 211.523438 275.992188 211.1875 275.652344 211.203125 C 275.261719 211.21875 275.015625 211.5 274.980469 211.875 C 274.839844 213.46875 275.792969 215.128906 277.238281 215.816406 C 277.554688 215.964844 277.976562 215.914062 278.15625 215.574219 C 278.316406 215.273438 278.253906 214.816406 277.917969 214.65625 Z M 277.917969 214.65625 " fill-opacity="1" fill-rule="nonzero"/><path fill="#3a1a20" d="M 276.519531 213.199219 C 276.527344 213.210938 276.53125 213.222656 276.542969 213.242188 C 276.546875 213.242188 276.535156 213.203125 276.515625 213.191406 C 276.515625 213.195312 276.515625 213.195312 276.519531 213.199219 Z M 276.519531 213.199219 " fill-opacity="1" fill-rule="nonzero"/><path fill="#3a1a20" d="M 273.792969 211.832031 C 273.242188 211.34375 272.972656 210.640625 272.921875 209.933594 C 272.855469 208.960938 273.109375 208.011719 273.359375 207.078125 C 273.578125 206.242188 272.285156 205.886719 272.0625 206.722656 C 271.773438 207.8125 271.472656 208.960938 271.59375 210.097656 C 271.703125 211.105469 272.070312 212.09375 272.84375 212.78125 C 273.117188 213.019531 273.527344 213.046875 273.792969 212.78125 C 274.039062 212.535156 274.066406 212.074219 273.792969 211.832031 Z M 273.792969 211.832031 " fill-opacity="1" fill-rule="nonzero"/><path fill="#3a1a20" d="M 281.765625 208.539062 C 281.65625 208.507812 281.546875 208.472656 281.441406 208.433594 C 281.421875 208.429688 281.40625 208.421875 281.390625 208.414062 C 281.386719 208.414062 281.386719 208.414062 281.371094 208.40625 C 281.328125 208.382812 281.28125 208.363281 281.234375 208.339844 C 281.132812 208.289062 281.035156 208.230469 280.941406 208.171875 C 280.898438 208.144531 280.855469 208.113281 280.8125 208.085938 C 280.808594 208.082031 280.757812 208.046875 280.734375 208.027344 C 280.5625 207.890625 280.402344 207.742188 280.257812 207.578125 C 280.222656 207.542969 280.1875 207.5 280.15625 207.460938 C 280.136719 207.441406 280.121094 207.421875 280.105469 207.402344 C 280.039062 207.3125 279.976562 207.21875 279.914062 207.121094 C 279.859375 207.035156 279.808594 206.945312 279.761719 206.851562 C 279.730469 206.796875 279.703125 206.742188 279.675781 206.6875 C 279.675781 206.683594 279.652344 206.628906 279.640625 206.597656 C 279.558594 206.394531 279.492188 206.1875 279.445312 205.972656 C 279.433594 205.921875 279.425781 205.871094 279.417969 205.820312 C 279.414062 205.800781 279.410156 205.777344 279.40625 205.761719 C 279.394531 205.65625 279.386719 205.554688 279.382812 205.449219 C 279.378906 205.335938 279.382812 205.222656 279.390625 205.113281 C 279.394531 205.0625 279.398438 205.015625 279.402344 204.96875 C 279.40625 204.960938 279.417969 204.886719 279.421875 204.859375 C 279.488281 204.503906 279.324219 204.136719 278.953125 204.035156 C 278.625 203.945312 278.191406 204.144531 278.125 204.503906 C 277.703125 206.792969 279.140625 209.203125 281.40625 209.832031 C 281.757812 209.929688 282.136719 209.714844 282.234375 209.363281 C 282.328125 209.011719 282.113281 208.636719 281.765625 208.539062 Z M 281.765625 208.539062 " fill-opacity="1" fill-rule="nonzero"/></svg>